G04 #@! TF.GenerationSoftware,KiCad,Pcbnew,6.0.7-f9a2dced07~116~ubuntu20.04.1*
G04 #@! TF.CreationDate,2022-11-11T16:54:04-05:00*
G04 #@! TF.ProjectId,bunGrbl-Breakout,62756e47-7262-46c2-9d42-7265616b6f75,rev?*
G04 #@! TF.SameCoordinates,PX26c1e00PY6a95280*
G04 #@! TF.FileFunction,Legend,Top*
G04 #@! TF.FilePolarity,Positive*
%FSLAX46Y46*%
G04 Gerber Fmt 4.6, Leading zero omitted, Abs format (unit mm)*
G04 Created by KiCad (PCBNEW 6.0.7-f9a2dced07~116~ubuntu20.04.1) date 2022-11-11 16:54:04*
%MOMM*%
%LPD*%
G01*
G04 APERTURE LIST*
%ADD10C,0.300000*%
%ADD11C,0.120000*%
G04 APERTURE END LIST*
D10*
X54166190Y9985239D02*
X55499523Y9985239D01*
X54166190Y7985239D01*
X55499523Y7985239D01*
X56261428Y8747143D02*
X57785238Y8747143D01*
X58642380Y8080477D02*
X58928095Y7985239D01*
X59404285Y7985239D01*
X59594761Y8080477D01*
X59690000Y8175715D01*
X59785238Y8366191D01*
X59785238Y8556667D01*
X59690000Y8747143D01*
X59594761Y8842381D01*
X59404285Y8937620D01*
X59023333Y9032858D01*
X58832857Y9128096D01*
X58737619Y9223334D01*
X58642380Y9413810D01*
X58642380Y9604286D01*
X58737619Y9794762D01*
X58832857Y9890000D01*
X59023333Y9985239D01*
X59499523Y9985239D01*
X59785238Y9890000D01*
X60356666Y9985239D02*
X61499523Y9985239D01*
X60928095Y7985239D02*
X60928095Y9985239D01*
X62166190Y9032858D02*
X62832857Y9032858D01*
X63118571Y7985239D02*
X62166190Y7985239D01*
X62166190Y9985239D01*
X63118571Y9985239D01*
X63975714Y7985239D02*
X63975714Y9985239D01*
X64737619Y9985239D01*
X64928095Y9890000D01*
X65023333Y9794762D01*
X65118571Y9604286D01*
X65118571Y9318572D01*
X65023333Y9128096D01*
X64928095Y9032858D01*
X64737619Y8937620D01*
X63975714Y8937620D01*
X138700000Y6238572D02*
X138604761Y6048096D01*
X138604761Y5762381D01*
X138700000Y5476667D01*
X138890476Y5286191D01*
X139080952Y5190953D01*
X139461904Y5095715D01*
X139747619Y5095715D01*
X140128571Y5190953D01*
X140319047Y5286191D01*
X140509523Y5476667D01*
X140604761Y5762381D01*
X140604761Y5952858D01*
X140509523Y6238572D01*
X140414285Y6333810D01*
X139747619Y6333810D01*
X139747619Y5952858D01*
X140604761Y7190953D02*
X138604761Y7190953D01*
X140604761Y8333810D01*
X138604761Y8333810D01*
X140604761Y9286191D02*
X138604761Y9286191D01*
X138604761Y9762381D01*
X138700000Y10048096D01*
X138890476Y10238572D01*
X139080952Y10333810D01*
X139461904Y10429048D01*
X139747619Y10429048D01*
X140128571Y10333810D01*
X140319047Y10238572D01*
X140509523Y10048096D01*
X140604761Y9762381D01*
X140604761Y9286191D01*
X84090000Y6713572D02*
X83994761Y6523096D01*
X83994761Y6237381D01*
X84090000Y5951667D01*
X84280476Y5761191D01*
X84470952Y5665953D01*
X84851904Y5570715D01*
X85137619Y5570715D01*
X85518571Y5665953D01*
X85709047Y5761191D01*
X85899523Y5951667D01*
X85994761Y6237381D01*
X85994761Y6427858D01*
X85899523Y6713572D01*
X85804285Y6808810D01*
X85137619Y6808810D01*
X85137619Y6427858D01*
X85994761Y7665953D02*
X83994761Y7665953D01*
X85994761Y8808810D01*
X83994761Y8808810D01*
X85994761Y9761191D02*
X83994761Y9761191D01*
X83994761Y10237381D01*
X84090000Y10523096D01*
X84280476Y10713572D01*
X84470952Y10808810D01*
X84851904Y10904048D01*
X85137619Y10904048D01*
X85518571Y10808810D01*
X85709047Y10713572D01*
X85899523Y10523096D01*
X85994761Y10237381D01*
X85994761Y9761191D01*
X80184761Y1540239D02*
X80184761Y2873572D01*
X82184761Y1540239D01*
X82184761Y2873572D01*
X82184761Y3635477D02*
X80184761Y3635477D01*
X81137142Y3635477D02*
X81137142Y4778334D01*
X82184761Y4778334D02*
X80184761Y4778334D01*
X80184761Y6111667D02*
X80184761Y6492620D01*
X80280000Y6683096D01*
X80470476Y6873572D01*
X80851428Y6968810D01*
X81518095Y6968810D01*
X81899047Y6873572D01*
X82089523Y6683096D01*
X82184761Y6492620D01*
X82184761Y6111667D01*
X82089523Y5921191D01*
X81899047Y5730715D01*
X81518095Y5635477D01*
X80851428Y5635477D01*
X80470476Y5730715D01*
X80280000Y5921191D01*
X80184761Y6111667D01*
X82184761Y7825953D02*
X80184761Y7825953D01*
X81613333Y8492620D01*
X80184761Y9159286D01*
X82184761Y9159286D01*
X81137142Y10111667D02*
X81137142Y10778334D01*
X82184761Y11064048D02*
X82184761Y10111667D01*
X80184761Y10111667D01*
X80184761Y11064048D01*
X72564761Y1380239D02*
X74564761Y2713572D01*
X72564761Y2713572D02*
X74564761Y1380239D01*
X74564761Y3475477D02*
X72564761Y3475477D01*
X73517142Y3475477D02*
X73517142Y4618334D01*
X74564761Y4618334D02*
X72564761Y4618334D01*
X72564761Y5951667D02*
X72564761Y6332620D01*
X72660000Y6523096D01*
X72850476Y6713572D01*
X73231428Y6808810D01*
X73898095Y6808810D01*
X74279047Y6713572D01*
X74469523Y6523096D01*
X74564761Y6332620D01*
X74564761Y5951667D01*
X74469523Y5761191D01*
X74279047Y5570715D01*
X73898095Y5475477D01*
X73231428Y5475477D01*
X72850476Y5570715D01*
X72660000Y5761191D01*
X72564761Y5951667D01*
X74564761Y7665953D02*
X72564761Y7665953D01*
X73993333Y8332620D01*
X72564761Y8999286D01*
X74564761Y8999286D01*
X73517142Y9951667D02*
X73517142Y10618334D01*
X74564761Y10904048D02*
X74564761Y9951667D01*
X72564761Y9951667D01*
X72564761Y10904048D01*
X4255190Y9985239D02*
X5588523Y7985239D01*
X5588523Y9985239D02*
X4255190Y7985239D01*
X6350428Y8747143D02*
X7874238Y8747143D01*
X8731380Y8080477D02*
X9017095Y7985239D01*
X9493285Y7985239D01*
X9683761Y8080477D01*
X9778999Y8175715D01*
X9874238Y8366191D01*
X9874238Y8556667D01*
X9778999Y8747143D01*
X9683761Y8842381D01*
X9493285Y8937620D01*
X9112333Y9032858D01*
X8921857Y9128096D01*
X8826619Y9223334D01*
X8731380Y9413810D01*
X8731380Y9604286D01*
X8826619Y9794762D01*
X8921857Y9890000D01*
X9112333Y9985239D01*
X9588523Y9985239D01*
X9874238Y9890000D01*
X10445666Y9985239D02*
X11588523Y9985239D01*
X11017095Y7985239D02*
X11017095Y9985239D01*
X12255190Y9032858D02*
X12921857Y9032858D01*
X13207571Y7985239D02*
X12255190Y7985239D01*
X12255190Y9985239D01*
X13207571Y9985239D01*
X14064714Y7985239D02*
X14064714Y9985239D01*
X14826619Y9985239D01*
X15017095Y9890000D01*
X15112333Y9794762D01*
X15207571Y9604286D01*
X15207571Y9318572D01*
X15112333Y9128096D01*
X15017095Y9032858D01*
X14826619Y8937620D01*
X14064714Y8937620D01*
X23082857Y8937620D02*
X23082857Y7985239D01*
X22416190Y9985239D02*
X23082857Y8937620D01*
X23749523Y9985239D01*
X24416190Y8747143D02*
X25940000Y8747143D01*
X26797142Y8080477D02*
X27082857Y7985239D01*
X27559047Y7985239D01*
X27749523Y8080477D01*
X27844761Y8175715D01*
X27940000Y8366191D01*
X27940000Y8556667D01*
X27844761Y8747143D01*
X27749523Y8842381D01*
X27559047Y8937620D01*
X27178095Y9032858D01*
X26987619Y9128096D01*
X26892380Y9223334D01*
X26797142Y9413810D01*
X26797142Y9604286D01*
X26892380Y9794762D01*
X26987619Y9890000D01*
X27178095Y9985239D01*
X27654285Y9985239D01*
X27940000Y9890000D01*
X28511428Y9985239D02*
X29654285Y9985239D01*
X29082857Y7985239D02*
X29082857Y9985239D01*
X30320952Y9032858D02*
X30987619Y9032858D01*
X31273333Y7985239D02*
X30320952Y7985239D01*
X30320952Y9985239D01*
X31273333Y9985239D01*
X32130476Y7985239D02*
X32130476Y9985239D01*
X32892380Y9985239D01*
X33082857Y9890000D01*
X33178095Y9794762D01*
X33273333Y9604286D01*
X33273333Y9318572D01*
X33178095Y9128096D01*
X33082857Y9032858D01*
X32892380Y8937620D01*
X32130476Y8937620D01*
X134985238Y5507143D02*
X134890000Y5602381D01*
X134794761Y5792858D01*
X134794761Y6269048D01*
X134890000Y6459524D01*
X134985238Y6554762D01*
X135175714Y6650000D01*
X135366190Y6650000D01*
X135651904Y6554762D01*
X136794761Y5411905D01*
X136794761Y6650000D01*
X135461428Y8364286D02*
X136794761Y8364286D01*
X134699523Y7888096D02*
X136128095Y7411905D01*
X136128095Y8650000D01*
X134794761Y9126191D02*
X136794761Y9792858D01*
X134794761Y10459524D01*
X132794285Y2028572D02*
X132889523Y1933334D01*
X132984761Y1647620D01*
X132984761Y1457143D01*
X132889523Y1171429D01*
X132699047Y980953D01*
X132508571Y885715D01*
X132127619Y790477D01*
X131841904Y790477D01*
X131460952Y885715D01*
X131270476Y980953D01*
X131080000Y1171429D01*
X130984761Y1457143D01*
X130984761Y1647620D01*
X131080000Y1933334D01*
X131175238Y2028572D01*
X132984761Y2885715D02*
X130984761Y2885715D01*
X131937142Y2885715D02*
X131937142Y4028572D01*
X132984761Y4028572D02*
X130984761Y4028572D01*
X130984761Y4980953D02*
X132603809Y4980953D01*
X132794285Y5076191D01*
X132889523Y5171429D01*
X132984761Y5361905D01*
X132984761Y5742858D01*
X132889523Y5933334D01*
X132794285Y6028572D01*
X132603809Y6123810D01*
X130984761Y6123810D01*
X132794285Y8219048D02*
X132889523Y8123810D01*
X132984761Y7838096D01*
X132984761Y7647620D01*
X132889523Y7361905D01*
X132699047Y7171429D01*
X132508571Y7076191D01*
X132127619Y6980953D01*
X131841904Y6980953D01*
X131460952Y7076191D01*
X131270476Y7171429D01*
X131080000Y7361905D01*
X130984761Y7647620D01*
X130984761Y7838096D01*
X131080000Y8123810D01*
X131175238Y8219048D01*
X132984761Y9076191D02*
X130984761Y9076191D01*
X132984761Y10219048D02*
X131841904Y9361905D01*
X130984761Y10219048D02*
X132127619Y9076191D01*
X108490476Y6810477D02*
X108776190Y6715239D01*
X109252380Y6715239D01*
X109442857Y6810477D01*
X109538095Y6905715D01*
X109633333Y7096191D01*
X109633333Y7286667D01*
X109538095Y7477143D01*
X109442857Y7572381D01*
X109252380Y7667620D01*
X108871428Y7762858D01*
X108680952Y7858096D01*
X108585714Y7953334D01*
X108490476Y8143810D01*
X108490476Y8334286D01*
X108585714Y8524762D01*
X108680952Y8620000D01*
X108871428Y8715239D01*
X109347619Y8715239D01*
X109633333Y8620000D01*
X110490476Y6715239D02*
X110490476Y8715239D01*
X111252380Y8715239D01*
X111442857Y8620000D01*
X111538095Y8524762D01*
X111633333Y8334286D01*
X111633333Y8048572D01*
X111538095Y7858096D01*
X111442857Y7762858D01*
X111252380Y7667620D01*
X110490476Y7667620D01*
X112490476Y6715239D02*
X112490476Y8715239D01*
X113442857Y6715239D02*
X113442857Y8715239D01*
X114585714Y6715239D01*
X114585714Y8715239D01*
X115538095Y6715239D02*
X115538095Y8715239D01*
X116014285Y8715239D01*
X116300000Y8620000D01*
X116490476Y8429524D01*
X116585714Y8239048D01*
X116680952Y7858096D01*
X116680952Y7572381D01*
X116585714Y7191429D01*
X116490476Y7000953D01*
X116300000Y6810477D01*
X116014285Y6715239D01*
X115538095Y6715239D01*
X118490476Y6715239D02*
X117538095Y6715239D01*
X117538095Y8715239D01*
X119157142Y7762858D02*
X119823809Y7762858D01*
X120109523Y6715239D02*
X119157142Y6715239D01*
X119157142Y8715239D01*
X120109523Y8715239D01*
X77422380Y2302143D02*
X78374761Y2302143D01*
X76374761Y1635477D02*
X77422380Y2302143D01*
X76374761Y2968810D01*
X78374761Y3635477D02*
X76374761Y3635477D01*
X77327142Y3635477D02*
X77327142Y4778334D01*
X78374761Y4778334D02*
X76374761Y4778334D01*
X76374761Y6111667D02*
X76374761Y6492620D01*
X76470000Y6683096D01*
X76660476Y6873572D01*
X77041428Y6968810D01*
X77708095Y6968810D01*
X78089047Y6873572D01*
X78279523Y6683096D01*
X78374761Y6492620D01*
X78374761Y6111667D01*
X78279523Y5921191D01*
X78089047Y5730715D01*
X77708095Y5635477D01*
X77041428Y5635477D01*
X76660476Y5730715D01*
X76470000Y5921191D01*
X76374761Y6111667D01*
X78374761Y7825953D02*
X76374761Y7825953D01*
X77803333Y8492620D01*
X76374761Y9159286D01*
X78374761Y9159286D01*
X77327142Y10111667D02*
X77327142Y10778334D01*
X78374761Y11064048D02*
X78374761Y10111667D01*
X76374761Y10111667D01*
X76374761Y11064048D01*
X127174761Y3457143D02*
X127174761Y4600000D01*
X129174761Y4028572D02*
X127174761Y4028572D01*
X127174761Y5647620D02*
X127174761Y6028572D01*
X127270000Y6219048D01*
X127460476Y6409524D01*
X127841428Y6504762D01*
X128508095Y6504762D01*
X128889047Y6409524D01*
X129079523Y6219048D01*
X129174761Y6028572D01*
X129174761Y5647620D01*
X129079523Y5457143D01*
X128889047Y5266667D01*
X128508095Y5171429D01*
X127841428Y5171429D01*
X127460476Y5266667D01*
X127270000Y5457143D01*
X127174761Y5647620D01*
X127174761Y7742858D02*
X127174761Y8123810D01*
X127270000Y8314286D01*
X127460476Y8504762D01*
X127841428Y8600000D01*
X128508095Y8600000D01*
X128889047Y8504762D01*
X129079523Y8314286D01*
X129174761Y8123810D01*
X129174761Y7742858D01*
X129079523Y7552381D01*
X128889047Y7361905D01*
X128508095Y7266667D01*
X127841428Y7266667D01*
X127460476Y7361905D01*
X127270000Y7552381D01*
X127174761Y7742858D01*
X129174761Y10409524D02*
X129174761Y9457143D01*
X127174761Y9457143D01*
D11*
G04 #@! TO.C,J8*
X141130000Y15240000D02*
G75*
G03*
X141130000Y15240000I-1430000J0D01*
G01*
X137320000Y15240000D02*
G75*
G03*
X137320000Y15240000I-1430000J0D01*
G01*
X133510000Y15240000D02*
G75*
G03*
X133510000Y15240000I-1430000J0D01*
G01*
X129700000Y15240000D02*
G75*
G03*
X129700000Y15240000I-1430000J0D01*
G01*
X141610000Y18240000D02*
X126360000Y18240000D01*
X141610000Y16941000D02*
X126360000Y16941000D01*
X141610000Y13540000D02*
X126360000Y13540000D01*
X141610000Y11480000D02*
X126360000Y11480000D01*
X141610000Y18900000D02*
X126360000Y18900000D01*
X141610000Y11480000D02*
X141610000Y18900000D01*
X126360000Y11480000D02*
X126360000Y18900000D01*
X138615000Y14330000D02*
X138755000Y14469000D01*
X140471000Y16185000D02*
X140611000Y16325000D01*
X138789000Y14155000D02*
X138929000Y14295000D01*
X140646000Y16011000D02*
X140785000Y16150000D01*
X140700000Y11640000D02*
X138700000Y11640000D01*
X140700000Y12140000D02*
X138700000Y12140000D01*
X140700000Y11640000D02*
X140700000Y12140000D01*
X138700000Y11640000D02*
X138700000Y12140000D01*
X134805000Y14330000D02*
X135104000Y14629000D01*
X136500000Y16026000D02*
X136800000Y16325000D01*
X134979000Y14155000D02*
X135279000Y14454000D01*
X136675000Y15851000D02*
X136974000Y16150000D01*
X136890000Y11640000D02*
X134890000Y11640000D01*
X136890000Y12140000D02*
X134890000Y12140000D01*
X136890000Y11640000D02*
X136890000Y12140000D01*
X134890000Y11640000D02*
X134890000Y12140000D01*
X130995000Y14330000D02*
X131294000Y14629000D01*
X132690000Y16026000D02*
X132990000Y16325000D01*
X131169000Y14155000D02*
X131469000Y14454000D01*
X132865000Y15851000D02*
X133164000Y16150000D01*
X133080000Y11640000D02*
X131080000Y11640000D01*
X133080000Y12140000D02*
X131080000Y12140000D01*
X133080000Y11640000D02*
X133080000Y12140000D01*
X131080000Y11640000D02*
X131080000Y12140000D01*
X127185000Y14330000D02*
X127484000Y14629000D01*
X128880000Y16026000D02*
X129180000Y16325000D01*
X127359000Y14155000D02*
X127659000Y14454000D01*
X129055000Y15851000D02*
X129354000Y16150000D01*
X129270000Y11640000D02*
X127270000Y11640000D01*
X129270000Y12140000D02*
X127270000Y12140000D01*
X129270000Y11640000D02*
X129270000Y12140000D01*
X127270000Y11640000D02*
X127270000Y12140000D01*
X141850000Y18300000D02*
X141850000Y19140000D01*
X141850000Y19140000D02*
X141250000Y19140000D01*
G04 #@! TO.C,J4*
X72749000Y14155000D02*
X73049000Y14454000D01*
X86090000Y11640000D02*
X84090000Y11640000D01*
X80195000Y14330000D02*
X80494000Y14629000D01*
X78470000Y11640000D02*
X76470000Y11640000D01*
X87240000Y18300000D02*
X87240000Y19140000D01*
X74445000Y15851000D02*
X74744000Y16150000D01*
X74660000Y12140000D02*
X72660000Y12140000D01*
X82280000Y11640000D02*
X80280000Y11640000D01*
X87000000Y11480000D02*
X71750000Y11480000D01*
X71750000Y11480000D02*
X71750000Y18900000D01*
X87000000Y18240000D02*
X71750000Y18240000D01*
X78470000Y12140000D02*
X76470000Y12140000D01*
X86090000Y11640000D02*
X86090000Y12140000D01*
X86090000Y12140000D02*
X84090000Y12140000D01*
X84005000Y14330000D02*
X84145000Y14469000D01*
X84179000Y14155000D02*
X84319000Y14295000D01*
X76385000Y14330000D02*
X76684000Y14629000D01*
X72660000Y11640000D02*
X72660000Y12140000D01*
X78080000Y16026000D02*
X78380000Y16325000D01*
X82065000Y15851000D02*
X82364000Y16150000D01*
X85861000Y16185000D02*
X86001000Y16325000D01*
X74660000Y11640000D02*
X72660000Y11640000D01*
X87000000Y13540000D02*
X71750000Y13540000D01*
X74660000Y11640000D02*
X74660000Y12140000D01*
X84090000Y11640000D02*
X84090000Y12140000D01*
X87000000Y18900000D02*
X71750000Y18900000D01*
X87000000Y11480000D02*
X87000000Y18900000D01*
X76470000Y11640000D02*
X76470000Y12140000D01*
X76559000Y14155000D02*
X76859000Y14454000D01*
X82280000Y11640000D02*
X82280000Y12140000D01*
X80369000Y14155000D02*
X80669000Y14454000D01*
X86036000Y16011000D02*
X86175000Y16150000D01*
X82280000Y12140000D02*
X80280000Y12140000D01*
X87240000Y19140000D02*
X86640000Y19140000D01*
X74270000Y16026000D02*
X74570000Y16325000D01*
X78255000Y15851000D02*
X78554000Y16150000D01*
X78470000Y11640000D02*
X78470000Y12140000D01*
X81890000Y16026000D02*
X82190000Y16325000D01*
X80280000Y11640000D02*
X80280000Y12140000D01*
X87000000Y16941000D02*
X71750000Y16941000D01*
X72575000Y14330000D02*
X72874000Y14629000D01*
X86520000Y15240000D02*
G75*
G03*
X86520000Y15240000I-1430000J0D01*
G01*
X78900000Y15240000D02*
G75*
G03*
X78900000Y15240000I-1430000J0D01*
G01*
X75090000Y15240000D02*
G75*
G03*
X75090000Y15240000I-1430000J0D01*
G01*
X82710000Y15240000D02*
G75*
G03*
X82710000Y15240000I-1430000J0D01*
G01*
G04 #@! TO.C,J6*
X85720000Y43500000D02*
X85720000Y31160000D01*
X56115000Y30265662D02*
X56365000Y30698675D01*
X46400000Y31160000D02*
X46400000Y43500000D01*
X56615000Y30265662D02*
X56115000Y30265662D01*
X85720000Y31160000D02*
X46400000Y31160000D01*
X56365000Y30698675D02*
X56615000Y30265662D01*
G04 #@! TO.C,J5*
X29995000Y30698675D02*
X30245000Y30265662D01*
X30245000Y30265662D02*
X29745000Y30265662D01*
X640000Y31160000D02*
X640000Y43500000D01*
X39960000Y31160000D02*
X640000Y31160000D01*
X39960000Y43500000D02*
X39960000Y31160000D01*
X29745000Y30265662D02*
X29995000Y30698675D01*
G04 #@! TO.C,J1*
X17150000Y11525000D02*
X17150000Y18945000D01*
X8620000Y11685000D02*
X6620000Y11685000D01*
X17390000Y19185000D02*
X16790000Y19185000D01*
X12430000Y12185000D02*
X10430000Y12185000D01*
X16186000Y16056000D02*
X16325000Y16195000D01*
X6535000Y14375000D02*
X6834000Y14674000D01*
X16011000Y16230000D02*
X16151000Y16370000D01*
X4810000Y12185000D02*
X2810000Y12185000D01*
X12430000Y11685000D02*
X12430000Y12185000D01*
X14329000Y14200000D02*
X14469000Y14340000D01*
X17390000Y18345000D02*
X17390000Y19185000D01*
X14155000Y14375000D02*
X14295000Y14514000D01*
X12215000Y15896000D02*
X12514000Y16195000D01*
X16240000Y11685000D02*
X16240000Y12185000D01*
X2810000Y11685000D02*
X2810000Y12185000D01*
X17150000Y16986000D02*
X1900000Y16986000D01*
X2725000Y14375000D02*
X3024000Y14674000D01*
X4810000Y11685000D02*
X2810000Y11685000D01*
X12430000Y11685000D02*
X10430000Y11685000D01*
X12040000Y16071000D02*
X12340000Y16370000D01*
X4595000Y15896000D02*
X4894000Y16195000D01*
X8230000Y16071000D02*
X8530000Y16370000D01*
X17150000Y18285000D02*
X1900000Y18285000D01*
X17150000Y18945000D02*
X1900000Y18945000D01*
X8620000Y12185000D02*
X6620000Y12185000D01*
X1900000Y11525000D02*
X1900000Y18945000D01*
X16240000Y11685000D02*
X14240000Y11685000D01*
X2899000Y14200000D02*
X3199000Y14499000D01*
X17150000Y13585000D02*
X1900000Y13585000D01*
X6709000Y14200000D02*
X7009000Y14499000D01*
X10430000Y11685000D02*
X10430000Y12185000D01*
X4420000Y16071000D02*
X4720000Y16370000D01*
X10519000Y14200000D02*
X10819000Y14499000D01*
X10345000Y14375000D02*
X10644000Y14674000D01*
X8620000Y11685000D02*
X8620000Y12185000D01*
X8405000Y15896000D02*
X8704000Y16195000D01*
X4810000Y11685000D02*
X4810000Y12185000D01*
X16240000Y12185000D02*
X14240000Y12185000D01*
X14240000Y11685000D02*
X14240000Y12185000D01*
X6620000Y11685000D02*
X6620000Y12185000D01*
X17150000Y11525000D02*
X1900000Y11525000D01*
X16670000Y15285000D02*
G75*
G03*
X16670000Y15285000I-1430000J0D01*
G01*
X5240000Y15285000D02*
G75*
G03*
X5240000Y15285000I-1430000J0D01*
G01*
X9050000Y15285000D02*
G75*
G03*
X9050000Y15285000I-1430000J0D01*
G01*
X12860000Y15285000D02*
G75*
G03*
X12860000Y15285000I-1430000J0D01*
G01*
G04 #@! TO.C,J3*
X63230000Y11640000D02*
X63230000Y12140000D01*
X65129000Y14155000D02*
X65269000Y14295000D01*
X67950000Y13540000D02*
X52700000Y13540000D01*
X67950000Y11480000D02*
X67950000Y18900000D01*
X53610000Y11640000D02*
X53610000Y12140000D01*
X67040000Y11640000D02*
X65040000Y11640000D01*
X55610000Y11640000D02*
X53610000Y11640000D01*
X66811000Y16185000D02*
X66951000Y16325000D01*
X67950000Y18240000D02*
X52700000Y18240000D01*
X62840000Y16026000D02*
X63140000Y16325000D01*
X65040000Y11640000D02*
X65040000Y12140000D01*
X66986000Y16011000D02*
X67125000Y16150000D01*
X55610000Y12140000D02*
X53610000Y12140000D01*
X68190000Y19140000D02*
X67590000Y19140000D01*
X52700000Y11480000D02*
X52700000Y18900000D01*
X57335000Y14330000D02*
X57634000Y14629000D01*
X67040000Y12140000D02*
X65040000Y12140000D01*
X61319000Y14155000D02*
X61619000Y14454000D01*
X67040000Y11640000D02*
X67040000Y12140000D01*
X59420000Y11640000D02*
X57420000Y11640000D01*
X64955000Y14330000D02*
X65095000Y14469000D01*
X59205000Y15851000D02*
X59504000Y16150000D01*
X55610000Y11640000D02*
X55610000Y12140000D01*
X53699000Y14155000D02*
X53999000Y14454000D01*
X61145000Y14330000D02*
X61444000Y14629000D01*
X63015000Y15851000D02*
X63314000Y16150000D01*
X67950000Y16941000D02*
X52700000Y16941000D01*
X67950000Y18900000D02*
X52700000Y18900000D01*
X59420000Y11640000D02*
X59420000Y12140000D01*
X59420000Y12140000D02*
X57420000Y12140000D01*
X59030000Y16026000D02*
X59330000Y16325000D01*
X55220000Y16026000D02*
X55520000Y16325000D01*
X57420000Y11640000D02*
X57420000Y12140000D01*
X53525000Y14330000D02*
X53824000Y14629000D01*
X55395000Y15851000D02*
X55694000Y16150000D01*
X57509000Y14155000D02*
X57809000Y14454000D01*
X63230000Y12140000D02*
X61230000Y12140000D01*
X61230000Y11640000D02*
X61230000Y12140000D01*
X67950000Y11480000D02*
X52700000Y11480000D01*
X68190000Y18300000D02*
X68190000Y19140000D01*
X63230000Y11640000D02*
X61230000Y11640000D01*
X59850000Y15240000D02*
G75*
G03*
X59850000Y15240000I-1430000J0D01*
G01*
X63660000Y15240000D02*
G75*
G03*
X63660000Y15240000I-1430000J0D01*
G01*
X67470000Y15240000D02*
G75*
G03*
X67470000Y15240000I-1430000J0D01*
G01*
X56040000Y15240000D02*
G75*
G03*
X56040000Y15240000I-1430000J0D01*
G01*
G04 #@! TO.C,J7*
X120928000Y16821000D02*
X121034000Y16928000D01*
X121980000Y11640000D02*
X106620000Y11640000D01*
X112912000Y13886000D02*
X113292000Y14266000D01*
X115307000Y16814000D02*
X115687000Y17194000D01*
X110227000Y16814000D02*
X110607000Y17194000D01*
X121980000Y20900000D02*
X106620000Y20900000D01*
X121980000Y9580000D02*
X106620000Y9580000D01*
X107566000Y14152000D02*
X107961000Y14548000D01*
X122220000Y21140000D02*
X121720000Y21140000D01*
X115558000Y16532000D02*
X115953000Y16928000D01*
X122220000Y20400000D02*
X122220000Y21140000D01*
X106620000Y9580000D02*
X106620000Y20900000D01*
X121980000Y20340000D02*
X106620000Y20340000D01*
X120662000Y17087000D02*
X120768000Y17194000D01*
X121980000Y17840000D02*
X106620000Y17840000D01*
X121980000Y9580000D02*
X121980000Y20900000D01*
X110478000Y16532000D02*
X110873000Y16928000D01*
X112646000Y14152000D02*
X113041000Y14548000D01*
X117726000Y14152000D02*
X117833000Y14259000D01*
X107832000Y13886000D02*
X108212000Y14266000D01*
X117992000Y13886000D02*
X118099000Y13993000D01*
X116480000Y15540000D02*
G75*
G03*
X116480000Y15540000I-2180000J0D01*
G01*
X111400000Y15540000D02*
G75*
G03*
X111400000Y15540000I-2180000J0D01*
G01*
X121560000Y15540000D02*
G75*
G03*
X121560000Y15540000I-2180000J0D01*
G01*
G04 #@! TO.C,J2*
X34930000Y13540000D02*
X19680000Y13540000D01*
X20679000Y14155000D02*
X20979000Y14454000D01*
X26400000Y11640000D02*
X24400000Y11640000D01*
X20590000Y11640000D02*
X20590000Y12140000D01*
X32109000Y14155000D02*
X32249000Y14295000D01*
X26185000Y15851000D02*
X26484000Y16150000D01*
X26010000Y16026000D02*
X26310000Y16325000D01*
X34020000Y11640000D02*
X32020000Y11640000D01*
X35170000Y18300000D02*
X35170000Y19140000D01*
X29820000Y16026000D02*
X30120000Y16325000D01*
X34930000Y18900000D02*
X19680000Y18900000D01*
X24489000Y14155000D02*
X24789000Y14454000D01*
X30210000Y11640000D02*
X28210000Y11640000D01*
X22590000Y11640000D02*
X20590000Y11640000D01*
X19680000Y11480000D02*
X19680000Y18900000D01*
X29995000Y15851000D02*
X30294000Y16150000D01*
X24315000Y14330000D02*
X24614000Y14629000D01*
X28210000Y11640000D02*
X28210000Y12140000D01*
X28125000Y14330000D02*
X28424000Y14629000D01*
X20505000Y14330000D02*
X20804000Y14629000D01*
X22590000Y11640000D02*
X22590000Y12140000D01*
X30210000Y12140000D02*
X28210000Y12140000D01*
X34930000Y16941000D02*
X19680000Y16941000D01*
X22375000Y15851000D02*
X22674000Y16150000D01*
X33966000Y16011000D02*
X34105000Y16150000D01*
X26400000Y12140000D02*
X24400000Y12140000D01*
X28299000Y14155000D02*
X28599000Y14454000D01*
X34020000Y11640000D02*
X34020000Y12140000D01*
X22200000Y16026000D02*
X22500000Y16325000D01*
X34930000Y11480000D02*
X19680000Y11480000D01*
X26400000Y11640000D02*
X26400000Y12140000D01*
X33791000Y16185000D02*
X33931000Y16325000D01*
X31935000Y14330000D02*
X32075000Y14469000D01*
X32020000Y11640000D02*
X32020000Y12140000D01*
X34930000Y11480000D02*
X34930000Y18900000D01*
X34930000Y18240000D02*
X19680000Y18240000D01*
X22590000Y12140000D02*
X20590000Y12140000D01*
X30210000Y11640000D02*
X30210000Y12140000D01*
X34020000Y12140000D02*
X32020000Y12140000D01*
X24400000Y11640000D02*
X24400000Y12140000D01*
X35170000Y19140000D02*
X34570000Y19140000D01*
X26830000Y15240000D02*
G75*
G03*
X26830000Y15240000I-1430000J0D01*
G01*
X34450000Y15240000D02*
G75*
G03*
X34450000Y15240000I-1430000J0D01*
G01*
X23020000Y15240000D02*
G75*
G03*
X23020000Y15240000I-1430000J0D01*
G01*
X30640000Y15240000D02*
G75*
G03*
X30640000Y15240000I-1430000J0D01*
G01*
G04 #@! TO.C,J9*
X92765000Y31160000D02*
X92765000Y43500000D01*
X103005000Y30265662D02*
X102505000Y30265662D01*
X145985000Y31160000D02*
X92765000Y31160000D01*
X145985000Y43500000D02*
X145985000Y31160000D01*
X102755000Y30698675D02*
X103005000Y30265662D01*
X102505000Y30265662D02*
X102755000Y30698675D01*
G04 #@! TD*
M02*
