G04 #@! TF.GenerationSoftware,KiCad,Pcbnew,6.0.7-f9a2dced07~116~ubuntu20.04.1*
G04 #@! TF.CreationDate,2022-11-11T16:54:04-05:00*
G04 #@! TF.ProjectId,bunGrbl-Breakout,62756e47-7262-46c2-9d42-7265616b6f75,rev?*
G04 #@! TF.SameCoordinates,PX26c1e00PY6a95280*
G04 #@! TF.FileFunction,Copper,L2,Bot*
G04 #@! TF.FilePolarity,Positive*
%FSLAX46Y46*%
G04 Gerber Fmt 4.6, Leading zero omitted, Abs format (unit mm)*
G04 Created by KiCad (PCBNEW 6.0.7-f9a2dced07~116~ubuntu20.04.1) date 2022-11-11 16:54:04*
%MOMM*%
%LPD*%
G01*
G04 APERTURE LIST*
G04 #@! TA.AperFunction,ComponentPad*
%ADD10R,1.600000X2.000000*%
G04 #@! TD*
G04 #@! TA.AperFunction,ComponentPad*
%ADD11O,1.600000X2.000000*%
G04 #@! TD*
G04 #@! TA.AperFunction,ComponentPad*
%ADD12O,4.000000X4.000000*%
G04 #@! TD*
G04 #@! TA.AperFunction,ComponentPad*
%ADD13R,1.800000X2.600000*%
G04 #@! TD*
G04 #@! TA.AperFunction,ComponentPad*
%ADD14O,1.800000X2.600000*%
G04 #@! TD*
G04 #@! TA.AperFunction,ComponentPad*
%ADD15C,4.000000*%
G04 #@! TD*
G04 #@! TA.AperFunction,ComponentPad*
%ADD16C,10.600000*%
G04 #@! TD*
G04 #@! TA.AperFunction,ComponentPad*
%ADD17R,2.600000X2.600000*%
G04 #@! TD*
G04 #@! TA.AperFunction,ComponentPad*
%ADD18C,2.600000*%
G04 #@! TD*
G04 #@! TA.AperFunction,ViaPad*
%ADD19C,1.200000*%
G04 #@! TD*
G04 #@! TA.AperFunction,Conductor*
%ADD20C,1.000000*%
G04 #@! TD*
G04 #@! TA.AperFunction,Conductor*
%ADD21C,0.500000*%
G04 #@! TD*
G04 #@! TA.AperFunction,Conductor*
%ADD22C,1.800000*%
G04 #@! TD*
G04 APERTURE END LIST*
D10*
G04 #@! TO.P,J8,1,Pin_1*
G04 #@! TO.N,GND*
X139700000Y15240000D03*
D11*
G04 #@! TO.P,J8,2,Pin_2*
G04 #@! TO.N,/24V*
X135890000Y15240000D03*
G04 #@! TO.P,J8,3,Pin_3*
G04 #@! TO.N,/CHUCK*
X132080000Y15240000D03*
G04 #@! TO.P,J8,4,Pin_4*
G04 #@! TO.N,/PROBE*
X128270000Y15240000D03*
G04 #@! TD*
D10*
G04 #@! TO.P,J4,1,Pin_1*
G04 #@! TO.N,GND*
X85090000Y15240000D03*
D11*
G04 #@! TO.P,J4,2,Pin_2*
G04 #@! TO.N,/Z_LIMIT*
X81280000Y15240000D03*
G04 #@! TO.P,J4,3,Pin_3*
G04 #@! TO.N,/Y_LIMIT*
X77470000Y15240000D03*
G04 #@! TO.P,J4,4,Pin_4*
G04 #@! TO.N,/X_LIMIT*
X73660000Y15240000D03*
G04 #@! TD*
D12*
G04 #@! TO.P,J6,0,PAD*
G04 #@! TO.N,GND*
X49410000Y34440000D03*
X82710000Y34440000D03*
D13*
G04 #@! TO.P,J6,1,1*
G04 #@! TO.N,/Y_B*
X56365000Y32520000D03*
D14*
G04 #@! TO.P,J6,2,2*
G04 #@! TO.N,/Y_A*
X59135000Y32520000D03*
G04 #@! TO.P,J6,3,3*
G04 #@! TO.N,/Y_LIMIT*
X61905000Y32520000D03*
G04 #@! TO.P,J6,4,4*
G04 #@! TO.N,/Z_D*
X64675000Y32520000D03*
G04 #@! TO.P,J6,5,5*
G04 #@! TO.N,/Z_C*
X67445000Y32520000D03*
G04 #@! TO.P,J6,6,6*
G04 #@! TO.N,/Z_B*
X70215000Y32520000D03*
G04 #@! TO.P,J6,7,7*
G04 #@! TO.N,/Z_A*
X72985000Y32520000D03*
G04 #@! TO.P,J6,8,8*
G04 #@! TO.N,/Z_LIMIT*
X75755000Y32520000D03*
G04 #@! TO.P,J6,9,P9*
G04 #@! TO.N,/Y_B*
X57750000Y36360000D03*
G04 #@! TO.P,J6,10,P10*
G04 #@! TO.N,/Y_A*
X60520000Y36360000D03*
G04 #@! TO.P,J6,11,P111*
G04 #@! TO.N,unconnected-(J6-Pad11)*
X63290000Y36360000D03*
G04 #@! TO.P,J6,12,P12*
G04 #@! TO.N,/Z_D*
X66060000Y36360000D03*
G04 #@! TO.P,J6,13,P13*
G04 #@! TO.N,/Z_C*
X68830000Y36360000D03*
G04 #@! TO.P,J6,14,P14*
G04 #@! TO.N,/Z_B*
X71600000Y36360000D03*
G04 #@! TO.P,J6,15,P15*
G04 #@! TO.N,/Z_A*
X74370000Y36360000D03*
G04 #@! TD*
D15*
G04 #@! TO.P,J5,0,PAD*
G04 #@! TO.N,GND*
X36950000Y34440000D03*
X3650000Y34440000D03*
D13*
G04 #@! TO.P,J5,1,1*
X29995000Y32520000D03*
D14*
G04 #@! TO.P,J5,2,2*
G04 #@! TO.N,/Y_C*
X27225000Y32520000D03*
G04 #@! TO.P,J5,3,3*
G04 #@! TO.N,/Y_D*
X24455000Y32520000D03*
G04 #@! TO.P,J5,4,4*
G04 #@! TO.N,/X_LIMIT*
X21685000Y32520000D03*
G04 #@! TO.P,J5,5,5*
G04 #@! TO.N,/X_A*
X18915000Y32520000D03*
G04 #@! TO.P,J5,6,6*
G04 #@! TO.N,/X_B*
X16145000Y32520000D03*
G04 #@! TO.P,J5,7,7*
G04 #@! TO.N,/X_C*
X13375000Y32520000D03*
G04 #@! TO.P,J5,8,8*
G04 #@! TO.N,/X_D*
X10605000Y32520000D03*
G04 #@! TO.P,J5,9,P9*
G04 #@! TO.N,/Y_C*
X28610000Y36360000D03*
G04 #@! TO.P,J5,10,P10*
G04 #@! TO.N,/Y_D*
X25840000Y36360000D03*
G04 #@! TO.P,J5,11,P111*
G04 #@! TO.N,unconnected-(J5-Pad11)*
X23070000Y36360000D03*
G04 #@! TO.P,J5,12,P12*
G04 #@! TO.N,/X_A*
X20300000Y36360000D03*
G04 #@! TO.P,J5,13,P13*
G04 #@! TO.N,/X_B*
X17530000Y36360000D03*
G04 #@! TO.P,J5,14,P14*
G04 #@! TO.N,/X_C*
X14760000Y36360000D03*
G04 #@! TO.P,J5,15,P15*
G04 #@! TO.N,/X_D*
X11990000Y36360000D03*
G04 #@! TD*
D10*
G04 #@! TO.P,J1,1,Pin_1*
G04 #@! TO.N,/X_A*
X15240000Y15285000D03*
D11*
G04 #@! TO.P,J1,2,Pin_2*
G04 #@! TO.N,/X_B*
X11430000Y15285000D03*
G04 #@! TO.P,J1,3,Pin_3*
G04 #@! TO.N,/X_C*
X7620000Y15285000D03*
G04 #@! TO.P,J1,4,Pin_4*
G04 #@! TO.N,/X_D*
X3810000Y15285000D03*
G04 #@! TD*
D10*
G04 #@! TO.P,J3,1,Pin_1*
G04 #@! TO.N,/Z_A*
X66040000Y15240000D03*
D11*
G04 #@! TO.P,J3,2,Pin_2*
G04 #@! TO.N,/Z_B*
X62230000Y15240000D03*
G04 #@! TO.P,J3,3,Pin_3*
G04 #@! TO.N,/Z_C*
X58420000Y15240000D03*
G04 #@! TO.P,J3,4,Pin_4*
G04 #@! TO.N,/Z_D*
X54610000Y15240000D03*
G04 #@! TD*
D16*
G04 #@! TO.P,H2,1,1*
G04 #@! TO.N,GND*
X43180000Y15240000D03*
G04 #@! TD*
D17*
G04 #@! TO.P,J7,1,Pin_1*
G04 #@! TO.N,/SPIN_W*
X119380000Y15540000D03*
D18*
G04 #@! TO.P,J7,2,Pin_2*
G04 #@! TO.N,/SPIN_V*
X114300000Y15540000D03*
G04 #@! TO.P,J7,3,Pin_3*
G04 #@! TO.N,/SPIN_U*
X109220000Y15540000D03*
G04 #@! TD*
D10*
G04 #@! TO.P,J2,1,Pin_1*
G04 #@! TO.N,/Y_A*
X33020000Y15240000D03*
D11*
G04 #@! TO.P,J2,2,Pin_2*
G04 #@! TO.N,/Y_B*
X29210000Y15240000D03*
G04 #@! TO.P,J2,3,Pin_3*
G04 #@! TO.N,/Y_C*
X25400000Y15240000D03*
G04 #@! TO.P,J2,4,Pin_4*
G04 #@! TO.N,/Y_D*
X21590000Y15240000D03*
G04 #@! TD*
D15*
G04 #@! TO.P,J9,0,PAD*
G04 #@! TO.N,GND*
X95825000Y34440000D03*
X142925000Y34440000D03*
D13*
G04 #@! TO.P,J9,1,1*
X102755000Y32520000D03*
D14*
G04 #@! TO.P,J9,2,2*
G04 #@! TO.N,/SPIN_U*
X105525000Y32520000D03*
G04 #@! TO.P,J9,3,3*
X108295000Y32520000D03*
G04 #@! TO.P,J9,4,4*
G04 #@! TO.N,/SPIN_V*
X111065000Y32520000D03*
G04 #@! TO.P,J9,5,5*
X113835000Y32520000D03*
G04 #@! TO.P,J9,6,6*
G04 #@! TO.N,/SPIN_W*
X116605000Y32520000D03*
G04 #@! TO.P,J9,7,7*
X119375000Y32520000D03*
G04 #@! TO.P,J9,8,8*
G04 #@! TO.N,unconnected-(J9-Pad8)*
X122145000Y32520000D03*
G04 #@! TO.P,J9,9,9*
G04 #@! TO.N,/PROBE*
X124915000Y32520000D03*
G04 #@! TO.P,J9,10,10*
G04 #@! TO.N,unconnected-(J9-Pad10)*
X127685000Y32520000D03*
G04 #@! TO.P,J9,11,11*
G04 #@! TO.N,/CHUCK*
X130455000Y32520000D03*
G04 #@! TO.P,J9,12,12*
G04 #@! TO.N,/24V*
X133225000Y32520000D03*
G04 #@! TO.P,J9,13,13*
G04 #@! TO.N,unconnected-(J9-Pad13)*
X135995000Y32520000D03*
G04 #@! TO.P,J9,14,P14*
G04 #@! TO.N,GND*
X104140000Y36360000D03*
G04 #@! TO.P,J9,15,P15*
G04 #@! TO.N,/SPIN_U*
X106910000Y36360000D03*
G04 #@! TO.P,J9,16,P16*
X109680000Y36360000D03*
G04 #@! TO.P,J9,17,P17*
G04 #@! TO.N,/SPIN_V*
X112450000Y36360000D03*
G04 #@! TO.P,J9,18,P18*
X115220000Y36360000D03*
G04 #@! TO.P,J9,19,P19*
G04 #@! TO.N,/SPIN_W*
X117990000Y36360000D03*
G04 #@! TO.P,J9,20,P20*
X120760000Y36360000D03*
G04 #@! TO.P,J9,21,P21*
G04 #@! TO.N,unconnected-(J9-Pad21)*
X123530000Y36360000D03*
G04 #@! TO.P,J9,22,P22*
G04 #@! TO.N,unconnected-(J9-Pad22)*
X126300000Y36360000D03*
G04 #@! TO.P,J9,23,P23*
G04 #@! TO.N,unconnected-(J9-Pad23)*
X129070000Y36360000D03*
G04 #@! TO.P,J9,24,P24*
G04 #@! TO.N,unconnected-(J9-Pad24)*
X131840000Y36360000D03*
G04 #@! TO.P,J9,25,P25*
G04 #@! TO.N,GND*
X134610000Y36360000D03*
G04 #@! TD*
D16*
G04 #@! TO.P,H1,1,1*
G04 #@! TO.N,GND*
X96520000Y15240000D03*
G04 #@! TD*
D19*
G04 #@! TO.N,/Y_LIMIT*
X74168000Y24892000D03*
X56896000Y24892000D03*
G04 #@! TO.N,/X_LIMIT*
X21844000Y25146000D03*
X36322000Y24892000D03*
G04 #@! TD*
D20*
G04 #@! TO.N,/X_A*
X20300000Y35147000D02*
X19558000Y34405000D01*
X19558000Y34405000D02*
X19558000Y33663000D01*
X15240000Y21590000D02*
X15240000Y15285000D01*
X20300000Y35860000D02*
X20300000Y35147000D01*
X19558000Y33663000D02*
X18915000Y33020000D01*
X18915000Y33020000D02*
X18915000Y25265000D01*
X18915000Y25265000D02*
X15240000Y21590000D01*
G04 #@! TO.N,/X_B*
X16145000Y26305000D02*
X11430000Y21590000D01*
X11430000Y21590000D02*
X11430000Y15285000D01*
X17018000Y33893000D02*
X16145000Y33020000D01*
X16145000Y33020000D02*
X16145000Y26305000D01*
X17018000Y34508331D02*
X17018000Y33893000D01*
X17530000Y35860000D02*
X17530000Y35020331D01*
X17530000Y35020331D02*
X17018000Y34508331D01*
G04 #@! TO.N,/X_C*
X14224000Y33869000D02*
X13375000Y33020000D01*
X14224000Y34405000D02*
X14224000Y33869000D01*
X13375000Y33020000D02*
X13375000Y27345000D01*
X7620000Y21590000D02*
X7620000Y15285000D01*
X14760000Y35860000D02*
X14760000Y34941000D01*
X14760000Y34941000D02*
X14224000Y34405000D01*
X13375000Y27345000D02*
X7620000Y21590000D01*
G04 #@! TO.N,/X_D*
X10605000Y33020000D02*
X10605000Y28639000D01*
X11176000Y33591000D02*
X10605000Y33020000D01*
X11990000Y35860000D02*
X11990000Y35322331D01*
X11176000Y34508331D02*
X11176000Y33591000D01*
X3810000Y21844000D02*
X3810000Y15285000D01*
X10605000Y28639000D02*
X3810000Y21844000D01*
X11990000Y35322331D02*
X11176000Y34508331D01*
G04 #@! TO.N,/Y_A*
X59135000Y33020000D02*
X59135000Y31195000D01*
X59135000Y31195000D02*
X55626000Y27686000D01*
X35814000Y27686000D02*
X33020000Y24892000D01*
X55626000Y27686000D02*
X35814000Y27686000D01*
X33020000Y24892000D02*
X33020000Y15240000D01*
X60520000Y35692331D02*
X59135000Y34307331D01*
X60520000Y35860000D02*
X60520000Y35692331D01*
X59135000Y34307331D02*
X59135000Y33020000D01*
G04 #@! TO.N,/Y_B*
X57639669Y35860000D02*
X57750000Y35860000D01*
X29210000Y23876000D02*
X35052000Y29718000D01*
X56365000Y32235000D02*
X56365000Y33020000D01*
X35052000Y29718000D02*
X53848000Y29718000D01*
X29210000Y15240000D02*
X29210000Y23876000D01*
X56365000Y34585331D02*
X57639669Y35860000D01*
X53848000Y29718000D02*
X56365000Y32235000D01*
X56365000Y33020000D02*
X56365000Y34585331D01*
G04 #@! TO.N,/Y_C*
X27225000Y21891000D02*
X25400000Y20066000D01*
X28610000Y35860000D02*
X28610000Y35432331D01*
X28610000Y35432331D02*
X27225000Y34047331D01*
X27225000Y34047331D02*
X27225000Y33020000D01*
X25400000Y20066000D02*
X25400000Y15240000D01*
X27225000Y33020000D02*
X27225000Y21891000D01*
G04 #@! TO.N,/Y_D*
X24455000Y22677000D02*
X21590000Y19812000D01*
X21590000Y19812000D02*
X21590000Y15240000D01*
X25840000Y35202331D02*
X25146000Y34508331D01*
X25146000Y34508331D02*
X25146000Y33711000D01*
X24455000Y33020000D02*
X24455000Y22677000D01*
X25146000Y33711000D02*
X24455000Y33020000D01*
X25840000Y35860000D02*
X25840000Y35202331D01*
G04 #@! TO.N,/Z_A*
X72985000Y33020000D02*
X72985000Y28281000D01*
X72985000Y28281000D02*
X66040000Y21336000D01*
X66040000Y21336000D02*
X66040000Y15240000D01*
X74370000Y34405000D02*
X72985000Y33020000D01*
X74370000Y35860000D02*
X74370000Y34405000D01*
G04 #@! TO.N,/Z_B*
X71600000Y35860000D02*
X71600000Y34405000D01*
X70215000Y33020000D02*
X70215000Y28845000D01*
X70215000Y28845000D02*
X62230000Y20860000D01*
X62230000Y20860000D02*
X62230000Y15240000D01*
X71600000Y34405000D02*
X70215000Y33020000D01*
G04 #@! TO.N,/Z_C*
X68830000Y35860000D02*
X68830000Y34405000D01*
X58420000Y20066000D02*
X58420000Y15240000D01*
X67445000Y29091000D02*
X58420000Y20066000D01*
X68830000Y34405000D02*
X67445000Y33020000D01*
X67445000Y33020000D02*
X67445000Y29091000D01*
G04 #@! TO.N,/Z_D*
X66060000Y35860000D02*
X66060000Y34405000D01*
X66060000Y34405000D02*
X64675000Y33020000D01*
X64675000Y29115000D02*
X54610000Y19050000D01*
X64675000Y33020000D02*
X64675000Y29115000D01*
X54610000Y19050000D02*
X54610000Y15240000D01*
D21*
G04 #@! TO.N,/Z_LIMIT*
X75755000Y29401000D02*
X75755000Y33020000D01*
X81280000Y15240000D02*
X81280000Y23876000D01*
X81280000Y23876000D02*
X75755000Y29401000D01*
G04 #@! TO.N,/Y_LIMIT*
X61905000Y29901000D02*
X61905000Y33020000D01*
X56896000Y24892000D02*
X61905000Y29901000D01*
X77470000Y15240000D02*
X77470000Y21590000D01*
X77470000Y21590000D02*
X74168000Y24892000D01*
G04 #@! TO.N,/X_LIMIT*
X73660000Y14986000D02*
X73660000Y15240000D01*
X21844000Y25146000D02*
X21590000Y25400000D01*
X70358000Y11684000D02*
X73660000Y14986000D01*
X52832000Y11684000D02*
X70358000Y11684000D01*
X21590000Y25400000D02*
X21590000Y32925000D01*
X51308000Y23368000D02*
X51308000Y13208000D01*
X21590000Y32925000D02*
X21685000Y33020000D01*
X51308000Y13208000D02*
X52832000Y11684000D01*
X49784000Y24892000D02*
X51308000Y23368000D01*
X36322000Y24892000D02*
X49784000Y24892000D01*
D22*
G04 #@! TO.N,/SPIN_W*
X119375000Y33020000D02*
X119375000Y35936000D01*
X119299000Y35860000D02*
X119375000Y35936000D01*
X120552000Y36068000D02*
X120760000Y35860000D01*
X119380000Y33015000D02*
X119375000Y33020000D01*
X116605000Y33020000D02*
X119375000Y33020000D01*
X117990000Y35860000D02*
X119299000Y35860000D01*
X119375000Y35936000D02*
X119507000Y36068000D01*
X119380000Y15540000D02*
X119380000Y33015000D01*
X119507000Y36068000D02*
X120552000Y36068000D01*
G04 #@! TO.N,/SPIN_V*
X113835000Y35771000D02*
X113746000Y35860000D01*
X111065000Y33020000D02*
X113835000Y33020000D01*
X115220000Y35860000D02*
X113746000Y35860000D01*
X114300000Y26543000D02*
X113792000Y27051000D01*
X113792000Y32977000D02*
X113835000Y33020000D01*
X114300000Y15540000D02*
X114300000Y26543000D01*
X113792000Y27051000D02*
X113792000Y32977000D01*
X113835000Y33020000D02*
X113835000Y35771000D01*
X113746000Y35860000D02*
X112450000Y35860000D01*
G04 #@! TO.N,/SPIN_U*
X109220000Y15540000D02*
X109220000Y25908000D01*
X108077000Y27051000D02*
X108077000Y32802000D01*
X106910000Y35860000D02*
X108213000Y35860000D01*
X108213000Y35860000D02*
X108295000Y35778000D01*
X108295000Y33020000D02*
X105525000Y33020000D01*
X108377000Y35860000D02*
X109680000Y35860000D01*
X108077000Y32802000D02*
X108295000Y33020000D01*
X109220000Y25908000D02*
X108077000Y27051000D01*
X108295000Y33020000D02*
X108295000Y35778000D01*
X108295000Y35778000D02*
X108377000Y35860000D01*
D21*
G04 #@! TO.N,/24V*
X133225000Y33020000D02*
X133225000Y25779000D01*
X133225000Y25779000D02*
X135890000Y23114000D01*
X135890000Y23114000D02*
X135890000Y15240000D01*
G04 #@! TO.N,/CHUCK*
X130455000Y24485000D02*
X132080000Y22860000D01*
X130455000Y33020000D02*
X130455000Y24485000D01*
X132080000Y22860000D02*
X132080000Y15240000D01*
G04 #@! TO.N,/PROBE*
X128270000Y22606000D02*
X128270000Y15240000D01*
X124915000Y33020000D02*
X124915000Y25961000D01*
X124915000Y25961000D02*
X128270000Y22606000D01*
G04 #@! TD*
G04 #@! TA.AperFunction,Conductor*
G04 #@! TO.N,GND*
G36*
X146453621Y42351498D02*
G01*
X146500114Y42297842D01*
X146511500Y42245500D01*
X146511500Y934500D01*
X146491498Y866379D01*
X146437842Y819886D01*
X146385500Y808500D01*
X934500Y808500D01*
X866379Y828502D01*
X819886Y882158D01*
X808500Y934500D01*
X808500Y10851799D01*
X39228050Y10851799D01*
X39228057Y10851693D01*
X39234129Y10842760D01*
X39401014Y10692232D01*
X39404989Y10688932D01*
X39786358Y10397881D01*
X39790586Y10394919D01*
X40194532Y10136088D01*
X40198984Y10133487D01*
X40622780Y9908625D01*
X40627415Y9906404D01*
X41068226Y9717016D01*
X41073030Y9715182D01*
X41527860Y9562556D01*
X41532820Y9561115D01*
X41998620Y9446273D01*
X42003678Y9445244D01*
X42477328Y9368954D01*
X42482444Y9368344D01*
X42960750Y9331120D01*
X42965901Y9330931D01*
X43445657Y9333025D01*
X43450805Y9333259D01*
X43928753Y9374654D01*
X43933901Y9375313D01*
X44406840Y9455729D01*
X44411894Y9456803D01*
X44876692Y9575711D01*
X44881602Y9577184D01*
X45335084Y9733773D01*
X45339914Y9735666D01*
X45779014Y9928875D01*
X45783661Y9931151D01*
X46205450Y10159687D01*
X46209912Y10162347D01*
X46611551Y10424672D01*
X46615776Y10427686D01*
X46994577Y10722044D01*
X46998532Y10725387D01*
X47123961Y10840521D01*
X47132163Y10854125D01*
X47132151Y10854523D01*
X47126761Y10863318D01*
X43192812Y14797267D01*
X43178868Y14804881D01*
X43177035Y14804750D01*
X43170420Y14800499D01*
X39235664Y10865743D01*
X39228050Y10851799D01*
X808500Y10851799D01*
X808500Y15021801D01*
X2201500Y15021801D01*
X2201693Y15019352D01*
X2201693Y15019345D01*
X2206898Y14953214D01*
X2216391Y14832597D01*
X2275495Y14586409D01*
X2277388Y14581838D01*
X2277389Y14581836D01*
X2344575Y14419636D01*
X2372384Y14352498D01*
X2504672Y14136624D01*
X2669102Y13944102D01*
X2861624Y13779672D01*
X3077498Y13647384D01*
X3082068Y13645491D01*
X3082072Y13645489D01*
X3207689Y13593457D01*
X3311409Y13550495D01*
X3396032Y13530179D01*
X3552784Y13492546D01*
X3552790Y13492545D01*
X3557597Y13491391D01*
X3810000Y13471526D01*
X4062403Y13491391D01*
X4067210Y13492545D01*
X4067216Y13492546D01*
X4223968Y13530179D01*
X4308591Y13550495D01*
X4412311Y13593457D01*
X4537928Y13645489D01*
X4537932Y13645491D01*
X4542502Y13647384D01*
X4758376Y13779672D01*
X4950898Y13944102D01*
X5115328Y14136624D01*
X5247616Y14352498D01*
X5275426Y14419636D01*
X5342611Y14581836D01*
X5342612Y14581838D01*
X5344505Y14586409D01*
X5403609Y14832597D01*
X5413102Y14953214D01*
X5418307Y15019345D01*
X5418307Y15019352D01*
X5418500Y15021801D01*
X5418500Y15548199D01*
X5417741Y15557851D01*
X5407539Y15687469D01*
X5403609Y15737403D01*
X5344505Y15983591D01*
X5291159Y16112380D01*
X5249511Y16212928D01*
X5249509Y16212932D01*
X5247616Y16217502D01*
X5137067Y16397902D01*
X5118500Y16463736D01*
X5118500Y21249812D01*
X5138502Y21317933D01*
X5155405Y21338907D01*
X11611198Y27794700D01*
X11640938Y27837173D01*
X11647630Y27845893D01*
X11677414Y27881388D01*
X11677418Y27881394D01*
X11680955Y27885609D01*
X11683705Y27890373D01*
X11683709Y27890378D01*
X11706876Y27930506D01*
X11712784Y27939780D01*
X11739365Y27977741D01*
X11742523Y27982251D01*
X11744848Y27987236D01*
X11744851Y27987242D01*
X11764439Y28029250D01*
X11769515Y28039001D01*
X11774482Y28047603D01*
X11795433Y28083892D01*
X11813166Y28132612D01*
X11817372Y28142767D01*
X11825458Y28160106D01*
X11826306Y28161925D01*
X11873222Y28215209D01*
X11941499Y28234670D01*
X12009459Y28214128D01*
X12055525Y28160106D01*
X12066500Y28108674D01*
X12066500Y27939188D01*
X12046498Y27871067D01*
X12029595Y27850093D01*
X6613802Y22434300D01*
X6610645Y22429792D01*
X6610643Y22429789D01*
X6584062Y22391827D01*
X6577370Y22383107D01*
X6547586Y22347612D01*
X6547582Y22347606D01*
X6544045Y22343391D01*
X6541295Y22338627D01*
X6541291Y22338622D01*
X6518124Y22298494D01*
X6512219Y22289224D01*
X6482477Y22246749D01*
X6480152Y22241764D01*
X6480149Y22241758D01*
X6460561Y22199750D01*
X6455488Y22190005D01*
X6429567Y22145108D01*
X6427686Y22139940D01*
X6411834Y22096388D01*
X6407628Y22086234D01*
X6385716Y22039243D01*
X6372290Y21989139D01*
X6368998Y21978699D01*
X6351258Y21929959D01*
X6350303Y21924541D01*
X6342253Y21878888D01*
X6339875Y21868163D01*
X6326457Y21818087D01*
X6324031Y21790356D01*
X6321938Y21766435D01*
X6320503Y21755539D01*
X6311500Y21704479D01*
X6311500Y16463736D01*
X6292933Y16397902D01*
X6182384Y16217502D01*
X6180491Y16212932D01*
X6180489Y16212928D01*
X6138841Y16112380D01*
X6085495Y15983591D01*
X6026391Y15737403D01*
X6022461Y15687469D01*
X6012260Y15557851D01*
X6011500Y15548199D01*
X6011500Y15021801D01*
X6011693Y15019352D01*
X6011693Y15019345D01*
X6016898Y14953214D01*
X6026391Y14832597D01*
X6085495Y14586409D01*
X6087388Y14581838D01*
X6087389Y14581836D01*
X6154575Y14419636D01*
X6182384Y14352498D01*
X6314672Y14136624D01*
X6479102Y13944102D01*
X6671624Y13779672D01*
X6887498Y13647384D01*
X6892068Y13645491D01*
X6892072Y13645489D01*
X7017689Y13593457D01*
X7121409Y13550495D01*
X7206032Y13530179D01*
X7362784Y13492546D01*
X7362790Y13492545D01*
X7367597Y13491391D01*
X7620000Y13471526D01*
X7872403Y13491391D01*
X7877210Y13492545D01*
X7877216Y13492546D01*
X8033968Y13530179D01*
X8118591Y13550495D01*
X8222311Y13593457D01*
X8347928Y13645489D01*
X8347932Y13645491D01*
X8352502Y13647384D01*
X8568376Y13779672D01*
X8760898Y13944102D01*
X8925328Y14136624D01*
X9057616Y14352498D01*
X9085426Y14419636D01*
X9152611Y14581836D01*
X9152612Y14581838D01*
X9154505Y14586409D01*
X9213609Y14832597D01*
X9223102Y14953214D01*
X9228307Y15019345D01*
X9228307Y15019352D01*
X9228500Y15021801D01*
X9228500Y15548199D01*
X9227741Y15557851D01*
X9217539Y15687469D01*
X9213609Y15737403D01*
X9154505Y15983591D01*
X9101159Y16112380D01*
X9059511Y16212928D01*
X9059509Y16212932D01*
X9057616Y16217502D01*
X8947067Y16397902D01*
X8928500Y16463736D01*
X8928500Y20995812D01*
X8948502Y21063933D01*
X8965405Y21084907D01*
X9960123Y22079625D01*
X10022435Y22113651D01*
X10093250Y22108586D01*
X10150086Y22066039D01*
X10174897Y21999519D01*
X10167621Y21947440D01*
X10161258Y21929959D01*
X10160303Y21924541D01*
X10152253Y21878888D01*
X10149875Y21868163D01*
X10136457Y21818087D01*
X10134031Y21790356D01*
X10131938Y21766435D01*
X10130503Y21755539D01*
X10121500Y21704479D01*
X10121500Y16463736D01*
X10102933Y16397902D01*
X9992384Y16217502D01*
X9990491Y16212932D01*
X9990489Y16212928D01*
X9948841Y16112380D01*
X9895495Y15983591D01*
X9836391Y15737403D01*
X9832461Y15687469D01*
X9822260Y15557851D01*
X9821500Y15548199D01*
X9821500Y15021801D01*
X9821693Y15019352D01*
X9821693Y15019345D01*
X9826898Y14953214D01*
X9836391Y14832597D01*
X9895495Y14586409D01*
X9897388Y14581838D01*
X9897389Y14581836D01*
X9964575Y14419636D01*
X9992384Y14352498D01*
X10124672Y14136624D01*
X10289102Y13944102D01*
X10481624Y13779672D01*
X10697498Y13647384D01*
X10702068Y13645491D01*
X10702072Y13645489D01*
X10827689Y13593457D01*
X10931409Y13550495D01*
X11016032Y13530179D01*
X11172784Y13492546D01*
X11172790Y13492545D01*
X11177597Y13491391D01*
X11430000Y13471526D01*
X11682403Y13491391D01*
X11687210Y13492545D01*
X11687216Y13492546D01*
X11843968Y13530179D01*
X11928591Y13550495D01*
X12032311Y13593457D01*
X12157928Y13645489D01*
X12157932Y13645491D01*
X12162502Y13647384D01*
X12378376Y13779672D01*
X12570898Y13944102D01*
X12735328Y14136624D01*
X12867616Y14352498D01*
X12895426Y14419636D01*
X12962611Y14581836D01*
X12962612Y14581838D01*
X12964505Y14586409D01*
X13023609Y14832597D01*
X13033102Y14953214D01*
X13038307Y15019345D01*
X13038307Y15019352D01*
X13038500Y15021801D01*
X13038500Y15548199D01*
X13037741Y15557851D01*
X13027539Y15687469D01*
X13023609Y15737403D01*
X12964505Y15983591D01*
X12911159Y16112380D01*
X12869511Y16212928D01*
X12869509Y16212932D01*
X12867616Y16217502D01*
X12757067Y16397902D01*
X12738500Y16463736D01*
X12738500Y20995812D01*
X12758502Y21063933D01*
X12775405Y21084907D01*
X13770123Y22079625D01*
X13832435Y22113651D01*
X13903250Y22108586D01*
X13960086Y22066039D01*
X13984897Y21999519D01*
X13977621Y21947440D01*
X13971258Y21929959D01*
X13970303Y21924541D01*
X13962253Y21878888D01*
X13959875Y21868163D01*
X13946457Y21818087D01*
X13944031Y21790356D01*
X13941938Y21766435D01*
X13940503Y21755539D01*
X13931500Y21704479D01*
X13931500Y16974289D01*
X13911498Y16906168D01*
X13884110Y16875818D01*
X13864687Y16860313D01*
X13751524Y16718557D01*
X13672579Y16555252D01*
X13670995Y16548391D01*
X13633080Y16384162D01*
X13631776Y16378515D01*
X13631500Y16373728D01*
X13631500Y14196272D01*
X13631776Y14191485D01*
X13632976Y14186289D01*
X13632976Y14186286D01*
X13658980Y14073652D01*
X13672579Y14014748D01*
X13751524Y13851443D01*
X13864687Y13709687D01*
X14006443Y13596524D01*
X14169748Y13517579D01*
X14176609Y13515995D01*
X14341286Y13477976D01*
X14341289Y13477976D01*
X14346485Y13476776D01*
X14351272Y13476500D01*
X16128728Y13476500D01*
X16133515Y13476776D01*
X16138711Y13477976D01*
X16138714Y13477976D01*
X16303391Y13515995D01*
X16310252Y13517579D01*
X16473557Y13596524D01*
X16615313Y13709687D01*
X16728476Y13851443D01*
X16807421Y14014748D01*
X16821020Y14073652D01*
X16847024Y14186286D01*
X16847024Y14186289D01*
X16848224Y14191485D01*
X16848500Y14196272D01*
X16848500Y16373728D01*
X16848224Y16378515D01*
X16846921Y16384162D01*
X16809005Y16548391D01*
X16807421Y16555252D01*
X16728476Y16718557D01*
X16615313Y16860313D01*
X16595891Y16875817D01*
X16555133Y16933947D01*
X16548500Y16974289D01*
X16548500Y20995812D01*
X16568502Y21063933D01*
X16585405Y21084907D01*
X19921198Y24420700D01*
X19927499Y24429698D01*
X19950938Y24463173D01*
X19957630Y24471893D01*
X19987414Y24507388D01*
X19987418Y24507394D01*
X19990955Y24511609D01*
X19993705Y24516373D01*
X19993709Y24516378D01*
X20016876Y24556506D01*
X20022784Y24565780D01*
X20049365Y24603741D01*
X20052523Y24608251D01*
X20054848Y24613236D01*
X20054851Y24613242D01*
X20074439Y24655250D01*
X20079515Y24665001D01*
X20102684Y24705131D01*
X20105433Y24709892D01*
X20107312Y24715055D01*
X20107316Y24715063D01*
X20123169Y24758616D01*
X20127373Y24768766D01*
X20146958Y24810768D01*
X20146959Y24810771D01*
X20149284Y24815757D01*
X20162702Y24865834D01*
X20166008Y24876320D01*
X20181863Y24919880D01*
X20183742Y24925042D01*
X20184808Y24931084D01*
X20192746Y24976105D01*
X20195123Y24986826D01*
X20196030Y24990212D01*
X20232977Y25050837D01*
X20296835Y25081864D01*
X20367330Y25073441D01*
X20422080Y25028242D01*
X20443530Y24964862D01*
X20444427Y24949303D01*
X20445564Y24944257D01*
X20445565Y24944251D01*
X20473325Y24821074D01*
X20495346Y24723358D01*
X20497288Y24718576D01*
X20497289Y24718572D01*
X20569700Y24540246D01*
X20582484Y24508763D01*
X20703501Y24311281D01*
X20855147Y24136216D01*
X21033349Y23988270D01*
X21233322Y23871416D01*
X21238147Y23869574D01*
X21238148Y23869573D01*
X21263047Y23860065D01*
X21449694Y23788791D01*
X21454760Y23787760D01*
X21454761Y23787760D01*
X21501524Y23778246D01*
X21676656Y23742615D01*
X21807324Y23737824D01*
X21902949Y23734317D01*
X21902953Y23734317D01*
X21908113Y23734128D01*
X21913233Y23734784D01*
X21913235Y23734784D01*
X21986270Y23744140D01*
X22137847Y23763558D01*
X22142795Y23765043D01*
X22142802Y23765044D01*
X22354747Y23828631D01*
X22359690Y23830114D01*
X22366602Y23833500D01*
X22563049Y23929738D01*
X22563052Y23929740D01*
X22567684Y23932009D01*
X22756243Y24066506D01*
X22920303Y24229995D01*
X22923319Y24234193D01*
X22924546Y24235634D01*
X22983929Y24274547D01*
X23054922Y24275178D01*
X23114987Y24237327D01*
X23145053Y24173010D01*
X23146500Y24153971D01*
X23146500Y23271188D01*
X23126498Y23203067D01*
X23109595Y23182093D01*
X20583802Y20656300D01*
X20580645Y20651792D01*
X20580643Y20651789D01*
X20554062Y20613827D01*
X20547370Y20605107D01*
X20517586Y20569612D01*
X20517582Y20569606D01*
X20514045Y20565391D01*
X20511295Y20560627D01*
X20511291Y20560622D01*
X20488124Y20520494D01*
X20482219Y20511224D01*
X20452477Y20468749D01*
X20450152Y20463764D01*
X20450149Y20463758D01*
X20430561Y20421750D01*
X20425488Y20412005D01*
X20399567Y20367108D01*
X20397686Y20361940D01*
X20381834Y20318388D01*
X20377628Y20308234D01*
X20355716Y20261243D01*
X20342290Y20211139D01*
X20338998Y20200699D01*
X20321258Y20151959D01*
X20320303Y20146541D01*
X20312253Y20100888D01*
X20309875Y20090163D01*
X20296457Y20040087D01*
X20295978Y20034608D01*
X20291938Y19988435D01*
X20290503Y19977539D01*
X20281500Y19926479D01*
X20281500Y16418736D01*
X20262933Y16352902D01*
X20152384Y16172502D01*
X20150491Y16167932D01*
X20150489Y16167928D01*
X20072141Y15978779D01*
X20055495Y15938591D01*
X19996391Y15692403D01*
X19996003Y15687469D01*
X19984592Y15542480D01*
X19981500Y15503199D01*
X19981500Y14976801D01*
X19981693Y14974352D01*
X19981693Y14974345D01*
X19988535Y14887416D01*
X19996391Y14787597D01*
X19997545Y14782790D01*
X19997546Y14782784D01*
X20035179Y14626032D01*
X20055495Y14541409D01*
X20057388Y14536838D01*
X20057389Y14536836D01*
X20131850Y14357072D01*
X20152384Y14307498D01*
X20284672Y14091624D01*
X20449102Y13899102D01*
X20641624Y13734672D01*
X20857498Y13602384D01*
X20862068Y13600491D01*
X20862072Y13600489D01*
X21086836Y13507389D01*
X21091409Y13505495D01*
X21145346Y13492546D01*
X21332784Y13447546D01*
X21332790Y13447545D01*
X21337597Y13446391D01*
X21590000Y13426526D01*
X21842403Y13446391D01*
X21847210Y13447545D01*
X21847216Y13447546D01*
X22034654Y13492546D01*
X22088591Y13505495D01*
X22093164Y13507389D01*
X22317928Y13600489D01*
X22317932Y13600491D01*
X22322502Y13602384D01*
X22538376Y13734672D01*
X22730898Y13899102D01*
X22895328Y14091624D01*
X23027616Y14307498D01*
X23048151Y14357072D01*
X23122611Y14536836D01*
X23122612Y14536838D01*
X23124505Y14541409D01*
X23144821Y14626032D01*
X23182454Y14782784D01*
X23182455Y14782790D01*
X23183609Y14787597D01*
X23191465Y14887416D01*
X23198307Y14974345D01*
X23198307Y14974352D01*
X23198500Y14976801D01*
X23198500Y15503199D01*
X23195409Y15542480D01*
X23183997Y15687469D01*
X23183609Y15692403D01*
X23124505Y15938591D01*
X23107859Y15978779D01*
X23029511Y16167928D01*
X23029509Y16167932D01*
X23027616Y16172502D01*
X22917067Y16352902D01*
X22898500Y16418736D01*
X22898500Y19217812D01*
X22918502Y19285933D01*
X22935405Y19306907D01*
X23876405Y20247907D01*
X23938717Y20281933D01*
X24009532Y20276868D01*
X24066368Y20234321D01*
X24091179Y20167801D01*
X24091500Y20158812D01*
X24091500Y16418736D01*
X24072933Y16352902D01*
X23962384Y16172502D01*
X23960491Y16167932D01*
X23960489Y16167928D01*
X23882141Y15978779D01*
X23865495Y15938591D01*
X23806391Y15692403D01*
X23806003Y15687469D01*
X23794592Y15542480D01*
X23791500Y15503199D01*
X23791500Y14976801D01*
X23791693Y14974352D01*
X23791693Y14974345D01*
X23798535Y14887416D01*
X23806391Y14787597D01*
X23807545Y14782790D01*
X23807546Y14782784D01*
X23845179Y14626032D01*
X23865495Y14541409D01*
X23867388Y14536838D01*
X23867389Y14536836D01*
X23941850Y14357072D01*
X23962384Y14307498D01*
X24094672Y14091624D01*
X24259102Y13899102D01*
X24451624Y13734672D01*
X24667498Y13602384D01*
X24672068Y13600491D01*
X24672072Y13600489D01*
X24896836Y13507389D01*
X24901409Y13505495D01*
X24955346Y13492546D01*
X25142784Y13447546D01*
X25142790Y13447545D01*
X25147597Y13446391D01*
X25400000Y13426526D01*
X25652403Y13446391D01*
X25657210Y13447545D01*
X25657216Y13447546D01*
X25844654Y13492546D01*
X25898591Y13505495D01*
X25903164Y13507389D01*
X26127928Y13600489D01*
X26127932Y13600491D01*
X26132502Y13602384D01*
X26348376Y13734672D01*
X26540898Y13899102D01*
X26705328Y14091624D01*
X26837616Y14307498D01*
X26858151Y14357072D01*
X26932611Y14536836D01*
X26932612Y14536838D01*
X26934505Y14541409D01*
X26954821Y14626032D01*
X26992454Y14782784D01*
X26992455Y14782790D01*
X26993609Y14787597D01*
X27001465Y14887416D01*
X27008307Y14974345D01*
X27008307Y14974352D01*
X27008500Y14976801D01*
X27008500Y15503199D01*
X27005409Y15542480D01*
X26993997Y15687469D01*
X26993609Y15692403D01*
X26934505Y15938591D01*
X26917859Y15978779D01*
X26839511Y16167928D01*
X26839509Y16167932D01*
X26837616Y16172502D01*
X26727067Y16352902D01*
X26708500Y16418736D01*
X26708500Y19471812D01*
X26728502Y19539933D01*
X26745405Y19560907D01*
X27686405Y20501907D01*
X27748717Y20535933D01*
X27819532Y20530868D01*
X27876368Y20488321D01*
X27901179Y20421801D01*
X27901500Y20412812D01*
X27901500Y16418736D01*
X27882933Y16352902D01*
X27772384Y16172502D01*
X27770491Y16167932D01*
X27770489Y16167928D01*
X27692141Y15978779D01*
X27675495Y15938591D01*
X27616391Y15692403D01*
X27616003Y15687469D01*
X27604592Y15542480D01*
X27601500Y15503199D01*
X27601500Y14976801D01*
X27601693Y14974352D01*
X27601693Y14974345D01*
X27608535Y14887416D01*
X27616391Y14787597D01*
X27617545Y14782790D01*
X27617546Y14782784D01*
X27655179Y14626032D01*
X27675495Y14541409D01*
X27677388Y14536838D01*
X27677389Y14536836D01*
X27751850Y14357072D01*
X27772384Y14307498D01*
X27904672Y14091624D01*
X28069102Y13899102D01*
X28261624Y13734672D01*
X28477498Y13602384D01*
X28482068Y13600491D01*
X28482072Y13600489D01*
X28706836Y13507389D01*
X28711409Y13505495D01*
X28765346Y13492546D01*
X28952784Y13447546D01*
X28952790Y13447545D01*
X28957597Y13446391D01*
X29210000Y13426526D01*
X29462403Y13446391D01*
X29467210Y13447545D01*
X29467216Y13447546D01*
X29654654Y13492546D01*
X29708591Y13505495D01*
X29713164Y13507389D01*
X29937928Y13600489D01*
X29937932Y13600491D01*
X29942502Y13602384D01*
X30158376Y13734672D01*
X30350898Y13899102D01*
X30515328Y14091624D01*
X30647616Y14307498D01*
X30668151Y14357072D01*
X30742611Y14536836D01*
X30742612Y14536838D01*
X30744505Y14541409D01*
X30764821Y14626032D01*
X30802454Y14782784D01*
X30802455Y14782790D01*
X30803609Y14787597D01*
X30811465Y14887416D01*
X30818307Y14974345D01*
X30818307Y14974352D01*
X30818500Y14976801D01*
X30818500Y15503199D01*
X30815409Y15542480D01*
X30803997Y15687469D01*
X30803609Y15692403D01*
X30744505Y15938591D01*
X30727859Y15978779D01*
X30649511Y16167928D01*
X30649509Y16167932D01*
X30647616Y16172502D01*
X30537067Y16352902D01*
X30518500Y16418736D01*
X30518500Y23281812D01*
X30538502Y23349933D01*
X30555405Y23370907D01*
X31496405Y24311907D01*
X31558717Y24345933D01*
X31629532Y24340868D01*
X31686368Y24298321D01*
X31711179Y24231801D01*
X31711500Y24222812D01*
X31711500Y16929289D01*
X31691498Y16861168D01*
X31664110Y16830818D01*
X31644687Y16815313D01*
X31531524Y16673557D01*
X31452579Y16510252D01*
X31450995Y16503391D01*
X31415703Y16350523D01*
X31411776Y16333515D01*
X31411500Y16328728D01*
X31411500Y14151272D01*
X31411776Y14146485D01*
X31412976Y14141289D01*
X31412976Y14141286D01*
X31428591Y14073652D01*
X31452579Y13969748D01*
X31531524Y13806443D01*
X31644687Y13664687D01*
X31786443Y13551524D01*
X31949748Y13472579D01*
X31956609Y13470995D01*
X32121286Y13432976D01*
X32121289Y13432976D01*
X32126485Y13431776D01*
X32131272Y13431500D01*
X33908728Y13431500D01*
X33913515Y13431776D01*
X33918711Y13432976D01*
X33918714Y13432976D01*
X34083391Y13470995D01*
X34090252Y13472579D01*
X34253557Y13551524D01*
X34395313Y13664687D01*
X34508476Y13806443D01*
X34587421Y13969748D01*
X34611409Y14073652D01*
X34627024Y14141286D01*
X34627024Y14141289D01*
X34628224Y14146485D01*
X34628500Y14151272D01*
X34628500Y15381895D01*
X37268757Y15381895D01*
X37276711Y14902199D01*
X37277008Y14897052D01*
X37324239Y14419636D01*
X37324959Y14414517D01*
X37411151Y13942571D01*
X37412284Y13937547D01*
X37536857Y13474252D01*
X37538400Y13469329D01*
X37700520Y13017787D01*
X37702452Y13013029D01*
X37901028Y12576286D01*
X37903352Y12571684D01*
X38137037Y12152694D01*
X38139731Y12148298D01*
X38406970Y11749855D01*
X38410009Y11745704D01*
X38708983Y11370513D01*
X38712383Y11366589D01*
X38779602Y11295133D01*
X38793305Y11287098D01*
X38794118Y11287131D01*
X38802284Y11292205D01*
X42737267Y15227188D01*
X42743645Y15238868D01*
X43615119Y15238868D01*
X43615250Y15237035D01*
X43619501Y15230420D01*
X47554568Y11295353D01*
X47568512Y11287739D01*
X47569029Y11287776D01*
X47577424Y11293406D01*
X47681265Y11405741D01*
X47684604Y11409664D01*
X47980296Y11787453D01*
X47983317Y11791657D01*
X48247056Y12192399D01*
X48249710Y12196816D01*
X48479727Y12617821D01*
X48482025Y12622473D01*
X48676758Y13060880D01*
X48678674Y13065717D01*
X48836835Y13518620D01*
X48838338Y13523567D01*
X48958861Y13987927D01*
X48959951Y13992963D01*
X49042024Y14465657D01*
X49042696Y14470764D01*
X49085807Y14949093D01*
X49086042Y14953214D01*
X49093000Y15237921D01*
X49092966Y15242073D01*
X49073274Y15721924D01*
X49072850Y15727076D01*
X49013969Y16203193D01*
X49013128Y16208276D01*
X48915429Y16677981D01*
X48914170Y16682991D01*
X48778322Y17143077D01*
X48776649Y17147992D01*
X48603551Y17595424D01*
X48601497Y17600147D01*
X48392322Y18031885D01*
X48389876Y18036447D01*
X48146032Y18449586D01*
X48143220Y18453934D01*
X47866351Y18845694D01*
X47863177Y18849815D01*
X47581520Y19186076D01*
X47568846Y19194524D01*
X47558314Y19188393D01*
X43622733Y15252812D01*
X43615119Y15238868D01*
X42743645Y15238868D01*
X42744881Y15241132D01*
X42744750Y15242965D01*
X42740499Y15249580D01*
X38805430Y19184649D01*
X38791639Y19192180D01*
X38782327Y19185767D01*
X38586407Y18963148D01*
X38583148Y18959124D01*
X38296777Y18574225D01*
X38293875Y18569971D01*
X38039997Y18162892D01*
X38037450Y18158408D01*
X37817780Y17731894D01*
X37815618Y17727236D01*
X37631633Y17284151D01*
X37629851Y17279306D01*
X37482791Y16822637D01*
X37481419Y16817691D01*
X37372276Y16350523D01*
X37371303Y16345424D01*
X37300811Y15870919D01*
X37300259Y15865749D01*
X37268883Y15387044D01*
X37268757Y15381895D01*
X34628500Y15381895D01*
X34628500Y16328728D01*
X34628224Y16333515D01*
X34624298Y16350523D01*
X34589005Y16503391D01*
X34587421Y16510252D01*
X34508476Y16673557D01*
X34395313Y16815313D01*
X34375891Y16830817D01*
X34335133Y16888947D01*
X34328500Y16929289D01*
X34328500Y19628138D01*
X39225734Y19628138D01*
X39225799Y19626915D01*
X39230551Y19619370D01*
X43167188Y15682733D01*
X43181132Y15675119D01*
X43182965Y15675250D01*
X43189580Y15679501D01*
X47125587Y19615508D01*
X47133003Y19629089D01*
X47126281Y19638725D01*
X46846745Y19878740D01*
X46842701Y19881935D01*
X46454322Y20163590D01*
X46450021Y20166448D01*
X46039890Y20415321D01*
X46035357Y20417823D01*
X45606218Y20632253D01*
X45601478Y20634382D01*
X45156210Y20812927D01*
X45151363Y20814644D01*
X44692924Y20956117D01*
X44687944Y20957432D01*
X44219486Y21060858D01*
X44214379Y21061768D01*
X43739024Y21126461D01*
X43733897Y21126946D01*
X43254819Y21152473D01*
X43249655Y21152536D01*
X42770107Y21138721D01*
X42764957Y21138361D01*
X42288149Y21085300D01*
X42283056Y21084521D01*
X41812193Y20992567D01*
X41807176Y20991372D01*
X41345450Y20861152D01*
X41340527Y20859543D01*
X40891016Y20691925D01*
X40886272Y20689930D01*
X40451982Y20486032D01*
X40447429Y20483661D01*
X40031303Y20244862D01*
X40026963Y20242128D01*
X39631800Y19970033D01*
X39627696Y19966951D01*
X39256167Y19663400D01*
X39252309Y19659974D01*
X39233601Y19641939D01*
X39225734Y19628138D01*
X34328500Y19628138D01*
X34328500Y24297812D01*
X34348502Y24365933D01*
X34365405Y24386907D01*
X34714972Y24736474D01*
X34777284Y24770500D01*
X34848099Y24765435D01*
X34904935Y24722888D01*
X34926984Y24675080D01*
X34945408Y24593329D01*
X34973346Y24469358D01*
X34975288Y24464576D01*
X34975289Y24464572D01*
X35056298Y24265072D01*
X35060484Y24254763D01*
X35108365Y24176629D01*
X35165709Y24083052D01*
X35181501Y24057281D01*
X35333147Y23882216D01*
X35511349Y23734270D01*
X35711322Y23617416D01*
X35716147Y23615574D01*
X35716148Y23615573D01*
X35741047Y23606065D01*
X35927694Y23534791D01*
X35932760Y23533760D01*
X35932761Y23533760D01*
X35977145Y23524730D01*
X36154656Y23488615D01*
X36285324Y23483824D01*
X36380949Y23480317D01*
X36380953Y23480317D01*
X36386113Y23480128D01*
X36391233Y23480784D01*
X36391235Y23480784D01*
X36464270Y23490140D01*
X36615847Y23509558D01*
X36620795Y23511043D01*
X36620802Y23511044D01*
X36832747Y23574631D01*
X36837690Y23576114D01*
X36842324Y23578384D01*
X37041049Y23675738D01*
X37041052Y23675740D01*
X37045684Y23678009D01*
X37230841Y23810079D01*
X37304008Y23833500D01*
X49293365Y23833500D01*
X49361486Y23813498D01*
X49382460Y23796595D01*
X50212595Y22966460D01*
X50246621Y22904148D01*
X50249500Y22877365D01*
X50249500Y13272577D01*
X50248763Y13258969D01*
X50244436Y13219138D01*
X50244973Y13212999D01*
X50244973Y13212994D01*
X50249022Y13166714D01*
X50249352Y13161878D01*
X50249500Y13158845D01*
X50249500Y13155763D01*
X50249799Y13152708D01*
X50249800Y13152698D01*
X50253903Y13110853D01*
X50254024Y13109541D01*
X50258282Y13060880D01*
X50262528Y13012345D01*
X50264090Y13006970D01*
X50264635Y13001408D01*
X50266418Y12995504D01*
X50292824Y12908042D01*
X50293199Y12906776D01*
X50318722Y12818922D01*
X50318724Y12818916D01*
X50320442Y12813004D01*
X50323015Y12808039D01*
X50324632Y12802685D01*
X50327525Y12797245D01*
X50327525Y12797244D01*
X50370460Y12716498D01*
X50371074Y12715328D01*
X50413133Y12634186D01*
X50413136Y12634182D01*
X50415972Y12628710D01*
X50419462Y12624339D01*
X50422087Y12619401D01*
X50425983Y12614624D01*
X50425987Y12614618D01*
X50483783Y12543754D01*
X50484533Y12542826D01*
X50517393Y12501662D01*
X50519895Y12499160D01*
X50520935Y12497997D01*
X50524622Y12493681D01*
X50553285Y12458536D01*
X50558027Y12454613D01*
X50558030Y12454610D01*
X50590593Y12427672D01*
X50599372Y12419683D01*
X52037866Y10981189D01*
X52046967Y10971046D01*
X52072071Y10939823D01*
X52110176Y10907849D01*
X52112382Y10905998D01*
X52116036Y10902810D01*
X52118280Y10900775D01*
X52120464Y10898591D01*
X52122843Y10896637D01*
X52155342Y10869942D01*
X52156357Y10869098D01*
X52226359Y10810359D01*
X52226365Y10810355D01*
X52231089Y10806391D01*
X52235992Y10803696D01*
X52240312Y10800147D01*
X52326298Y10754041D01*
X52327456Y10753412D01*
X52338985Y10747074D01*
X52412995Y10706387D01*
X52418324Y10704697D01*
X52423254Y10702053D01*
X52429150Y10700251D01*
X52429151Y10700250D01*
X52516627Y10673507D01*
X52517818Y10673136D01*
X52610861Y10643621D01*
X52616421Y10642997D01*
X52621767Y10641363D01*
X52627892Y10640741D01*
X52627896Y10640740D01*
X52686853Y10634752D01*
X52718844Y10631502D01*
X52720050Y10631374D01*
X52772413Y10625500D01*
X52775918Y10625500D01*
X52777527Y10625410D01*
X52783223Y10624962D01*
X52822158Y10621007D01*
X52822164Y10621007D01*
X52828287Y10620385D01*
X52876487Y10624941D01*
X52888342Y10625500D01*
X70293423Y10625500D01*
X70307031Y10624763D01*
X70340737Y10621101D01*
X70340741Y10621101D01*
X70346862Y10620436D01*
X70353001Y10620973D01*
X70353006Y10620973D01*
X70399286Y10625022D01*
X70404122Y10625352D01*
X70407155Y10625500D01*
X70410237Y10625500D01*
X70413292Y10625799D01*
X70413302Y10625800D01*
X70455147Y10629903D01*
X70456459Y10630024D01*
X70547509Y10637990D01*
X70547512Y10637991D01*
X70553655Y10638528D01*
X70559030Y10640090D01*
X70564592Y10640635D01*
X70658021Y10668843D01*
X70659224Y10669199D01*
X70747078Y10694722D01*
X70747084Y10694724D01*
X70752996Y10696442D01*
X70757961Y10699015D01*
X70763315Y10700632D01*
X70770545Y10704476D01*
X70809871Y10725387D01*
X70849554Y10746487D01*
X70850616Y10747044D01*
X70883968Y10764332D01*
X70931814Y10789133D01*
X70931818Y10789136D01*
X70937290Y10791972D01*
X70941661Y10795462D01*
X70946599Y10798087D01*
X70951376Y10801983D01*
X70951382Y10801987D01*
X71012457Y10851799D01*
X92568050Y10851799D01*
X92568057Y10851693D01*
X92574129Y10842760D01*
X92741014Y10692232D01*
X92744989Y10688932D01*
X93126358Y10397881D01*
X93130586Y10394919D01*
X93534532Y10136088D01*
X93538984Y10133487D01*
X93962780Y9908625D01*
X93967415Y9906404D01*
X94408226Y9717016D01*
X94413030Y9715182D01*
X94867860Y9562556D01*
X94872820Y9561115D01*
X95338620Y9446273D01*
X95343678Y9445244D01*
X95817328Y9368954D01*
X95822444Y9368344D01*
X96300750Y9331120D01*
X96305901Y9330931D01*
X96785657Y9333025D01*
X96790805Y9333259D01*
X97268753Y9374654D01*
X97273901Y9375313D01*
X97746840Y9455729D01*
X97751894Y9456803D01*
X98216692Y9575711D01*
X98221602Y9577184D01*
X98675084Y9733773D01*
X98679914Y9735666D01*
X99119014Y9928875D01*
X99123661Y9931151D01*
X99545450Y10159687D01*
X99549912Y10162347D01*
X99951551Y10424672D01*
X99955776Y10427686D01*
X100334577Y10722044D01*
X100338532Y10725387D01*
X100463961Y10840521D01*
X100472163Y10854125D01*
X100472151Y10854523D01*
X100466761Y10863318D01*
X96532812Y14797267D01*
X96518868Y14804881D01*
X96517035Y14804750D01*
X96510420Y14800499D01*
X92575664Y10865743D01*
X92568050Y10851799D01*
X71012457Y10851799D01*
X71022246Y10859783D01*
X71023174Y10860533D01*
X71064338Y10893393D01*
X71066840Y10895895D01*
X71068003Y10896935D01*
X71072319Y10900622D01*
X71107464Y10929285D01*
X71111387Y10934027D01*
X71111390Y10934030D01*
X71138328Y10966593D01*
X71146317Y10975372D01*
X73560960Y13390014D01*
X73623272Y13424040D01*
X73650114Y13425782D01*
X73650114Y13426914D01*
X73655070Y13426914D01*
X73660000Y13426526D01*
X73912403Y13446391D01*
X73917210Y13447545D01*
X73917216Y13447546D01*
X74104654Y13492546D01*
X74158591Y13505495D01*
X74163164Y13507389D01*
X74387928Y13600489D01*
X74387932Y13600491D01*
X74392502Y13602384D01*
X74608376Y13734672D01*
X74800898Y13899102D01*
X74965328Y14091624D01*
X75097616Y14307498D01*
X75118151Y14357072D01*
X75192611Y14536836D01*
X75192612Y14536838D01*
X75194505Y14541409D01*
X75214821Y14626032D01*
X75252454Y14782784D01*
X75252455Y14782790D01*
X75253609Y14787597D01*
X75261465Y14887416D01*
X75268307Y14974345D01*
X75268307Y14974352D01*
X75268500Y14976801D01*
X75268500Y15503199D01*
X75265409Y15542480D01*
X75253997Y15687469D01*
X75253609Y15692403D01*
X75194505Y15938591D01*
X75177859Y15978779D01*
X75099511Y16167928D01*
X75099509Y16167932D01*
X75097616Y16172502D01*
X74965328Y16388376D01*
X74800898Y16580898D01*
X74608376Y16745328D01*
X74392502Y16877616D01*
X74387932Y16879509D01*
X74387928Y16879511D01*
X74163164Y16972611D01*
X74163162Y16972612D01*
X74158591Y16974505D01*
X74073968Y16994821D01*
X73917216Y17032454D01*
X73917210Y17032455D01*
X73912403Y17033609D01*
X73660000Y17053474D01*
X73407597Y17033609D01*
X73402790Y17032455D01*
X73402784Y17032454D01*
X73246032Y16994821D01*
X73161409Y16974505D01*
X73156838Y16972612D01*
X73156836Y16972611D01*
X72932072Y16879511D01*
X72932068Y16879509D01*
X72927498Y16877616D01*
X72711624Y16745328D01*
X72519102Y16580898D01*
X72354672Y16388376D01*
X72222384Y16172502D01*
X72220491Y16167932D01*
X72220489Y16167928D01*
X72142141Y15978779D01*
X72125495Y15938591D01*
X72066391Y15692403D01*
X72066003Y15687469D01*
X72054592Y15542480D01*
X72051500Y15503199D01*
X72051500Y14976801D01*
X72051693Y14974348D01*
X72051694Y14974324D01*
X72054410Y14939822D01*
X72039816Y14870341D01*
X72017894Y14840839D01*
X69956460Y12779405D01*
X69894148Y12745379D01*
X69867365Y12742500D01*
X53322635Y12742500D01*
X53254514Y12762502D01*
X53233540Y12779405D01*
X52403405Y13609540D01*
X52369379Y13671852D01*
X52366500Y13698635D01*
X52366500Y23303433D01*
X52367237Y23317041D01*
X52370898Y23350737D01*
X52370898Y23350741D01*
X52371563Y23356862D01*
X52368286Y23394317D01*
X52366979Y23409261D01*
X52366650Y23414089D01*
X52366500Y23417160D01*
X52366500Y23420237D01*
X52366201Y23423291D01*
X52366200Y23423302D01*
X52362094Y23465172D01*
X52361972Y23466487D01*
X52354008Y23557522D01*
X52354007Y23557527D01*
X52353471Y23563655D01*
X52351911Y23569025D01*
X52351365Y23574592D01*
X52342277Y23604696D01*
X52323146Y23668062D01*
X52322772Y23669326D01*
X52297277Y23757080D01*
X52297276Y23757082D01*
X52295558Y23762996D01*
X52292985Y23767961D01*
X52291368Y23773315D01*
X52245513Y23859554D01*
X52244926Y23860672D01*
X52240313Y23869573D01*
X52221157Y23906528D01*
X52202867Y23941814D01*
X52202864Y23941818D01*
X52200028Y23947290D01*
X52196538Y23951661D01*
X52193913Y23956599D01*
X52190017Y23961376D01*
X52190013Y23961382D01*
X52132217Y24032246D01*
X52131467Y24033174D01*
X52098607Y24074338D01*
X52096105Y24076840D01*
X52095065Y24078003D01*
X52091378Y24082319D01*
X52062715Y24117464D01*
X52057973Y24121387D01*
X52057970Y24121390D01*
X52025407Y24148328D01*
X52016628Y24156317D01*
X50578134Y25594811D01*
X50569033Y25604954D01*
X50543929Y25636177D01*
X50539211Y25640135D01*
X50539209Y25640138D01*
X50503619Y25670001D01*
X50499970Y25673185D01*
X50497716Y25675229D01*
X50495535Y25677410D01*
X50460673Y25706045D01*
X50459692Y25706860D01*
X50389635Y25765645D01*
X50384911Y25769609D01*
X50380008Y25772304D01*
X50375688Y25775853D01*
X50370264Y25778762D01*
X50370260Y25778764D01*
X50289702Y25821959D01*
X50288543Y25822588D01*
X50250364Y25843577D01*
X50203005Y25869613D01*
X50197674Y25871304D01*
X50192745Y25873947D01*
X50186857Y25875747D01*
X50186855Y25875748D01*
X50099387Y25902489D01*
X50098127Y25902882D01*
X50089250Y25905698D01*
X50005139Y25932379D01*
X49999579Y25933003D01*
X49994233Y25934637D01*
X49988108Y25935259D01*
X49988104Y25935260D01*
X49929147Y25941248D01*
X49897156Y25944498D01*
X49895950Y25944626D01*
X49843587Y25950500D01*
X49840082Y25950500D01*
X49838473Y25950590D01*
X49832777Y25951038D01*
X49793842Y25954993D01*
X49793836Y25954993D01*
X49787713Y25955615D01*
X49739851Y25951091D01*
X49739512Y25951059D01*
X49727655Y25950500D01*
X37298166Y25950500D01*
X37230045Y25970502D01*
X37220074Y25977618D01*
X37108177Y26065989D01*
X37108172Y26065992D01*
X37104123Y26069190D01*
X37099604Y26071684D01*
X37099599Y26071688D01*
X36973694Y26141191D01*
X36923723Y26191624D01*
X36908951Y26261067D01*
X36934067Y26327472D01*
X36991098Y26369757D01*
X37034587Y26377500D01*
X55740479Y26377500D01*
X55791539Y26386503D01*
X55802435Y26387938D01*
X55802926Y26387981D01*
X55854087Y26392457D01*
X55904163Y26405875D01*
X55914888Y26408253D01*
X55935219Y26411838D01*
X55965959Y26417258D01*
X56014699Y26434998D01*
X56025139Y26438290D01*
X56075243Y26451716D01*
X56122234Y26473628D01*
X56132388Y26477834D01*
X56175940Y26493686D01*
X56181108Y26495567D01*
X56226005Y26521488D01*
X56235750Y26526561D01*
X56277758Y26546149D01*
X56277764Y26546152D01*
X56282749Y26548477D01*
X56325224Y26578219D01*
X56334494Y26584124D01*
X56374622Y26607291D01*
X56374627Y26607295D01*
X56379391Y26610045D01*
X56383606Y26613582D01*
X56383612Y26613586D01*
X56419107Y26643370D01*
X56427827Y26650062D01*
X56465789Y26676643D01*
X56465792Y26676645D01*
X56470300Y26679802D01*
X56632198Y26841700D01*
X60100644Y30310145D01*
X60100649Y30310151D01*
X60141198Y30350700D01*
X60144348Y30355198D01*
X60144355Y30355207D01*
X60170937Y30393172D01*
X60177631Y30401896D01*
X60207418Y30437393D01*
X60207422Y30437398D01*
X60210955Y30441609D01*
X60213705Y30446373D01*
X60213709Y30446378D01*
X60236876Y30486506D01*
X60242784Y30495780D01*
X60259510Y30519666D01*
X60272523Y30538251D01*
X60274848Y30543236D01*
X60274851Y30543242D01*
X60294439Y30585250D01*
X60299515Y30595001D01*
X60309330Y30612000D01*
X60325433Y30639892D01*
X60343166Y30688612D01*
X60347372Y30698766D01*
X60356168Y30717629D01*
X60369284Y30745757D01*
X60382710Y30795861D01*
X60386002Y30806301D01*
X60403742Y30855041D01*
X60407691Y30877436D01*
X60412746Y30906104D01*
X60415124Y30916831D01*
X60417240Y30924729D01*
X60454190Y30985353D01*
X60518050Y31016377D01*
X60588544Y31007950D01*
X60636660Y30971673D01*
X60662051Y30940485D01*
X60710055Y30897034D01*
X60805055Y30811044D01*
X60842137Y30750501D01*
X60846500Y30717629D01*
X60846500Y30391635D01*
X60826498Y30323514D01*
X60809595Y30302540D01*
X56840229Y26333174D01*
X56777917Y26299148D01*
X56770194Y26297719D01*
X56568464Y26266850D01*
X56348314Y26194894D01*
X56343726Y26192506D01*
X56343722Y26192504D01*
X56147461Y26090337D01*
X56142872Y26087948D01*
X56138739Y26084845D01*
X56138736Y26084843D01*
X55961790Y25951988D01*
X55957655Y25948883D01*
X55915979Y25905272D01*
X55822067Y25806998D01*
X55797639Y25781436D01*
X55794725Y25777164D01*
X55794724Y25777163D01*
X55758253Y25723698D01*
X55667119Y25590101D01*
X55569602Y25380019D01*
X55507707Y25156831D01*
X55483095Y24926531D01*
X55483392Y24921378D01*
X55483392Y24921375D01*
X55495085Y24718572D01*
X55496427Y24695303D01*
X55497564Y24690257D01*
X55497565Y24690251D01*
X55521006Y24586239D01*
X55547346Y24469358D01*
X55549288Y24464576D01*
X55549289Y24464572D01*
X55630298Y24265072D01*
X55634484Y24254763D01*
X55682365Y24176629D01*
X55739709Y24083052D01*
X55755501Y24057281D01*
X55907147Y23882216D01*
X56085349Y23734270D01*
X56285322Y23617416D01*
X56290147Y23615574D01*
X56290148Y23615573D01*
X56315047Y23606065D01*
X56501694Y23534791D01*
X56506760Y23533760D01*
X56506761Y23533760D01*
X56551145Y23524730D01*
X56728656Y23488615D01*
X56892617Y23482603D01*
X56959959Y23460119D01*
X57004455Y23404795D01*
X57011977Y23334198D01*
X56977095Y23267593D01*
X53603802Y19894300D01*
X53600645Y19889792D01*
X53600643Y19889789D01*
X53574062Y19851827D01*
X53567370Y19843107D01*
X53537586Y19807612D01*
X53537582Y19807606D01*
X53534045Y19803391D01*
X53531295Y19798627D01*
X53531291Y19798622D01*
X53508124Y19758494D01*
X53502219Y19749224D01*
X53472477Y19706749D01*
X53470152Y19701764D01*
X53470149Y19701758D01*
X53450561Y19659750D01*
X53445488Y19650005D01*
X53419567Y19605108D01*
X53417686Y19599940D01*
X53401834Y19556388D01*
X53397628Y19546234D01*
X53375716Y19499243D01*
X53362290Y19449139D01*
X53358998Y19438699D01*
X53341258Y19389959D01*
X53340303Y19384541D01*
X53332253Y19338888D01*
X53329875Y19328163D01*
X53316457Y19278087D01*
X53315978Y19272608D01*
X53311938Y19226435D01*
X53310503Y19215539D01*
X53301500Y19164479D01*
X53301500Y16418736D01*
X53282933Y16352902D01*
X53172384Y16172502D01*
X53170491Y16167932D01*
X53170489Y16167928D01*
X53092141Y15978779D01*
X53075495Y15938591D01*
X53016391Y15692403D01*
X53016003Y15687469D01*
X53004592Y15542480D01*
X53001500Y15503199D01*
X53001500Y14976801D01*
X53001693Y14974352D01*
X53001693Y14974345D01*
X53008535Y14887416D01*
X53016391Y14787597D01*
X53017545Y14782790D01*
X53017546Y14782784D01*
X53055179Y14626032D01*
X53075495Y14541409D01*
X53077388Y14536838D01*
X53077389Y14536836D01*
X53151850Y14357072D01*
X53172384Y14307498D01*
X53304672Y14091624D01*
X53469102Y13899102D01*
X53661624Y13734672D01*
X53877498Y13602384D01*
X53882068Y13600491D01*
X53882072Y13600489D01*
X54106836Y13507389D01*
X54111409Y13505495D01*
X54165346Y13492546D01*
X54352784Y13447546D01*
X54352790Y13447545D01*
X54357597Y13446391D01*
X54610000Y13426526D01*
X54862403Y13446391D01*
X54867210Y13447545D01*
X54867216Y13447546D01*
X55054654Y13492546D01*
X55108591Y13505495D01*
X55113164Y13507389D01*
X55337928Y13600489D01*
X55337932Y13600491D01*
X55342502Y13602384D01*
X55558376Y13734672D01*
X55750898Y13899102D01*
X55915328Y14091624D01*
X56047616Y14307498D01*
X56068151Y14357072D01*
X56142611Y14536836D01*
X56142612Y14536838D01*
X56144505Y14541409D01*
X56164821Y14626032D01*
X56202454Y14782784D01*
X56202455Y14782790D01*
X56203609Y14787597D01*
X56211465Y14887416D01*
X56218307Y14974345D01*
X56218307Y14974352D01*
X56218500Y14976801D01*
X56218500Y15503199D01*
X56215409Y15542480D01*
X56203997Y15687469D01*
X56203609Y15692403D01*
X56144505Y15938591D01*
X56127859Y15978779D01*
X56049511Y16167928D01*
X56049509Y16167932D01*
X56047616Y16172502D01*
X55937067Y16352902D01*
X55918500Y16418736D01*
X55918500Y18455812D01*
X55938502Y18523933D01*
X55955405Y18544907D01*
X56896405Y19485907D01*
X56958717Y19519933D01*
X57029532Y19514868D01*
X57086368Y19472321D01*
X57111179Y19405801D01*
X57111500Y19396812D01*
X57111500Y16418736D01*
X57092933Y16352902D01*
X56982384Y16172502D01*
X56980491Y16167932D01*
X56980489Y16167928D01*
X56902141Y15978779D01*
X56885495Y15938591D01*
X56826391Y15692403D01*
X56826003Y15687469D01*
X56814592Y15542480D01*
X56811500Y15503199D01*
X56811500Y14976801D01*
X56811693Y14974352D01*
X56811693Y14974345D01*
X56818535Y14887416D01*
X56826391Y14787597D01*
X56827545Y14782790D01*
X56827546Y14782784D01*
X56865179Y14626032D01*
X56885495Y14541409D01*
X56887388Y14536838D01*
X56887389Y14536836D01*
X56961850Y14357072D01*
X56982384Y14307498D01*
X57114672Y14091624D01*
X57279102Y13899102D01*
X57471624Y13734672D01*
X57687498Y13602384D01*
X57692068Y13600491D01*
X57692072Y13600489D01*
X57916836Y13507389D01*
X57921409Y13505495D01*
X57975346Y13492546D01*
X58162784Y13447546D01*
X58162790Y13447545D01*
X58167597Y13446391D01*
X58420000Y13426526D01*
X58672403Y13446391D01*
X58677210Y13447545D01*
X58677216Y13447546D01*
X58864654Y13492546D01*
X58918591Y13505495D01*
X58923164Y13507389D01*
X59147928Y13600489D01*
X59147932Y13600491D01*
X59152502Y13602384D01*
X59368376Y13734672D01*
X59560898Y13899102D01*
X59725328Y14091624D01*
X59857616Y14307498D01*
X59878151Y14357072D01*
X59952611Y14536836D01*
X59952612Y14536838D01*
X59954505Y14541409D01*
X59974821Y14626032D01*
X60012454Y14782784D01*
X60012455Y14782790D01*
X60013609Y14787597D01*
X60021465Y14887416D01*
X60028307Y14974345D01*
X60028307Y14974352D01*
X60028500Y14976801D01*
X60028500Y15503199D01*
X60025409Y15542480D01*
X60013997Y15687469D01*
X60013609Y15692403D01*
X59954505Y15938591D01*
X59937859Y15978779D01*
X59859511Y16167928D01*
X59859509Y16167932D01*
X59857616Y16172502D01*
X59747067Y16352902D01*
X59728500Y16418736D01*
X59728500Y19471812D01*
X59748502Y19539933D01*
X59765405Y19560907D01*
X60706405Y20501907D01*
X60768717Y20535933D01*
X60839532Y20530868D01*
X60896368Y20488321D01*
X60921179Y20421801D01*
X60921500Y20412812D01*
X60921500Y16418736D01*
X60902933Y16352902D01*
X60792384Y16172502D01*
X60790491Y16167932D01*
X60790489Y16167928D01*
X60712141Y15978779D01*
X60695495Y15938591D01*
X60636391Y15692403D01*
X60636003Y15687469D01*
X60624592Y15542480D01*
X60621500Y15503199D01*
X60621500Y14976801D01*
X60621693Y14974352D01*
X60621693Y14974345D01*
X60628535Y14887416D01*
X60636391Y14787597D01*
X60637545Y14782790D01*
X60637546Y14782784D01*
X60675179Y14626032D01*
X60695495Y14541409D01*
X60697388Y14536838D01*
X60697389Y14536836D01*
X60771850Y14357072D01*
X60792384Y14307498D01*
X60924672Y14091624D01*
X61089102Y13899102D01*
X61281624Y13734672D01*
X61497498Y13602384D01*
X61502068Y13600491D01*
X61502072Y13600489D01*
X61726836Y13507389D01*
X61731409Y13505495D01*
X61785346Y13492546D01*
X61972784Y13447546D01*
X61972790Y13447545D01*
X61977597Y13446391D01*
X62230000Y13426526D01*
X62482403Y13446391D01*
X62487210Y13447545D01*
X62487216Y13447546D01*
X62674654Y13492546D01*
X62728591Y13505495D01*
X62733164Y13507389D01*
X62957928Y13600489D01*
X62957932Y13600491D01*
X62962502Y13602384D01*
X63178376Y13734672D01*
X63370898Y13899102D01*
X63535328Y14091624D01*
X63667616Y14307498D01*
X63688151Y14357072D01*
X63762611Y14536836D01*
X63762612Y14536838D01*
X63764505Y14541409D01*
X63784821Y14626032D01*
X63822454Y14782784D01*
X63822455Y14782790D01*
X63823609Y14787597D01*
X63831465Y14887416D01*
X63838307Y14974345D01*
X63838307Y14974352D01*
X63838500Y14976801D01*
X63838500Y15503199D01*
X63835409Y15542480D01*
X63823997Y15687469D01*
X63823609Y15692403D01*
X63764505Y15938591D01*
X63747859Y15978779D01*
X63669511Y16167928D01*
X63669509Y16167932D01*
X63667616Y16172502D01*
X63557067Y16352902D01*
X63538500Y16418736D01*
X63538500Y20265812D01*
X63558502Y20333933D01*
X63575405Y20354907D01*
X64516405Y21295907D01*
X64578717Y21329933D01*
X64649532Y21324868D01*
X64706368Y21282321D01*
X64731179Y21215801D01*
X64731500Y21206812D01*
X64731500Y16929289D01*
X64711498Y16861168D01*
X64684110Y16830818D01*
X64664687Y16815313D01*
X64551524Y16673557D01*
X64472579Y16510252D01*
X64470995Y16503391D01*
X64435703Y16350523D01*
X64431776Y16333515D01*
X64431500Y16328728D01*
X64431500Y14151272D01*
X64431776Y14146485D01*
X64432976Y14141289D01*
X64432976Y14141286D01*
X64448591Y14073652D01*
X64472579Y13969748D01*
X64551524Y13806443D01*
X64664687Y13664687D01*
X64806443Y13551524D01*
X64969748Y13472579D01*
X64976609Y13470995D01*
X65141286Y13432976D01*
X65141289Y13432976D01*
X65146485Y13431776D01*
X65151272Y13431500D01*
X66928728Y13431500D01*
X66933515Y13431776D01*
X66938711Y13432976D01*
X66938714Y13432976D01*
X67103391Y13470995D01*
X67110252Y13472579D01*
X67273557Y13551524D01*
X67415313Y13664687D01*
X67528476Y13806443D01*
X67607421Y13969748D01*
X67631409Y14073652D01*
X67647024Y14141286D01*
X67647024Y14141289D01*
X67648224Y14146485D01*
X67648500Y14151272D01*
X67648500Y16328728D01*
X67648224Y16333515D01*
X67644298Y16350523D01*
X67609005Y16503391D01*
X67607421Y16510252D01*
X67528476Y16673557D01*
X67415313Y16815313D01*
X67395891Y16830817D01*
X67355133Y16888947D01*
X67348500Y16929289D01*
X67348500Y20741812D01*
X67368502Y20809933D01*
X67385405Y20830907D01*
X71481029Y24926531D01*
X72755095Y24926531D01*
X72755392Y24921378D01*
X72755392Y24921375D01*
X72767085Y24718572D01*
X72768427Y24695303D01*
X72769564Y24690257D01*
X72769565Y24690251D01*
X72793006Y24586239D01*
X72819346Y24469358D01*
X72821288Y24464576D01*
X72821289Y24464572D01*
X72902298Y24265072D01*
X72906484Y24254763D01*
X72954365Y24176629D01*
X73011709Y24083052D01*
X73027501Y24057281D01*
X73179147Y23882216D01*
X73357349Y23734270D01*
X73557322Y23617416D01*
X73562147Y23615574D01*
X73562148Y23615573D01*
X73587047Y23606065D01*
X73773694Y23534791D01*
X73778760Y23533760D01*
X73778761Y23533760D01*
X73814863Y23526415D01*
X74000656Y23488615D01*
X74027775Y23487621D01*
X74095117Y23465138D01*
X74112254Y23450801D01*
X76374595Y21188459D01*
X76408621Y21126147D01*
X76411500Y21099364D01*
X76411500Y16709360D01*
X76391498Y16641239D01*
X76367331Y16613549D01*
X76329102Y16580898D01*
X76164672Y16388376D01*
X76032384Y16172502D01*
X76030491Y16167932D01*
X76030489Y16167928D01*
X75952141Y15978779D01*
X75935495Y15938591D01*
X75876391Y15692403D01*
X75876003Y15687469D01*
X75864592Y15542480D01*
X75861500Y15503199D01*
X75861500Y14976801D01*
X75861693Y14974352D01*
X75861693Y14974345D01*
X75868535Y14887416D01*
X75876391Y14787597D01*
X75877545Y14782790D01*
X75877546Y14782784D01*
X75915179Y14626032D01*
X75935495Y14541409D01*
X75937388Y14536838D01*
X75937389Y14536836D01*
X76011850Y14357072D01*
X76032384Y14307498D01*
X76164672Y14091624D01*
X76329102Y13899102D01*
X76521624Y13734672D01*
X76737498Y13602384D01*
X76742068Y13600491D01*
X76742072Y13600489D01*
X76966836Y13507389D01*
X76971409Y13505495D01*
X77025346Y13492546D01*
X77212784Y13447546D01*
X77212790Y13447545D01*
X77217597Y13446391D01*
X77470000Y13426526D01*
X77722403Y13446391D01*
X77727210Y13447545D01*
X77727216Y13447546D01*
X77914654Y13492546D01*
X77968591Y13505495D01*
X77973164Y13507389D01*
X78197928Y13600489D01*
X78197932Y13600491D01*
X78202502Y13602384D01*
X78418376Y13734672D01*
X78610898Y13899102D01*
X78775328Y14091624D01*
X78907616Y14307498D01*
X78928151Y14357072D01*
X79002611Y14536836D01*
X79002612Y14536838D01*
X79004505Y14541409D01*
X79024821Y14626032D01*
X79062454Y14782784D01*
X79062455Y14782790D01*
X79063609Y14787597D01*
X79071465Y14887416D01*
X79078307Y14974345D01*
X79078307Y14974352D01*
X79078500Y14976801D01*
X79078500Y15503199D01*
X79075409Y15542480D01*
X79063997Y15687469D01*
X79063609Y15692403D01*
X79004505Y15938591D01*
X78987859Y15978779D01*
X78909511Y16167928D01*
X78909509Y16167932D01*
X78907616Y16172502D01*
X78775328Y16388376D01*
X78610898Y16580898D01*
X78572669Y16613549D01*
X78533860Y16673000D01*
X78528500Y16709360D01*
X78528500Y21525431D01*
X78529237Y21539038D01*
X78532898Y21572736D01*
X78532898Y21572741D01*
X78533563Y21578862D01*
X78528979Y21631261D01*
X78528650Y21636089D01*
X78528500Y21639160D01*
X78528500Y21642237D01*
X78528201Y21645291D01*
X78528200Y21645302D01*
X78524094Y21687172D01*
X78523972Y21688487D01*
X78516008Y21779522D01*
X78516007Y21779527D01*
X78515471Y21785655D01*
X78513911Y21791025D01*
X78513365Y21796592D01*
X78506876Y21818087D01*
X78485146Y21890062D01*
X78484772Y21891326D01*
X78459277Y21979080D01*
X78459276Y21979082D01*
X78457558Y21984996D01*
X78454985Y21989961D01*
X78453368Y21995315D01*
X78407513Y22081554D01*
X78406926Y22082672D01*
X78402496Y22091220D01*
X78372094Y22149871D01*
X78364867Y22163814D01*
X78364864Y22163818D01*
X78362028Y22169290D01*
X78358538Y22173661D01*
X78355913Y22178599D01*
X78352017Y22183376D01*
X78352013Y22183382D01*
X78294217Y22254246D01*
X78293467Y22255174D01*
X78260607Y22296338D01*
X78258105Y22298840D01*
X78257065Y22300003D01*
X78253378Y22304319D01*
X78224715Y22339464D01*
X78187407Y22370328D01*
X78178628Y22378317D01*
X75606529Y24950416D01*
X75572503Y25012728D01*
X75570048Y25029187D01*
X75566474Y25072662D01*
X75562349Y25122833D01*
X75505925Y25347467D01*
X75496891Y25368244D01*
X75415630Y25555132D01*
X75415628Y25555135D01*
X75413570Y25559869D01*
X75287764Y25754335D01*
X75271800Y25771880D01*
X75225659Y25822588D01*
X75131887Y25925642D01*
X75127836Y25928841D01*
X75127832Y25928845D01*
X74954177Y26065989D01*
X74954172Y26065992D01*
X74950123Y26069190D01*
X74945607Y26071683D01*
X74945604Y26071685D01*
X74751879Y26178627D01*
X74751875Y26178629D01*
X74747355Y26181124D01*
X74742486Y26182848D01*
X74742482Y26182850D01*
X74533903Y26256712D01*
X74533899Y26256713D01*
X74529028Y26258438D01*
X74523935Y26259345D01*
X74523932Y26259346D01*
X74306095Y26298149D01*
X74306089Y26298150D01*
X74301006Y26299055D01*
X74228096Y26299946D01*
X74074581Y26301821D01*
X74074579Y26301821D01*
X74069411Y26301884D01*
X73840464Y26266850D01*
X73620314Y26194894D01*
X73615726Y26192506D01*
X73615722Y26192504D01*
X73419461Y26090337D01*
X73414872Y26087948D01*
X73410739Y26084845D01*
X73410736Y26084843D01*
X73233790Y25951988D01*
X73229655Y25948883D01*
X73187979Y25905272D01*
X73094067Y25806998D01*
X73069639Y25781436D01*
X73066725Y25777164D01*
X73066724Y25777163D01*
X73030253Y25723698D01*
X72939119Y25590101D01*
X72841602Y25380019D01*
X72779707Y25156831D01*
X72755095Y24926531D01*
X71481029Y24926531D01*
X73991198Y27436700D01*
X74006884Y27459101D01*
X74020938Y27479173D01*
X74027630Y27487893D01*
X74057414Y27523388D01*
X74057418Y27523394D01*
X74060955Y27527609D01*
X74063705Y27532373D01*
X74063709Y27532378D01*
X74086876Y27572506D01*
X74092784Y27581780D01*
X74119365Y27619741D01*
X74122523Y27624251D01*
X74124848Y27629236D01*
X74124851Y27629242D01*
X74144439Y27671250D01*
X74149515Y27681001D01*
X74150816Y27683253D01*
X74175433Y27725892D01*
X74193166Y27774612D01*
X74197372Y27784766D01*
X74209546Y27810874D01*
X74219284Y27831757D01*
X74232710Y27881861D01*
X74236002Y27892301D01*
X74253742Y27941041D01*
X74262747Y27992112D01*
X74265126Y28002843D01*
X74278543Y28052913D01*
X74283062Y28104565D01*
X74284497Y28115462D01*
X74288432Y28137780D01*
X74293500Y28166521D01*
X74293500Y30855496D01*
X74313502Y30923617D01*
X74367158Y30970110D01*
X74437432Y30980214D01*
X74502012Y30950720D01*
X74509699Y30943374D01*
X74512051Y30940485D01*
X74538184Y30916831D01*
X74655055Y30811044D01*
X74692137Y30750501D01*
X74696500Y30717629D01*
X74696500Y29465577D01*
X74695763Y29451969D01*
X74691436Y29412138D01*
X74691973Y29405999D01*
X74691973Y29405994D01*
X74696022Y29359714D01*
X74696352Y29354878D01*
X74696500Y29351845D01*
X74696500Y29348763D01*
X74696799Y29345708D01*
X74696800Y29345698D01*
X74700903Y29303853D01*
X74701024Y29302541D01*
X74709528Y29205345D01*
X74711090Y29199970D01*
X74711635Y29194408D01*
X74739824Y29101042D01*
X74740199Y29099776D01*
X74765722Y29011922D01*
X74765724Y29011916D01*
X74767442Y29006004D01*
X74770015Y29001039D01*
X74771632Y28995685D01*
X74774525Y28990245D01*
X74774525Y28990244D01*
X74817460Y28909498D01*
X74818074Y28908328D01*
X74860133Y28827186D01*
X74860136Y28827182D01*
X74862972Y28821710D01*
X74866462Y28817339D01*
X74869087Y28812401D01*
X74872983Y28807624D01*
X74872987Y28807618D01*
X74930783Y28736754D01*
X74931533Y28735826D01*
X74964393Y28694662D01*
X74966895Y28692160D01*
X74967935Y28690997D01*
X74971622Y28686681D01*
X75000285Y28651536D01*
X75005027Y28647613D01*
X75005030Y28647610D01*
X75037593Y28620672D01*
X75046372Y28612683D01*
X80184595Y23474460D01*
X80218621Y23412148D01*
X80221500Y23385365D01*
X80221500Y16709360D01*
X80201498Y16641239D01*
X80177331Y16613549D01*
X80139102Y16580898D01*
X79974672Y16388376D01*
X79842384Y16172502D01*
X79840491Y16167932D01*
X79840489Y16167928D01*
X79762141Y15978779D01*
X79745495Y15938591D01*
X79686391Y15692403D01*
X79686003Y15687469D01*
X79674592Y15542480D01*
X79671500Y15503199D01*
X79671500Y14976801D01*
X79671693Y14974352D01*
X79671693Y14974345D01*
X79678535Y14887416D01*
X79686391Y14787597D01*
X79687545Y14782790D01*
X79687546Y14782784D01*
X79725179Y14626032D01*
X79745495Y14541409D01*
X79747388Y14536838D01*
X79747389Y14536836D01*
X79821850Y14357072D01*
X79842384Y14307498D01*
X79974672Y14091624D01*
X80139102Y13899102D01*
X80331624Y13734672D01*
X80547498Y13602384D01*
X80552068Y13600491D01*
X80552072Y13600489D01*
X80776836Y13507389D01*
X80781409Y13505495D01*
X80835346Y13492546D01*
X81022784Y13447546D01*
X81022790Y13447545D01*
X81027597Y13446391D01*
X81280000Y13426526D01*
X81532403Y13446391D01*
X81537210Y13447545D01*
X81537216Y13447546D01*
X81724654Y13492546D01*
X81778591Y13505495D01*
X81783164Y13507389D01*
X82007928Y13600489D01*
X82007932Y13600491D01*
X82012502Y13602384D01*
X82228376Y13734672D01*
X82420898Y13899102D01*
X82585328Y14091624D01*
X82654362Y14204277D01*
X83682001Y14204277D01*
X83682539Y14196065D01*
X83696572Y14089467D01*
X83700810Y14073652D01*
X83755753Y13941007D01*
X83763941Y13926824D01*
X83851344Y13812920D01*
X83862920Y13801344D01*
X83976824Y13713941D01*
X83991007Y13705753D01*
X84123650Y13650810D01*
X84139468Y13646572D01*
X84246066Y13632538D01*
X84254275Y13632000D01*
X84767885Y13632000D01*
X84783124Y13636475D01*
X84784329Y13637865D01*
X84786000Y13645548D01*
X84786000Y13650116D01*
X85394000Y13650116D01*
X85398475Y13634877D01*
X85399865Y13633672D01*
X85407548Y13632001D01*
X85925723Y13632001D01*
X85933935Y13632539D01*
X86040533Y13646572D01*
X86056348Y13650810D01*
X86188993Y13705753D01*
X86203176Y13713941D01*
X86317080Y13801344D01*
X86328656Y13812920D01*
X86416059Y13926824D01*
X86424247Y13941007D01*
X86479190Y14073650D01*
X86483428Y14089468D01*
X86497462Y14196066D01*
X86498000Y14204275D01*
X86498000Y14917885D01*
X86493525Y14933124D01*
X86492135Y14934329D01*
X86484452Y14936000D01*
X85412115Y14936000D01*
X85396876Y14931525D01*
X85395671Y14930135D01*
X85394000Y14922452D01*
X85394000Y13650116D01*
X84786000Y13650116D01*
X84786000Y14917885D01*
X84781525Y14933124D01*
X84780135Y14934329D01*
X84772452Y14936000D01*
X83700116Y14936000D01*
X83684877Y14931525D01*
X83683672Y14930135D01*
X83682001Y14922452D01*
X83682001Y14204277D01*
X82654362Y14204277D01*
X82717616Y14307498D01*
X82738151Y14357072D01*
X82812611Y14536836D01*
X82812612Y14536838D01*
X82814505Y14541409D01*
X82834821Y14626032D01*
X82872454Y14782784D01*
X82872455Y14782790D01*
X82873609Y14787597D01*
X82881465Y14887416D01*
X82888307Y14974345D01*
X82888307Y14974352D01*
X82888500Y14976801D01*
X82888500Y15381895D01*
X90608757Y15381895D01*
X90616711Y14902199D01*
X90617008Y14897052D01*
X90664239Y14419636D01*
X90664959Y14414517D01*
X90751151Y13942571D01*
X90752284Y13937547D01*
X90876857Y13474252D01*
X90878400Y13469329D01*
X91040520Y13017787D01*
X91042452Y13013029D01*
X91241028Y12576286D01*
X91243352Y12571684D01*
X91477037Y12152694D01*
X91479731Y12148298D01*
X91746970Y11749855D01*
X91750009Y11745704D01*
X92048983Y11370513D01*
X92052383Y11366589D01*
X92119602Y11295133D01*
X92133305Y11287098D01*
X92134118Y11287131D01*
X92142284Y11292205D01*
X96077267Y15227188D01*
X96083645Y15238868D01*
X96955119Y15238868D01*
X96955250Y15237035D01*
X96959501Y15230420D01*
X100894568Y11295353D01*
X100908512Y11287739D01*
X100909029Y11287776D01*
X100917424Y11293406D01*
X101021265Y11405741D01*
X101024604Y11409664D01*
X101320296Y11787453D01*
X101323317Y11791657D01*
X101587056Y12192399D01*
X101589710Y12196816D01*
X101819727Y12617821D01*
X101822025Y12622473D01*
X102016758Y13060880D01*
X102018674Y13065717D01*
X102176835Y13518620D01*
X102178338Y13523567D01*
X102298861Y13987927D01*
X102299951Y13992963D01*
X102382024Y14465657D01*
X102382696Y14470764D01*
X102425807Y14949093D01*
X102426042Y14953214D01*
X102433000Y15237921D01*
X102432966Y15242073D01*
X102413274Y15721924D01*
X102412850Y15727076D01*
X102353969Y16203193D01*
X102353128Y16208276D01*
X102255429Y16677981D01*
X102254170Y16682991D01*
X102118322Y17143077D01*
X102116649Y17147992D01*
X101943551Y17595424D01*
X101941497Y17600147D01*
X101732322Y18031885D01*
X101729876Y18036447D01*
X101486032Y18449586D01*
X101483220Y18453934D01*
X101206351Y18845694D01*
X101203177Y18849815D01*
X100921520Y19186076D01*
X100908846Y19194524D01*
X100898314Y19188393D01*
X96962733Y15252812D01*
X96955119Y15238868D01*
X96083645Y15238868D01*
X96084881Y15241132D01*
X96084750Y15242965D01*
X96080499Y15249580D01*
X92145430Y19184649D01*
X92131639Y19192180D01*
X92122327Y19185767D01*
X91926407Y18963148D01*
X91923148Y18959124D01*
X91636777Y18574225D01*
X91633875Y18569971D01*
X91379997Y18162892D01*
X91377450Y18158408D01*
X91157780Y17731894D01*
X91155618Y17727236D01*
X90971633Y17284151D01*
X90969851Y17279306D01*
X90822791Y16822637D01*
X90821419Y16817691D01*
X90712276Y16350523D01*
X90711303Y16345424D01*
X90640811Y15870919D01*
X90640259Y15865749D01*
X90608883Y15387044D01*
X90608757Y15381895D01*
X82888500Y15381895D01*
X82888500Y15503199D01*
X82885409Y15542480D01*
X82883864Y15562115D01*
X83682000Y15562115D01*
X83686475Y15546876D01*
X83687865Y15545671D01*
X83695548Y15544000D01*
X84767885Y15544000D01*
X84783124Y15548475D01*
X84784329Y15549865D01*
X84786000Y15557548D01*
X84786000Y15562115D01*
X85394000Y15562115D01*
X85398475Y15546876D01*
X85399865Y15545671D01*
X85407548Y15544000D01*
X86479884Y15544000D01*
X86495123Y15548475D01*
X86496328Y15549865D01*
X86497999Y15557548D01*
X86497999Y16275723D01*
X86497461Y16283935D01*
X86483428Y16390533D01*
X86479190Y16406348D01*
X86424247Y16538993D01*
X86416059Y16553176D01*
X86328656Y16667080D01*
X86317080Y16678656D01*
X86203176Y16766059D01*
X86188993Y16774247D01*
X86056350Y16829190D01*
X86040532Y16833428D01*
X85933934Y16847462D01*
X85925725Y16848000D01*
X85412115Y16848000D01*
X85396876Y16843525D01*
X85395671Y16842135D01*
X85394000Y16834452D01*
X85394000Y15562115D01*
X84786000Y15562115D01*
X84786000Y16829884D01*
X84781525Y16845123D01*
X84780135Y16846328D01*
X84772452Y16847999D01*
X84254277Y16847999D01*
X84246065Y16847461D01*
X84139467Y16833428D01*
X84123652Y16829190D01*
X83991007Y16774247D01*
X83976824Y16766059D01*
X83862920Y16678656D01*
X83851344Y16667080D01*
X83763941Y16553176D01*
X83755753Y16538993D01*
X83700810Y16406350D01*
X83696572Y16390532D01*
X83682538Y16283934D01*
X83682000Y16275725D01*
X83682000Y15562115D01*
X82883864Y15562115D01*
X82873997Y15687469D01*
X82873609Y15692403D01*
X82814505Y15938591D01*
X82797859Y15978779D01*
X82719511Y16167928D01*
X82719509Y16167932D01*
X82717616Y16172502D01*
X82585328Y16388376D01*
X82420898Y16580898D01*
X82382669Y16613549D01*
X82343860Y16673000D01*
X82338500Y16709360D01*
X82338500Y19628138D01*
X92565734Y19628138D01*
X92565799Y19626915D01*
X92570551Y19619370D01*
X96507188Y15682733D01*
X96521132Y15675119D01*
X96522965Y15675250D01*
X96529580Y15679501D01*
X100465587Y19615508D01*
X100473003Y19629089D01*
X100466281Y19638725D01*
X100186745Y19878740D01*
X100182701Y19881935D01*
X99794322Y20163590D01*
X99790021Y20166448D01*
X99379890Y20415321D01*
X99375357Y20417823D01*
X98946218Y20632253D01*
X98941478Y20634382D01*
X98496210Y20812927D01*
X98491363Y20814644D01*
X98032924Y20956117D01*
X98027944Y20957432D01*
X97559486Y21060858D01*
X97554379Y21061768D01*
X97079024Y21126461D01*
X97073897Y21126946D01*
X96594819Y21152473D01*
X96589655Y21152536D01*
X96110107Y21138721D01*
X96104957Y21138361D01*
X95628149Y21085300D01*
X95623056Y21084521D01*
X95152193Y20992567D01*
X95147176Y20991372D01*
X94685450Y20861152D01*
X94680527Y20859543D01*
X94231016Y20691925D01*
X94226272Y20689930D01*
X93791982Y20486032D01*
X93787429Y20483661D01*
X93371303Y20244862D01*
X93366963Y20242128D01*
X92971800Y19970033D01*
X92967696Y19966951D01*
X92596167Y19663400D01*
X92592309Y19659974D01*
X92573601Y19641939D01*
X92565734Y19628138D01*
X82338500Y19628138D01*
X82338500Y23811423D01*
X82339237Y23825031D01*
X82342899Y23858737D01*
X82342899Y23858741D01*
X82343564Y23864862D01*
X82343027Y23871001D01*
X82343027Y23871006D01*
X82338978Y23917286D01*
X82338648Y23922122D01*
X82338500Y23925155D01*
X82338500Y23928237D01*
X82338201Y23931292D01*
X82338200Y23931302D01*
X82334097Y23973147D01*
X82333976Y23974459D01*
X82326010Y24065509D01*
X82326009Y24065512D01*
X82325472Y24071655D01*
X82323910Y24077030D01*
X82323365Y24082592D01*
X82295152Y24176038D01*
X82294805Y24177210D01*
X82292898Y24183776D01*
X82267558Y24270995D01*
X82264985Y24275958D01*
X82263368Y24281315D01*
X82260473Y24286760D01*
X82260470Y24286767D01*
X82217533Y24367519D01*
X82216920Y24368686D01*
X82174866Y24449815D01*
X82172028Y24455290D01*
X82168538Y24459661D01*
X82165913Y24464599D01*
X82162017Y24469376D01*
X82162013Y24469382D01*
X82104217Y24540246D01*
X82103467Y24541174D01*
X82070607Y24582338D01*
X82068105Y24584840D01*
X82067065Y24586003D01*
X82063378Y24590319D01*
X82034715Y24625464D01*
X82029973Y24629387D01*
X82029970Y24629390D01*
X81997407Y24656328D01*
X81988628Y24664317D01*
X76850405Y29802540D01*
X76816379Y29864852D01*
X76813500Y29891635D01*
X76813500Y30713328D01*
X76833502Y30781449D01*
X76860864Y30810492D01*
X76860348Y30811096D01*
X76863983Y30814200D01*
X76867847Y30817023D01*
X76871239Y30820397D01*
X77048741Y30996971D01*
X77048745Y30996976D01*
X77052132Y31000345D01*
X77059351Y31010118D01*
X77187986Y31184277D01*
X101247001Y31184277D01*
X101247539Y31176065D01*
X101261572Y31069467D01*
X101265810Y31053652D01*
X101320753Y30921007D01*
X101328941Y30906824D01*
X101416344Y30792920D01*
X101427920Y30781344D01*
X101541824Y30693941D01*
X101556007Y30685753D01*
X101688650Y30630810D01*
X101704468Y30626572D01*
X101811066Y30612538D01*
X101819275Y30612000D01*
X102432885Y30612000D01*
X102448124Y30616475D01*
X102449329Y30617865D01*
X102451000Y30625548D01*
X102451000Y32197885D01*
X102446525Y32213124D01*
X102445135Y32214329D01*
X102437452Y32216000D01*
X101265116Y32216000D01*
X101249877Y32211525D01*
X101248672Y32210135D01*
X101247001Y32202452D01*
X101247001Y31184277D01*
X77187986Y31184277D01*
X77203721Y31205581D01*
X77206567Y31209434D01*
X77327598Y31439476D01*
X77329159Y31443995D01*
X77329161Y31444001D01*
X77410880Y31680661D01*
X77410880Y31680662D01*
X77412440Y31685179D01*
X77459141Y31940888D01*
X77463500Y32024061D01*
X77463500Y32986099D01*
X77461103Y33017609D01*
X77449175Y33174423D01*
X77449174Y33174428D01*
X77448812Y33179190D01*
X77390118Y33432415D01*
X77293795Y33673848D01*
X77162062Y33897934D01*
X76997949Y34099515D01*
X76978325Y34117278D01*
X80119200Y34117278D01*
X80165621Y33847117D01*
X80167354Y33839730D01*
X80255278Y33545734D01*
X80257881Y33538621D01*
X80380491Y33257310D01*
X80383933Y33250554D01*
X80539449Y32986012D01*
X80543672Y32979727D01*
X80729848Y32735777D01*
X80734792Y32730050D01*
X80948924Y32510237D01*
X80954533Y32505134D01*
X81193517Y32312642D01*
X81199701Y32308248D01*
X81460067Y32145869D01*
X81466738Y32142247D01*
X81744732Y32012321D01*
X81751785Y32009528D01*
X82043393Y31913934D01*
X82050705Y31912016D01*
X82351688Y31852147D01*
X82359188Y31851119D01*
X82387935Y31848932D01*
X82403069Y31852153D01*
X82406000Y31863528D01*
X82406000Y31864803D01*
X83014000Y31864803D01*
X83017838Y31851731D01*
X83032571Y31849779D01*
X83289563Y31892554D01*
X83296939Y31894243D01*
X83591401Y31980629D01*
X83598525Y31983194D01*
X83880482Y32104332D01*
X83887249Y32107736D01*
X84152603Y32261866D01*
X84158910Y32266056D01*
X84327268Y32393153D01*
X94213988Y32393153D01*
X94221513Y32382720D01*
X94308517Y32312642D01*
X94314701Y32308248D01*
X94575067Y32145869D01*
X94581738Y32142247D01*
X94859732Y32012321D01*
X94866785Y32009528D01*
X95158393Y31913934D01*
X95165705Y31912016D01*
X95466689Y31852147D01*
X95474187Y31851119D01*
X95780183Y31827842D01*
X95787746Y31827724D01*
X96094314Y31841377D01*
X96101855Y31842169D01*
X96404558Y31892553D01*
X96411946Y31894245D01*
X96706401Y31980629D01*
X96713525Y31983194D01*
X96995482Y32104332D01*
X97002249Y32107736D01*
X97267603Y32261866D01*
X97273910Y32266056D01*
X97427615Y32382091D01*
X97436071Y32393482D01*
X97429353Y32405726D01*
X95837812Y33997267D01*
X95823868Y34004881D01*
X95822035Y34004750D01*
X95815420Y34000499D01*
X94221103Y32406182D01*
X94213988Y32393153D01*
X84327268Y32393153D01*
X84403829Y32450951D01*
X84409585Y32455867D01*
X84630519Y32668848D01*
X84635649Y32674428D01*
X84829391Y32912402D01*
X84833806Y32918546D01*
X84997562Y33178083D01*
X85001209Y33184718D01*
X85132595Y33462040D01*
X85135420Y33469067D01*
X85232542Y33760179D01*
X85234496Y33767470D01*
X85295942Y34068143D01*
X85297009Y34075644D01*
X85300449Y34117942D01*
X85297329Y34132992D01*
X85285778Y34136000D01*
X83032115Y34136000D01*
X83016876Y34131525D01*
X83015671Y34130135D01*
X83014000Y34122452D01*
X83014000Y31864803D01*
X82406000Y31864803D01*
X82406000Y34117885D01*
X82401525Y34133124D01*
X82400135Y34134329D01*
X82392452Y34136000D01*
X80134098Y34136000D01*
X80121136Y34132194D01*
X80119200Y34117278D01*
X76978325Y34117278D01*
X76805233Y34273953D01*
X76588349Y34417233D01*
X76584009Y34419234D01*
X76584005Y34419236D01*
X76487842Y34463568D01*
X93212565Y34463568D01*
X93227823Y34157080D01*
X93228654Y34149551D01*
X93280621Y33847117D01*
X93282354Y33839730D01*
X93370278Y33545734D01*
X93372881Y33538621D01*
X93495491Y33257310D01*
X93498933Y33250554D01*
X93654449Y32986012D01*
X93658672Y32979727D01*
X93767204Y32837516D01*
X93778729Y32829054D01*
X93790794Y32835715D01*
X95382267Y34427188D01*
X95388645Y34438868D01*
X96260119Y34438868D01*
X96260250Y34437035D01*
X96264501Y34430420D01*
X97858935Y32835986D01*
X97872058Y32828820D01*
X97882360Y32836210D01*
X97887167Y32842115D01*
X101247000Y32842115D01*
X101251475Y32826876D01*
X101252865Y32825671D01*
X101260548Y32824000D01*
X102432885Y32824000D01*
X102448124Y32828475D01*
X102449329Y32829865D01*
X102451000Y32837548D01*
X102451000Y34409884D01*
X102446525Y34425123D01*
X102445135Y34426328D01*
X102437452Y34427999D01*
X101819277Y34427999D01*
X101811065Y34427461D01*
X101704467Y34413428D01*
X101688652Y34409190D01*
X101556007Y34354247D01*
X101541824Y34346059D01*
X101427920Y34258656D01*
X101416344Y34247080D01*
X101328941Y34133176D01*
X101320753Y34118993D01*
X101265810Y33986350D01*
X101261572Y33970532D01*
X101247538Y33863934D01*
X101247000Y33855725D01*
X101247000Y32842115D01*
X97887167Y32842115D01*
X97944388Y32912399D01*
X97948810Y32918553D01*
X98112562Y33178083D01*
X98116209Y33184718D01*
X98247595Y33462040D01*
X98250420Y33469067D01*
X98347542Y33760179D01*
X98349496Y33767470D01*
X98410941Y34068141D01*
X98412009Y34075645D01*
X98437012Y34383047D01*
X98437217Y34387522D01*
X98437744Y34437779D01*
X98437634Y34442211D01*
X98419072Y34750112D01*
X98418164Y34757614D01*
X98363031Y35059490D01*
X98361218Y35066870D01*
X98270225Y35359916D01*
X98267543Y35367013D01*
X98141993Y35647029D01*
X98138492Y35653726D01*
X97989294Y35901544D01*
X102632000Y35901544D01*
X102632202Y35896512D01*
X102646150Y35723157D01*
X102647762Y35713204D01*
X102703233Y35487367D01*
X102706416Y35477797D01*
X102797280Y35263735D01*
X102801955Y35254793D01*
X102925874Y35058013D01*
X102931914Y35049940D01*
X103085703Y34875500D01*
X103092956Y34868496D01*
X103272654Y34720890D01*
X103280936Y34715134D01*
X103370684Y34662899D01*
X103419498Y34611345D01*
X103432691Y34541585D01*
X103406074Y34475767D01*
X103348099Y34434787D01*
X103307304Y34428000D01*
X103077115Y34428000D01*
X103061876Y34423525D01*
X103060671Y34422135D01*
X103059000Y34414452D01*
X103059000Y30630116D01*
X103063475Y30614877D01*
X103064865Y30613672D01*
X103072548Y30612001D01*
X103690723Y30612001D01*
X103698935Y30612539D01*
X103805533Y30626572D01*
X103821348Y30630810D01*
X103953993Y30685753D01*
X103968176Y30693941D01*
X104082080Y30781344D01*
X104093656Y30792920D01*
X104154499Y30872212D01*
X104211837Y30914079D01*
X104282708Y30918301D01*
X104339015Y30888923D01*
X104474767Y30766047D01*
X104478765Y30763406D01*
X104478766Y30763405D01*
X104590532Y30689569D01*
X104691651Y30622767D01*
X104695991Y30620766D01*
X104695995Y30620764D01*
X104923360Y30515947D01*
X104923363Y30515946D01*
X104927712Y30513941D01*
X104932313Y30512617D01*
X104932314Y30512617D01*
X105172925Y30443395D01*
X105172930Y30443394D01*
X105177518Y30442074D01*
X105435321Y30408820D01*
X105572595Y30412055D01*
X105690408Y30414831D01*
X105690413Y30414831D01*
X105695187Y30414944D01*
X105823162Y30437625D01*
X105946433Y30459472D01*
X105946437Y30459473D01*
X105951137Y30460306D01*
X105955665Y30461843D01*
X106192751Y30542322D01*
X106192754Y30542323D01*
X106197281Y30543860D01*
X106197576Y30542991D01*
X106263581Y30550783D01*
X106327395Y30519666D01*
X106364255Y30458988D01*
X106368500Y30426559D01*
X106368500Y27088348D01*
X106368074Y26925505D01*
X106377397Y26863492D01*
X106378431Y26854342D01*
X106383188Y26791810D01*
X106384266Y26787158D01*
X106384267Y26787153D01*
X106396261Y26735410D01*
X106398114Y26725696D01*
X106406720Y26668455D01*
X106424857Y26610045D01*
X106425307Y26608597D01*
X106427720Y26599686D01*
X106441882Y26538585D01*
X106463334Y26484818D01*
X106466637Y26475490D01*
X106482357Y26424863D01*
X106483802Y26420208D01*
X106511245Y26363816D01*
X106514970Y26355390D01*
X106536431Y26301596D01*
X106536436Y26301585D01*
X106538205Y26297152D01*
X106567554Y26247228D01*
X106572218Y26238527D01*
X106595448Y26190792D01*
X106595451Y26190786D01*
X106597548Y26186478D01*
X106600272Y26182536D01*
X106600273Y26182535D01*
X106633191Y26134906D01*
X106638156Y26127129D01*
X106669938Y26073066D01*
X106672960Y26069354D01*
X106672967Y26069344D01*
X106706489Y26028168D01*
X106712428Y26020259D01*
X106741454Y25978263D01*
X106745339Y25972642D01*
X106748040Y25969642D01*
X106748041Y25969641D01*
X106797910Y25914256D01*
X106801069Y25910747D01*
X106802257Y25909559D01*
X106803360Y25908397D01*
X106803317Y25908356D01*
X106810604Y25900285D01*
X106834051Y25871485D01*
X106897704Y25813869D01*
X106897945Y25813651D01*
X106902485Y25809331D01*
X107474595Y25237221D01*
X107508621Y25174909D01*
X107511500Y25148126D01*
X107511500Y16816287D01*
X107487823Y16742761D01*
X107423814Y16653683D01*
X107289288Y16399608D01*
X107190489Y16129627D01*
X107129245Y15848736D01*
X107128909Y15844466D01*
X107115592Y15675250D01*
X107106689Y15562131D01*
X107123238Y15275117D01*
X107124063Y15270912D01*
X107124064Y15270904D01*
X107156010Y15108079D01*
X107178586Y14993005D01*
X107179973Y14988955D01*
X107179974Y14988950D01*
X107247224Y14792531D01*
X107271710Y14721014D01*
X107273637Y14717183D01*
X107397573Y14470764D01*
X107400885Y14464178D01*
X107563721Y14227250D01*
X107566608Y14224077D01*
X107566609Y14224076D01*
X107689093Y14089467D01*
X107757206Y14014612D01*
X107760501Y14011857D01*
X107760502Y14011856D01*
X107843367Y13942571D01*
X107977759Y13830202D01*
X108221298Y13677429D01*
X108483318Y13559123D01*
X108487437Y13557903D01*
X108754857Y13478689D01*
X108754862Y13478688D01*
X108758970Y13477471D01*
X108763204Y13476823D01*
X108763209Y13476822D01*
X109011811Y13438781D01*
X109043153Y13433985D01*
X109189485Y13431686D01*
X109326317Y13429536D01*
X109326323Y13429536D01*
X109330608Y13429469D01*
X109334860Y13429984D01*
X109334868Y13429984D01*
X109611756Y13463492D01*
X109611761Y13463493D01*
X109616017Y13464008D01*
X109774156Y13505495D01*
X109889954Y13535874D01*
X109889955Y13535874D01*
X109894097Y13536961D01*
X110159704Y13646979D01*
X110305354Y13732090D01*
X110404219Y13789862D01*
X110404220Y13789863D01*
X110407922Y13792026D01*
X110634159Y13969418D01*
X110652096Y13987927D01*
X110805749Y14146485D01*
X110834227Y14175872D01*
X110836760Y14179320D01*
X110836764Y14179325D01*
X111001887Y14404114D01*
X111004425Y14407569D01*
X111006471Y14411337D01*
X111139554Y14656445D01*
X111139555Y14656447D01*
X111141604Y14660221D01*
X111225375Y14881913D01*
X111241707Y14925134D01*
X111241708Y14925138D01*
X111243225Y14929152D01*
X111307407Y15209387D01*
X111309875Y15237035D01*
X111332743Y15493274D01*
X111332743Y15493276D01*
X111332963Y15495740D01*
X111333427Y15540000D01*
X111333040Y15545671D01*
X111314165Y15822548D01*
X111314164Y15822554D01*
X111313873Y15826825D01*
X111309336Y15848736D01*
X111281409Y15983591D01*
X111255574Y16108342D01*
X111159607Y16379343D01*
X111027750Y16634812D01*
X110951413Y16743429D01*
X110928500Y16815879D01*
X110928500Y25870891D01*
X110928608Y25911983D01*
X110928926Y26033495D01*
X110924041Y26065989D01*
X110919604Y26095497D01*
X110918567Y26104675D01*
X110916333Y26134040D01*
X110913812Y26167190D01*
X110903847Y26210180D01*
X110900739Y26223591D01*
X110898885Y26233309D01*
X110890991Y26285818D01*
X110890990Y26285820D01*
X110890280Y26290546D01*
X110887920Y26298149D01*
X110871691Y26350414D01*
X110869278Y26359325D01*
X110865065Y26377500D01*
X110855118Y26420415D01*
X110833668Y26474180D01*
X110830366Y26483505D01*
X110814621Y26534211D01*
X110814618Y26534218D01*
X110813198Y26538792D01*
X110785755Y26595184D01*
X110782030Y26603610D01*
X110760569Y26657404D01*
X110760564Y26657415D01*
X110758795Y26661848D01*
X110729446Y26711772D01*
X110724782Y26720473D01*
X110701552Y26768208D01*
X110701549Y26768214D01*
X110699452Y26772522D01*
X110687447Y26789892D01*
X110663809Y26824094D01*
X110658841Y26831876D01*
X110645640Y26854332D01*
X110627062Y26885934D01*
X110624040Y26889646D01*
X110624033Y26889656D01*
X110590511Y26930832D01*
X110584572Y26938741D01*
X110553958Y26983035D01*
X110553956Y26983038D01*
X110551661Y26986358D01*
X110495931Y27048253D01*
X110494743Y27049441D01*
X110493640Y27050603D01*
X110493683Y27050644D01*
X110486396Y27058715D01*
X110465971Y27083803D01*
X110462949Y27087515D01*
X110399054Y27145350D01*
X110394515Y27149669D01*
X109822405Y27721779D01*
X109788379Y27784091D01*
X109785500Y27810874D01*
X109785500Y30689569D01*
X109805502Y30757690D01*
X109859158Y30804183D01*
X109929432Y30814287D01*
X109996053Y30782986D01*
X110014767Y30766047D01*
X110018765Y30763406D01*
X110018766Y30763405D01*
X110130532Y30689569D01*
X110231651Y30622767D01*
X110235991Y30620766D01*
X110235995Y30620764D01*
X110463360Y30515947D01*
X110463363Y30515946D01*
X110467712Y30513941D01*
X110472313Y30512617D01*
X110472314Y30512617D01*
X110712925Y30443395D01*
X110712930Y30443394D01*
X110717518Y30442074D01*
X110975321Y30408820D01*
X111112595Y30412055D01*
X111230408Y30414831D01*
X111230413Y30414831D01*
X111235187Y30414944D01*
X111363162Y30437625D01*
X111486433Y30459472D01*
X111486437Y30459473D01*
X111491137Y30460306D01*
X111737281Y30543860D01*
X111899417Y30628083D01*
X111969089Y30641735D01*
X112035081Y30615552D01*
X112076442Y30557848D01*
X112083500Y30516269D01*
X112083500Y27088348D01*
X112083074Y26925505D01*
X112092397Y26863492D01*
X112093431Y26854342D01*
X112098188Y26791810D01*
X112099266Y26787158D01*
X112099267Y26787153D01*
X112111261Y26735410D01*
X112113114Y26725696D01*
X112121720Y26668455D01*
X112139857Y26610045D01*
X112140307Y26608597D01*
X112142720Y26599686D01*
X112156882Y26538585D01*
X112178334Y26484818D01*
X112181637Y26475490D01*
X112197357Y26424863D01*
X112198802Y26420208D01*
X112226245Y26363816D01*
X112229970Y26355390D01*
X112251431Y26301596D01*
X112251436Y26301585D01*
X112253205Y26297152D01*
X112282554Y26247228D01*
X112287218Y26238527D01*
X112310448Y26190792D01*
X112310451Y26190786D01*
X112312548Y26186478D01*
X112315272Y26182536D01*
X112315273Y26182535D01*
X112348191Y26134906D01*
X112353156Y26127129D01*
X112384938Y26073066D01*
X112387960Y26069354D01*
X112387967Y26069344D01*
X112421489Y26028168D01*
X112427428Y26020259D01*
X112456454Y25978263D01*
X112460339Y25972642D01*
X112463040Y25969642D01*
X112463041Y25969641D01*
X112512910Y25914256D01*
X112516069Y25910747D01*
X112517257Y25909559D01*
X112518360Y25908397D01*
X112518317Y25908356D01*
X112525604Y25900285D01*
X112549051Y25871485D01*
X112552602Y25868271D01*
X112555891Y25864805D01*
X112554439Y25863427D01*
X112587141Y25810018D01*
X112591500Y25777161D01*
X112591500Y16816287D01*
X112567823Y16742761D01*
X112503814Y16653683D01*
X112369288Y16399608D01*
X112270489Y16129627D01*
X112209245Y15848736D01*
X112208909Y15844466D01*
X112195592Y15675250D01*
X112186689Y15562131D01*
X112203238Y15275117D01*
X112204063Y15270912D01*
X112204064Y15270904D01*
X112236010Y15108079D01*
X112258586Y14993005D01*
X112259973Y14988955D01*
X112259974Y14988950D01*
X112327224Y14792531D01*
X112351710Y14721014D01*
X112353637Y14717183D01*
X112477573Y14470764D01*
X112480885Y14464178D01*
X112643721Y14227250D01*
X112646608Y14224077D01*
X112646609Y14224076D01*
X112769093Y14089467D01*
X112837206Y14014612D01*
X112840501Y14011857D01*
X112840502Y14011856D01*
X112923367Y13942571D01*
X113057759Y13830202D01*
X113301298Y13677429D01*
X113563318Y13559123D01*
X113567437Y13557903D01*
X113834857Y13478689D01*
X113834862Y13478688D01*
X113838970Y13477471D01*
X113843204Y13476823D01*
X113843209Y13476822D01*
X114091811Y13438781D01*
X114123153Y13433985D01*
X114269485Y13431686D01*
X114406317Y13429536D01*
X114406323Y13429536D01*
X114410608Y13429469D01*
X114414860Y13429984D01*
X114414868Y13429984D01*
X114691756Y13463492D01*
X114691761Y13463493D01*
X114696017Y13464008D01*
X114854156Y13505495D01*
X114969954Y13535874D01*
X114969955Y13535874D01*
X114974097Y13536961D01*
X115239704Y13646979D01*
X115385354Y13732090D01*
X115484219Y13789862D01*
X115484220Y13789863D01*
X115487922Y13792026D01*
X115714159Y13969418D01*
X115732096Y13987927D01*
X115885749Y14146485D01*
X115914227Y14175872D01*
X115916760Y14179320D01*
X115916764Y14179325D01*
X116081887Y14404114D01*
X116084425Y14407569D01*
X116086471Y14411337D01*
X116219554Y14656445D01*
X116219555Y14656447D01*
X116221604Y14660221D01*
X116305375Y14881913D01*
X116321707Y14925134D01*
X116321708Y14925138D01*
X116323225Y14929152D01*
X116387407Y15209387D01*
X116389875Y15237035D01*
X116412743Y15493274D01*
X116412743Y15493276D01*
X116412963Y15495740D01*
X116413427Y15540000D01*
X116413040Y15545671D01*
X116394165Y15822548D01*
X116394164Y15822554D01*
X116393873Y15826825D01*
X116389336Y15848736D01*
X116361409Y15983591D01*
X116335574Y16108342D01*
X116239607Y16379343D01*
X116107750Y16634812D01*
X116031413Y16743429D01*
X116008500Y16815879D01*
X116008500Y26505892D01*
X116008609Y26547679D01*
X116008926Y26668496D01*
X115999603Y26730502D01*
X115998567Y26739675D01*
X115998525Y26740232D01*
X115993812Y26802190D01*
X115980739Y26858590D01*
X115978885Y26868309D01*
X115970991Y26920819D01*
X115970990Y26920823D01*
X115970280Y26925546D01*
X115967448Y26934669D01*
X115951692Y26985407D01*
X115949278Y26994322D01*
X115936199Y27050753D01*
X115936197Y27050758D01*
X115935118Y27055415D01*
X115913663Y27109192D01*
X115910359Y27118521D01*
X115894615Y27169225D01*
X115893197Y27173792D01*
X115891109Y27178084D01*
X115891106Y27178090D01*
X115865764Y27230164D01*
X115862031Y27238608D01*
X115840567Y27292406D01*
X115838795Y27296848D01*
X115809451Y27346764D01*
X115804786Y27355465D01*
X115781549Y27403214D01*
X115779452Y27407523D01*
X115743805Y27459101D01*
X115738838Y27466883D01*
X115709492Y27516801D01*
X115709490Y27516804D01*
X115707062Y27520934D01*
X115704041Y27524645D01*
X115704038Y27524649D01*
X115670515Y27565824D01*
X115664584Y27573723D01*
X115631661Y27621359D01*
X115575931Y27683253D01*
X115574757Y27684427D01*
X115573640Y27685604D01*
X115573683Y27685644D01*
X115566396Y27693715D01*
X115545971Y27718803D01*
X115542949Y27722515D01*
X115539398Y27725729D01*
X115536109Y27729195D01*
X115537561Y27730573D01*
X115504859Y27783982D01*
X115500500Y27816839D01*
X115500500Y30567646D01*
X115520502Y30635767D01*
X115574158Y30682260D01*
X115644432Y30692364D01*
X115695952Y30672776D01*
X115771651Y30622767D01*
X115775991Y30620766D01*
X115775995Y30620764D01*
X116003360Y30515947D01*
X116003363Y30515946D01*
X116007712Y30513941D01*
X116012313Y30512617D01*
X116012314Y30512617D01*
X116252925Y30443395D01*
X116252930Y30443394D01*
X116257518Y30442074D01*
X116515321Y30408820D01*
X116652595Y30412055D01*
X116770408Y30414831D01*
X116770413Y30414831D01*
X116775187Y30414944D01*
X116903162Y30437625D01*
X117026433Y30459472D01*
X117026437Y30459473D01*
X117031137Y30460306D01*
X117277281Y30543860D01*
X117487417Y30653017D01*
X117557089Y30666669D01*
X117623081Y30640486D01*
X117664442Y30582782D01*
X117671500Y30541203D01*
X117671500Y17609118D01*
X117651498Y17540997D01*
X117624109Y17510647D01*
X117504687Y17415313D01*
X117391524Y17273557D01*
X117312579Y17110252D01*
X117310995Y17103391D01*
X117294885Y17033609D01*
X117271776Y16933515D01*
X117271500Y16928728D01*
X117271500Y14151272D01*
X117271776Y14146485D01*
X117272976Y14141289D01*
X117272976Y14141286D01*
X117288591Y14073652D01*
X117312579Y13969748D01*
X117391524Y13806443D01*
X117504687Y13664687D01*
X117646443Y13551524D01*
X117809748Y13472579D01*
X117816609Y13470995D01*
X117981286Y13432976D01*
X117981289Y13432976D01*
X117986485Y13431776D01*
X117991272Y13431500D01*
X120768728Y13431500D01*
X120773515Y13431776D01*
X120778711Y13432976D01*
X120778714Y13432976D01*
X120943391Y13470995D01*
X120950252Y13472579D01*
X121113557Y13551524D01*
X121255313Y13664687D01*
X121368476Y13806443D01*
X121447421Y13969748D01*
X121471409Y14073652D01*
X121487024Y14141286D01*
X121487024Y14141289D01*
X121488224Y14146485D01*
X121488500Y14151272D01*
X121488500Y16928728D01*
X121488224Y16933515D01*
X121465116Y17033609D01*
X121449005Y17103391D01*
X121447421Y17110252D01*
X121368476Y17273557D01*
X121255313Y17415313D01*
X121135891Y17510647D01*
X121095132Y17568778D01*
X121088500Y17609118D01*
X121088500Y30535936D01*
X121108502Y30604057D01*
X121162158Y30650550D01*
X121232432Y30660654D01*
X121283950Y30641067D01*
X121311651Y30622767D01*
X121315991Y30620766D01*
X121315995Y30620764D01*
X121543360Y30515947D01*
X121543363Y30515946D01*
X121547712Y30513941D01*
X121552313Y30512617D01*
X121552314Y30512617D01*
X121792925Y30443395D01*
X121792930Y30443394D01*
X121797518Y30442074D01*
X122055321Y30408820D01*
X122192595Y30412055D01*
X122310408Y30414831D01*
X122310413Y30414831D01*
X122315187Y30414944D01*
X122443162Y30437625D01*
X122566433Y30459472D01*
X122566437Y30459473D01*
X122571137Y30460306D01*
X122817281Y30543860D01*
X123047954Y30663685D01*
X123051808Y30666500D01*
X123051812Y30666503D01*
X123253983Y30814200D01*
X123253984Y30814201D01*
X123257847Y30817023D01*
X123442132Y31000345D01*
X123443413Y30999057D01*
X123496577Y31033374D01*
X123567574Y31033516D01*
X123630029Y30992100D01*
X123650535Y30966913D01*
X123672051Y30940485D01*
X123720055Y30897034D01*
X123815055Y30811044D01*
X123852137Y30750501D01*
X123856500Y30717629D01*
X123856500Y26025577D01*
X123855763Y26011969D01*
X123851436Y25972138D01*
X123851973Y25965999D01*
X123851973Y25965994D01*
X123856022Y25919714D01*
X123856352Y25914878D01*
X123856500Y25911845D01*
X123856500Y25908763D01*
X123856799Y25905708D01*
X123856800Y25905698D01*
X123860903Y25863853D01*
X123861024Y25862541D01*
X123868609Y25775853D01*
X123869528Y25765345D01*
X123871090Y25759970D01*
X123871635Y25754408D01*
X123897119Y25670001D01*
X123899824Y25661042D01*
X123900199Y25659776D01*
X123925722Y25571922D01*
X123925724Y25571916D01*
X123927442Y25566004D01*
X123930015Y25561039D01*
X123931632Y25555685D01*
X123972735Y25478385D01*
X123977460Y25469498D01*
X123978074Y25468328D01*
X124020133Y25387186D01*
X124020136Y25387182D01*
X124022972Y25381710D01*
X124026462Y25377339D01*
X124029087Y25372401D01*
X124032983Y25367624D01*
X124032987Y25367618D01*
X124090783Y25296754D01*
X124091533Y25295826D01*
X124124393Y25254662D01*
X124126895Y25252160D01*
X124127935Y25250997D01*
X124131622Y25246681D01*
X124160285Y25211536D01*
X124165027Y25207613D01*
X124165030Y25207610D01*
X124197593Y25180672D01*
X124206372Y25172683D01*
X127174595Y22204460D01*
X127208621Y22142148D01*
X127211500Y22115365D01*
X127211500Y16709360D01*
X127191498Y16641239D01*
X127167331Y16613549D01*
X127129102Y16580898D01*
X126964672Y16388376D01*
X126832384Y16172502D01*
X126830491Y16167932D01*
X126830489Y16167928D01*
X126752141Y15978779D01*
X126735495Y15938591D01*
X126676391Y15692403D01*
X126676003Y15687469D01*
X126664592Y15542480D01*
X126661500Y15503199D01*
X126661500Y14976801D01*
X126661693Y14974352D01*
X126661693Y14974345D01*
X126668535Y14887416D01*
X126676391Y14787597D01*
X126677545Y14782790D01*
X126677546Y14782784D01*
X126715179Y14626032D01*
X126735495Y14541409D01*
X126737388Y14536838D01*
X126737389Y14536836D01*
X126811850Y14357072D01*
X126832384Y14307498D01*
X126964672Y14091624D01*
X127129102Y13899102D01*
X127321624Y13734672D01*
X127537498Y13602384D01*
X127542068Y13600491D01*
X127542072Y13600489D01*
X127766836Y13507389D01*
X127771409Y13505495D01*
X127825346Y13492546D01*
X128012784Y13447546D01*
X128012790Y13447545D01*
X128017597Y13446391D01*
X128270000Y13426526D01*
X128522403Y13446391D01*
X128527210Y13447545D01*
X128527216Y13447546D01*
X128714654Y13492546D01*
X128768591Y13505495D01*
X128773164Y13507389D01*
X128997928Y13600489D01*
X128997932Y13600491D01*
X129002502Y13602384D01*
X129218376Y13734672D01*
X129410898Y13899102D01*
X129575328Y14091624D01*
X129707616Y14307498D01*
X129728151Y14357072D01*
X129802611Y14536836D01*
X129802612Y14536838D01*
X129804505Y14541409D01*
X129824821Y14626032D01*
X129862454Y14782784D01*
X129862455Y14782790D01*
X129863609Y14787597D01*
X129871465Y14887416D01*
X129878307Y14974345D01*
X129878307Y14974352D01*
X129878500Y14976801D01*
X129878500Y15503199D01*
X129875409Y15542480D01*
X129863997Y15687469D01*
X129863609Y15692403D01*
X129804505Y15938591D01*
X129787859Y15978779D01*
X129709511Y16167928D01*
X129709509Y16167932D01*
X129707616Y16172502D01*
X129575328Y16388376D01*
X129410898Y16580898D01*
X129372669Y16613549D01*
X129333860Y16673000D01*
X129328500Y16709360D01*
X129328500Y22541423D01*
X129329237Y22555031D01*
X129332899Y22588736D01*
X129332899Y22588740D01*
X129333564Y22594861D01*
X129329868Y22637107D01*
X129328978Y22647285D01*
X129328649Y22652110D01*
X129328500Y22655155D01*
X129328500Y22658237D01*
X129326802Y22675555D01*
X129324104Y22703073D01*
X129323982Y22704386D01*
X129316009Y22795512D01*
X129315472Y22801655D01*
X129313910Y22807030D01*
X129313365Y22812592D01*
X129285138Y22906085D01*
X129284805Y22907210D01*
X129259279Y22995072D01*
X129259278Y22995074D01*
X129257558Y23000995D01*
X129254985Y23005958D01*
X129253368Y23011315D01*
X129250473Y23016760D01*
X129250470Y23016767D01*
X129207533Y23097519D01*
X129206920Y23098686D01*
X129164866Y23179815D01*
X129162028Y23185290D01*
X129158538Y23189661D01*
X129155913Y23194599D01*
X129152017Y23199376D01*
X129152013Y23199382D01*
X129094217Y23270246D01*
X129093456Y23271188D01*
X129060607Y23312338D01*
X129058105Y23314840D01*
X129057065Y23316003D01*
X129053378Y23320319D01*
X129024715Y23355464D01*
X129019973Y23359387D01*
X129019970Y23359390D01*
X128987407Y23386328D01*
X128978628Y23394317D01*
X126010405Y26362540D01*
X125976379Y26424852D01*
X125973500Y26451635D01*
X125973500Y30713328D01*
X125993502Y30781449D01*
X126020864Y30810492D01*
X126020348Y30811096D01*
X126023983Y30814200D01*
X126027847Y30817023D01*
X126033483Y30822629D01*
X126212132Y31000345D01*
X126213413Y30999057D01*
X126266577Y31033374D01*
X126337574Y31033516D01*
X126400029Y30992100D01*
X126420535Y30966913D01*
X126442051Y30940485D01*
X126634767Y30766047D01*
X126638765Y30763406D01*
X126638766Y30763405D01*
X126750532Y30689569D01*
X126851651Y30622767D01*
X126855991Y30620766D01*
X126855995Y30620764D01*
X127083360Y30515947D01*
X127083363Y30515946D01*
X127087712Y30513941D01*
X127092313Y30512617D01*
X127092314Y30512617D01*
X127332925Y30443395D01*
X127332930Y30443394D01*
X127337518Y30442074D01*
X127595321Y30408820D01*
X127732595Y30412055D01*
X127850408Y30414831D01*
X127850413Y30414831D01*
X127855187Y30414944D01*
X127983162Y30437625D01*
X128106433Y30459472D01*
X128106437Y30459473D01*
X128111137Y30460306D01*
X128357281Y30543860D01*
X128587954Y30663685D01*
X128591808Y30666500D01*
X128591812Y30666503D01*
X128793983Y30814200D01*
X128793984Y30814201D01*
X128797847Y30817023D01*
X128982132Y31000345D01*
X128983413Y30999057D01*
X129036577Y31033374D01*
X129107574Y31033516D01*
X129170029Y30992100D01*
X129190535Y30966913D01*
X129212051Y30940485D01*
X129260055Y30897034D01*
X129355055Y30811044D01*
X129392137Y30750501D01*
X129396500Y30717629D01*
X129396500Y24549577D01*
X129395763Y24535969D01*
X129392808Y24508763D01*
X129391436Y24496138D01*
X129391973Y24489999D01*
X129391973Y24489994D01*
X129396022Y24443714D01*
X129396352Y24438878D01*
X129396500Y24435845D01*
X129396500Y24432763D01*
X129396799Y24429708D01*
X129396800Y24429698D01*
X129400903Y24387853D01*
X129401024Y24386541D01*
X129408743Y24298321D01*
X129409528Y24289345D01*
X129411090Y24283970D01*
X129411635Y24278408D01*
X129439824Y24185042D01*
X129440199Y24183776D01*
X129465722Y24095922D01*
X129465724Y24095916D01*
X129467442Y24090004D01*
X129470015Y24085039D01*
X129471632Y24079685D01*
X129496857Y24032246D01*
X129517460Y23993498D01*
X129518074Y23992328D01*
X129560133Y23911186D01*
X129560136Y23911182D01*
X129562972Y23905710D01*
X129566462Y23901339D01*
X129569087Y23896401D01*
X129572983Y23891624D01*
X129572987Y23891618D01*
X129630783Y23820754D01*
X129631533Y23819826D01*
X129664393Y23778662D01*
X129666895Y23776160D01*
X129667935Y23774997D01*
X129671622Y23770681D01*
X129700285Y23735536D01*
X129705027Y23731613D01*
X129705030Y23731610D01*
X129737593Y23704672D01*
X129746372Y23696683D01*
X130984595Y22458460D01*
X131018621Y22396148D01*
X131021500Y22369365D01*
X131021500Y16709360D01*
X131001498Y16641239D01*
X130977331Y16613549D01*
X130939102Y16580898D01*
X130774672Y16388376D01*
X130642384Y16172502D01*
X130640491Y16167932D01*
X130640489Y16167928D01*
X130562141Y15978779D01*
X130545495Y15938591D01*
X130486391Y15692403D01*
X130486003Y15687469D01*
X130474592Y15542480D01*
X130471500Y15503199D01*
X130471500Y14976801D01*
X130471693Y14974352D01*
X130471693Y14974345D01*
X130478535Y14887416D01*
X130486391Y14787597D01*
X130487545Y14782790D01*
X130487546Y14782784D01*
X130525179Y14626032D01*
X130545495Y14541409D01*
X130547388Y14536838D01*
X130547389Y14536836D01*
X130621850Y14357072D01*
X130642384Y14307498D01*
X130774672Y14091624D01*
X130939102Y13899102D01*
X131131624Y13734672D01*
X131347498Y13602384D01*
X131352068Y13600491D01*
X131352072Y13600489D01*
X131576836Y13507389D01*
X131581409Y13505495D01*
X131635346Y13492546D01*
X131822784Y13447546D01*
X131822790Y13447545D01*
X131827597Y13446391D01*
X132080000Y13426526D01*
X132332403Y13446391D01*
X132337210Y13447545D01*
X132337216Y13447546D01*
X132524654Y13492546D01*
X132578591Y13505495D01*
X132583164Y13507389D01*
X132807928Y13600489D01*
X132807932Y13600491D01*
X132812502Y13602384D01*
X133028376Y13734672D01*
X133220898Y13899102D01*
X133385328Y14091624D01*
X133517616Y14307498D01*
X133538151Y14357072D01*
X133612611Y14536836D01*
X133612612Y14536838D01*
X133614505Y14541409D01*
X133634821Y14626032D01*
X133672454Y14782784D01*
X133672455Y14782790D01*
X133673609Y14787597D01*
X133681465Y14887416D01*
X133688307Y14974345D01*
X133688307Y14974352D01*
X133688500Y14976801D01*
X133688500Y15503199D01*
X133685409Y15542480D01*
X133673997Y15687469D01*
X133673609Y15692403D01*
X133614505Y15938591D01*
X133597859Y15978779D01*
X133519511Y16167928D01*
X133519509Y16167932D01*
X133517616Y16172502D01*
X133385328Y16388376D01*
X133220898Y16580898D01*
X133182669Y16613549D01*
X133143860Y16673000D01*
X133138500Y16709360D01*
X133138500Y22795423D01*
X133139237Y22809031D01*
X133142898Y22842735D01*
X133143564Y22848862D01*
X133138980Y22901255D01*
X133138650Y22906085D01*
X133138500Y22909152D01*
X133138500Y22912237D01*
X133134093Y22957189D01*
X133133972Y22958500D01*
X133126009Y23049511D01*
X133126008Y23049515D01*
X133125471Y23055655D01*
X133123911Y23061025D01*
X133123365Y23066592D01*
X133114265Y23096736D01*
X133095146Y23160062D01*
X133094772Y23161326D01*
X133069277Y23249080D01*
X133069276Y23249082D01*
X133067558Y23254996D01*
X133064985Y23259961D01*
X133063368Y23265315D01*
X133017513Y23351554D01*
X133016926Y23352672D01*
X132974867Y23433814D01*
X132974864Y23433818D01*
X132972028Y23439290D01*
X132968538Y23443661D01*
X132965913Y23448599D01*
X132962017Y23453376D01*
X132962013Y23453382D01*
X132904217Y23524246D01*
X132903467Y23525174D01*
X132870607Y23566338D01*
X132868105Y23568840D01*
X132867065Y23570003D01*
X132863378Y23574319D01*
X132834715Y23609464D01*
X132829973Y23613387D01*
X132829970Y23613390D01*
X132797407Y23640328D01*
X132788628Y23648317D01*
X131550405Y24886540D01*
X131516379Y24948852D01*
X131513500Y24975635D01*
X131513500Y30713328D01*
X131533502Y30781449D01*
X131560864Y30810492D01*
X131560348Y30811096D01*
X131563983Y30814200D01*
X131567847Y30817023D01*
X131573483Y30822629D01*
X131752132Y31000345D01*
X131753413Y30999057D01*
X131806577Y31033374D01*
X131877574Y31033516D01*
X131940029Y30992100D01*
X131960535Y30966913D01*
X131982051Y30940485D01*
X132030055Y30897034D01*
X132125055Y30811044D01*
X132162137Y30750501D01*
X132166500Y30717629D01*
X132166500Y25843577D01*
X132165763Y25829969D01*
X132163268Y25806998D01*
X132161436Y25790138D01*
X132161973Y25783999D01*
X132161973Y25783994D01*
X132166022Y25737714D01*
X132166352Y25732878D01*
X132166500Y25729845D01*
X132166500Y25726763D01*
X132166799Y25723708D01*
X132166800Y25723698D01*
X132170903Y25681853D01*
X132171024Y25680541D01*
X132178103Y25599637D01*
X132179528Y25583345D01*
X132181090Y25577970D01*
X132181635Y25572408D01*
X132209824Y25479042D01*
X132210199Y25477776D01*
X132235722Y25389922D01*
X132235724Y25389916D01*
X132237442Y25384004D01*
X132240015Y25379039D01*
X132241632Y25373685D01*
X132282796Y25296270D01*
X132287460Y25287498D01*
X132288044Y25286384D01*
X132332972Y25199710D01*
X132336462Y25195339D01*
X132339087Y25190401D01*
X132342983Y25185624D01*
X132342987Y25185618D01*
X132400783Y25114754D01*
X132401533Y25113826D01*
X132434393Y25072662D01*
X132436895Y25070160D01*
X132437935Y25068997D01*
X132441622Y25064681D01*
X132470285Y25029536D01*
X132475027Y25025613D01*
X132475030Y25025610D01*
X132507593Y24998672D01*
X132516372Y24990683D01*
X134794595Y22712460D01*
X134828621Y22650148D01*
X134831500Y22623365D01*
X134831500Y16709360D01*
X134811498Y16641239D01*
X134787331Y16613549D01*
X134749102Y16580898D01*
X134584672Y16388376D01*
X134452384Y16172502D01*
X134450491Y16167932D01*
X134450489Y16167928D01*
X134372141Y15978779D01*
X134355495Y15938591D01*
X134296391Y15692403D01*
X134296003Y15687469D01*
X134284592Y15542480D01*
X134281500Y15503199D01*
X134281500Y14976801D01*
X134281693Y14974352D01*
X134281693Y14974345D01*
X134288535Y14887416D01*
X134296391Y14787597D01*
X134297545Y14782790D01*
X134297546Y14782784D01*
X134335179Y14626032D01*
X134355495Y14541409D01*
X134357388Y14536838D01*
X134357389Y14536836D01*
X134431850Y14357072D01*
X134452384Y14307498D01*
X134584672Y14091624D01*
X134749102Y13899102D01*
X134941624Y13734672D01*
X135157498Y13602384D01*
X135162068Y13600491D01*
X135162072Y13600489D01*
X135386836Y13507389D01*
X135391409Y13505495D01*
X135445346Y13492546D01*
X135632784Y13447546D01*
X135632790Y13447545D01*
X135637597Y13446391D01*
X135890000Y13426526D01*
X136142403Y13446391D01*
X136147210Y13447545D01*
X136147216Y13447546D01*
X136334654Y13492546D01*
X136388591Y13505495D01*
X136393164Y13507389D01*
X136617928Y13600489D01*
X136617932Y13600491D01*
X136622502Y13602384D01*
X136838376Y13734672D01*
X137030898Y13899102D01*
X137195328Y14091624D01*
X137264362Y14204277D01*
X138292001Y14204277D01*
X138292539Y14196065D01*
X138306572Y14089467D01*
X138310810Y14073652D01*
X138365753Y13941007D01*
X138373941Y13926824D01*
X138461344Y13812920D01*
X138472920Y13801344D01*
X138586824Y13713941D01*
X138601007Y13705753D01*
X138733650Y13650810D01*
X138749468Y13646572D01*
X138856066Y13632538D01*
X138864275Y13632000D01*
X139377885Y13632000D01*
X139393124Y13636475D01*
X139394329Y13637865D01*
X139396000Y13645548D01*
X139396000Y13650116D01*
X140004000Y13650116D01*
X140008475Y13634877D01*
X140009865Y13633672D01*
X140017548Y13632001D01*
X140535723Y13632001D01*
X140543935Y13632539D01*
X140650533Y13646572D01*
X140666348Y13650810D01*
X140798993Y13705753D01*
X140813176Y13713941D01*
X140927080Y13801344D01*
X140938656Y13812920D01*
X141026059Y13926824D01*
X141034247Y13941007D01*
X141089190Y14073650D01*
X141093428Y14089468D01*
X141107462Y14196066D01*
X141108000Y14204275D01*
X141108000Y14917885D01*
X141103525Y14933124D01*
X141102135Y14934329D01*
X141094452Y14936000D01*
X140022115Y14936000D01*
X140006876Y14931525D01*
X140005671Y14930135D01*
X140004000Y14922452D01*
X140004000Y13650116D01*
X139396000Y13650116D01*
X139396000Y14917885D01*
X139391525Y14933124D01*
X139390135Y14934329D01*
X139382452Y14936000D01*
X138310116Y14936000D01*
X138294877Y14931525D01*
X138293672Y14930135D01*
X138292001Y14922452D01*
X138292001Y14204277D01*
X137264362Y14204277D01*
X137327616Y14307498D01*
X137348151Y14357072D01*
X137422611Y14536836D01*
X137422612Y14536838D01*
X137424505Y14541409D01*
X137444821Y14626032D01*
X137482454Y14782784D01*
X137482455Y14782790D01*
X137483609Y14787597D01*
X137491465Y14887416D01*
X137498307Y14974345D01*
X137498307Y14974352D01*
X137498500Y14976801D01*
X137498500Y15503199D01*
X137495409Y15542480D01*
X137493864Y15562115D01*
X138292000Y15562115D01*
X138296475Y15546876D01*
X138297865Y15545671D01*
X138305548Y15544000D01*
X139377885Y15544000D01*
X139393124Y15548475D01*
X139394329Y15549865D01*
X139396000Y15557548D01*
X139396000Y15562115D01*
X140004000Y15562115D01*
X140008475Y15546876D01*
X140009865Y15545671D01*
X140017548Y15544000D01*
X141089884Y15544000D01*
X141105123Y15548475D01*
X141106328Y15549865D01*
X141107999Y15557548D01*
X141107999Y16275723D01*
X141107461Y16283935D01*
X141093428Y16390533D01*
X141089190Y16406348D01*
X141034247Y16538993D01*
X141026059Y16553176D01*
X140938656Y16667080D01*
X140927080Y16678656D01*
X140813176Y16766059D01*
X140798993Y16774247D01*
X140666350Y16829190D01*
X140650532Y16833428D01*
X140543934Y16847462D01*
X140535725Y16848000D01*
X140022115Y16848000D01*
X140006876Y16843525D01*
X140005671Y16842135D01*
X140004000Y16834452D01*
X140004000Y15562115D01*
X139396000Y15562115D01*
X139396000Y16829884D01*
X139391525Y16845123D01*
X139390135Y16846328D01*
X139382452Y16847999D01*
X138864277Y16847999D01*
X138856065Y16847461D01*
X138749467Y16833428D01*
X138733652Y16829190D01*
X138601007Y16774247D01*
X138586824Y16766059D01*
X138472920Y16678656D01*
X138461344Y16667080D01*
X138373941Y16553176D01*
X138365753Y16538993D01*
X138310810Y16406350D01*
X138306572Y16390532D01*
X138292538Y16283934D01*
X138292000Y16275725D01*
X138292000Y15562115D01*
X137493864Y15562115D01*
X137483997Y15687469D01*
X137483609Y15692403D01*
X137424505Y15938591D01*
X137407859Y15978779D01*
X137329511Y16167928D01*
X137329509Y16167932D01*
X137327616Y16172502D01*
X137195328Y16388376D01*
X137030898Y16580898D01*
X136992669Y16613549D01*
X136953860Y16673000D01*
X136948500Y16709360D01*
X136948500Y23049431D01*
X136949237Y23063038D01*
X136952898Y23096736D01*
X136952898Y23096741D01*
X136953563Y23102862D01*
X136948979Y23155261D01*
X136948650Y23160089D01*
X136948500Y23163160D01*
X136948500Y23166237D01*
X136948201Y23169291D01*
X136948200Y23169302D01*
X136944094Y23211172D01*
X136943972Y23212487D01*
X136936008Y23303522D01*
X136936007Y23303527D01*
X136935471Y23309655D01*
X136933911Y23315025D01*
X136933365Y23320592D01*
X136929317Y23334002D01*
X136905146Y23414062D01*
X136904772Y23415326D01*
X136879277Y23503080D01*
X136879276Y23503082D01*
X136877558Y23508996D01*
X136874985Y23513961D01*
X136873368Y23519315D01*
X136827513Y23605554D01*
X136826926Y23606672D01*
X136822313Y23615573D01*
X136795105Y23668062D01*
X136784867Y23687814D01*
X136784864Y23687818D01*
X136782028Y23693290D01*
X136778538Y23697661D01*
X136775913Y23702599D01*
X136772017Y23707376D01*
X136772013Y23707382D01*
X136714217Y23778246D01*
X136713467Y23779174D01*
X136680607Y23820338D01*
X136678105Y23822840D01*
X136677065Y23824003D01*
X136673378Y23828319D01*
X136644715Y23863464D01*
X136639973Y23867387D01*
X136639970Y23867390D01*
X136607407Y23894328D01*
X136598628Y23902317D01*
X134320405Y26180540D01*
X134286379Y26242852D01*
X134283500Y26269635D01*
X134283500Y30713328D01*
X134303502Y30781449D01*
X134330864Y30810492D01*
X134330348Y30811096D01*
X134333983Y30814200D01*
X134337847Y30817023D01*
X134343483Y30822629D01*
X134522132Y31000345D01*
X134523413Y30999057D01*
X134576577Y31033374D01*
X134647574Y31033516D01*
X134710029Y30992100D01*
X134730535Y30966913D01*
X134752051Y30940485D01*
X134944767Y30766047D01*
X134948765Y30763406D01*
X134948766Y30763405D01*
X135060532Y30689569D01*
X135161651Y30622767D01*
X135165991Y30620766D01*
X135165995Y30620764D01*
X135393360Y30515947D01*
X135393363Y30515946D01*
X135397712Y30513941D01*
X135402313Y30512617D01*
X135402314Y30512617D01*
X135642925Y30443395D01*
X135642930Y30443394D01*
X135647518Y30442074D01*
X135905321Y30408820D01*
X136042595Y30412055D01*
X136160408Y30414831D01*
X136160413Y30414831D01*
X136165187Y30414944D01*
X136293162Y30437625D01*
X136416433Y30459472D01*
X136416437Y30459473D01*
X136421137Y30460306D01*
X136667281Y30543860D01*
X136897954Y30663685D01*
X136901808Y30666500D01*
X136901812Y30666503D01*
X137103983Y30814200D01*
X137103984Y30814201D01*
X137107847Y30817023D01*
X137219457Y30928050D01*
X137288741Y30996971D01*
X137288745Y30996976D01*
X137292132Y31000345D01*
X137299351Y31010118D01*
X137443721Y31205581D01*
X137446567Y31209434D01*
X137567598Y31439476D01*
X137569159Y31443995D01*
X137569161Y31444001D01*
X137650880Y31680661D01*
X137650880Y31680662D01*
X137652440Y31685179D01*
X137699141Y31940888D01*
X137703500Y32024061D01*
X137703500Y32393153D01*
X141313988Y32393153D01*
X141321513Y32382720D01*
X141408517Y32312642D01*
X141414701Y32308248D01*
X141675067Y32145869D01*
X141681738Y32142247D01*
X141959732Y32012321D01*
X141966785Y32009528D01*
X142258393Y31913934D01*
X142265705Y31912016D01*
X142566689Y31852147D01*
X142574187Y31851119D01*
X142880183Y31827842D01*
X142887746Y31827724D01*
X143194314Y31841377D01*
X143201855Y31842169D01*
X143504558Y31892553D01*
X143511946Y31894245D01*
X143806401Y31980629D01*
X143813525Y31983194D01*
X144095482Y32104332D01*
X144102249Y32107736D01*
X144367603Y32261866D01*
X144373910Y32266056D01*
X144527615Y32382091D01*
X144536071Y32393482D01*
X144529353Y32405726D01*
X142937812Y33997267D01*
X142923868Y34004881D01*
X142922035Y34004750D01*
X142915420Y34000499D01*
X141321103Y32406182D01*
X141313988Y32393153D01*
X137703500Y32393153D01*
X137703500Y32986099D01*
X137701103Y33017609D01*
X137689175Y33174423D01*
X137689174Y33174428D01*
X137688812Y33179190D01*
X137630118Y33432415D01*
X137533795Y33673848D01*
X137402062Y33897934D01*
X137237949Y34099515D01*
X137045233Y34273953D01*
X136828349Y34417233D01*
X136824009Y34419234D01*
X136824005Y34419236D01*
X136727842Y34463568D01*
X140312565Y34463568D01*
X140327823Y34157080D01*
X140328654Y34149551D01*
X140380621Y33847117D01*
X140382354Y33839730D01*
X140470278Y33545734D01*
X140472881Y33538621D01*
X140595491Y33257310D01*
X140598933Y33250554D01*
X140754449Y32986012D01*
X140758672Y32979727D01*
X140867204Y32837516D01*
X140878729Y32829054D01*
X140890794Y32835715D01*
X142482267Y34427188D01*
X142488645Y34438868D01*
X143360119Y34438868D01*
X143360250Y34437035D01*
X143364501Y34430420D01*
X144958935Y32835986D01*
X144972058Y32828820D01*
X144982360Y32836210D01*
X145044388Y32912399D01*
X145048810Y32918553D01*
X145212562Y33178083D01*
X145216209Y33184718D01*
X145347595Y33462040D01*
X145350420Y33469067D01*
X145447542Y33760179D01*
X145449496Y33767470D01*
X145510941Y34068141D01*
X145512009Y34075645D01*
X145537012Y34383047D01*
X145537217Y34387522D01*
X145537744Y34437779D01*
X145537634Y34442211D01*
X145519072Y34750112D01*
X145518164Y34757614D01*
X145463031Y35059490D01*
X145461218Y35066870D01*
X145370225Y35359916D01*
X145367543Y35367013D01*
X145241993Y35647029D01*
X145238492Y35653726D01*
X145080199Y35916651D01*
X145075925Y35922870D01*
X144982722Y36042377D01*
X144970932Y36050845D01*
X144959220Y36044299D01*
X143367733Y34452812D01*
X143360119Y34438868D01*
X142488645Y34438868D01*
X142489881Y34441132D01*
X142489750Y34442965D01*
X142485499Y34449580D01*
X140891249Y36043830D01*
X140878314Y36050893D01*
X140867751Y36043233D01*
X140789730Y35945323D01*
X140785374Y35939125D01*
X140624350Y35677894D01*
X140620770Y35671218D01*
X140492296Y35392535D01*
X140489546Y35385484D01*
X140395480Y35093378D01*
X140393597Y35086045D01*
X140335305Y34784754D01*
X140334318Y34777254D01*
X140312644Y34471149D01*
X140312565Y34463568D01*
X136727842Y34463568D01*
X136596640Y34524053D01*
X136596637Y34524054D01*
X136592288Y34526059D01*
X136587686Y34527383D01*
X136347075Y34596605D01*
X136347070Y34596606D01*
X136342482Y34597926D01*
X136084679Y34631180D01*
X135947405Y34627945D01*
X135829592Y34625169D01*
X135829587Y34625169D01*
X135824813Y34625056D01*
X135820115Y34624223D01*
X135820111Y34624223D01*
X135781073Y34617304D01*
X135707791Y34604316D01*
X135637225Y34612124D01*
X135582082Y34656842D01*
X135559870Y34724275D01*
X135577640Y34793011D01*
X135599230Y34819931D01*
X135730626Y34944186D01*
X135737387Y34951695D01*
X135878625Y35136426D01*
X135884089Y35144905D01*
X135993978Y35349847D01*
X135998020Y35359099D01*
X136073727Y35578971D01*
X136076236Y35588743D01*
X136116004Y35818971D01*
X136116859Y35826843D01*
X136117936Y35850551D01*
X136118000Y35853384D01*
X136118000Y36037885D01*
X136113525Y36053124D01*
X136112135Y36054329D01*
X136104452Y36056000D01*
X134932115Y36056000D01*
X134916876Y36051525D01*
X134915671Y36050135D01*
X134914000Y36042452D01*
X134914000Y34496892D01*
X134918475Y34481653D01*
X134943984Y34459549D01*
X134944217Y34459443D01*
X134982655Y34399751D01*
X134982719Y34328755D01*
X134944389Y34268994D01*
X134936119Y34262402D01*
X134882153Y34222977D01*
X134697868Y34039655D01*
X134696587Y34040943D01*
X134643423Y34006626D01*
X134572426Y34006484D01*
X134509971Y34047900D01*
X134470971Y34095803D01*
X134467949Y34099515D01*
X134275233Y34273953D01*
X134276116Y34274928D01*
X134238032Y34327667D01*
X134234185Y34398559D01*
X134269275Y34460278D01*
X134280488Y34469906D01*
X134301715Y34486072D01*
X134306000Y34497856D01*
X134306000Y36486076D01*
X141314129Y36486076D01*
X141320733Y36474188D01*
X142912188Y34882733D01*
X142926132Y34875119D01*
X142927965Y34875250D01*
X142934580Y34879501D01*
X144528815Y36473736D01*
X144535827Y36486577D01*
X144528032Y36497266D01*
X144419123Y36583122D01*
X144412900Y36587447D01*
X144150824Y36747105D01*
X144144148Y36750640D01*
X143864784Y36877658D01*
X143857714Y36880372D01*
X143565131Y36972904D01*
X143557780Y36974751D01*
X143256191Y37031465D01*
X143248681Y37032413D01*
X142942464Y37052483D01*
X142934899Y37052523D01*
X142628478Y37035660D01*
X142620967Y37034791D01*
X142318793Y36981237D01*
X142311432Y36979470D01*
X142017898Y36890007D01*
X142010791Y36887365D01*
X141730122Y36763282D01*
X141723396Y36759811D01*
X141459662Y36602906D01*
X141453411Y36598657D01*
X141322595Y36497734D01*
X141314129Y36486076D01*
X134306000Y36486076D01*
X134306000Y36682115D01*
X134914000Y36682115D01*
X134918475Y36666876D01*
X134919865Y36665671D01*
X134927548Y36664000D01*
X136099885Y36664000D01*
X136115124Y36668475D01*
X136116329Y36669865D01*
X136118000Y36677548D01*
X136118000Y36818456D01*
X136117798Y36823488D01*
X136103850Y36996843D01*
X136102238Y37006796D01*
X136046767Y37232633D01*
X136043584Y37242203D01*
X135952720Y37456265D01*
X135948045Y37465207D01*
X135824126Y37661987D01*
X135818086Y37670060D01*
X135664297Y37844500D01*
X135657044Y37851504D01*
X135477346Y37999110D01*
X135469064Y38004866D01*
X135268081Y38121841D01*
X135258976Y38126203D01*
X135041885Y38209537D01*
X135032196Y38212388D01*
X134931736Y38233375D01*
X134917676Y38232253D01*
X134914000Y38222144D01*
X134914000Y36682115D01*
X134306000Y36682115D01*
X134306000Y38223108D01*
X134302027Y38236639D01*
X134293919Y38237804D01*
X134087506Y38179396D01*
X134078062Y38175884D01*
X133867295Y38077601D01*
X133858529Y38072622D01*
X133666198Y37941913D01*
X133658323Y37935581D01*
X133489374Y37775814D01*
X133482620Y37768313D01*
X133452887Y37729423D01*
X133395622Y37687456D01*
X133324759Y37683110D01*
X133262795Y37717765D01*
X133249410Y37733939D01*
X133247062Y37737934D01*
X133082949Y37939515D01*
X132890233Y38113953D01*
X132673349Y38257233D01*
X132669009Y38259234D01*
X132669005Y38259236D01*
X132441640Y38364053D01*
X132441637Y38364054D01*
X132437288Y38366059D01*
X132432686Y38367383D01*
X132192075Y38436605D01*
X132192070Y38436606D01*
X132187482Y38437926D01*
X131929679Y38471180D01*
X131792405Y38467945D01*
X131674592Y38465169D01*
X131674587Y38465169D01*
X131669813Y38465056D01*
X131541838Y38442375D01*
X131418567Y38420528D01*
X131418563Y38420527D01*
X131413863Y38419694D01*
X131167719Y38336140D01*
X130937046Y38216315D01*
X130933192Y38213500D01*
X130933188Y38213497D01*
X130740355Y38072622D01*
X130727153Y38062977D01*
X130542868Y37879655D01*
X130541587Y37880943D01*
X130488423Y37846626D01*
X130417426Y37846484D01*
X130354971Y37887900D01*
X130315971Y37935803D01*
X130312949Y37939515D01*
X130120233Y38113953D01*
X129903349Y38257233D01*
X129899009Y38259234D01*
X129899005Y38259236D01*
X129671640Y38364053D01*
X129671637Y38364054D01*
X129667288Y38366059D01*
X129662686Y38367383D01*
X129422075Y38436605D01*
X129422070Y38436606D01*
X129417482Y38437926D01*
X129159679Y38471180D01*
X129022405Y38467945D01*
X128904592Y38465169D01*
X128904587Y38465169D01*
X128899813Y38465056D01*
X128771838Y38442375D01*
X128648567Y38420528D01*
X128648563Y38420527D01*
X128643863Y38419694D01*
X128397719Y38336140D01*
X128167046Y38216315D01*
X128163192Y38213500D01*
X128163188Y38213497D01*
X127970355Y38072622D01*
X127957153Y38062977D01*
X127772868Y37879655D01*
X127771587Y37880943D01*
X127718423Y37846626D01*
X127647426Y37846484D01*
X127584971Y37887900D01*
X127545971Y37935803D01*
X127542949Y37939515D01*
X127350233Y38113953D01*
X127133349Y38257233D01*
X127129009Y38259234D01*
X127129005Y38259236D01*
X126901640Y38364053D01*
X126901637Y38364054D01*
X126897288Y38366059D01*
X126892686Y38367383D01*
X126652075Y38436605D01*
X126652070Y38436606D01*
X126647482Y38437926D01*
X126389679Y38471180D01*
X126252405Y38467945D01*
X126134592Y38465169D01*
X126134587Y38465169D01*
X126129813Y38465056D01*
X126001838Y38442375D01*
X125878567Y38420528D01*
X125878563Y38420527D01*
X125873863Y38419694D01*
X125627719Y38336140D01*
X125397046Y38216315D01*
X125393192Y38213500D01*
X125393188Y38213497D01*
X125200355Y38072622D01*
X125187153Y38062977D01*
X125002868Y37879655D01*
X125001587Y37880943D01*
X124948423Y37846626D01*
X124877426Y37846484D01*
X124814971Y37887900D01*
X124775971Y37935803D01*
X124772949Y37939515D01*
X124580233Y38113953D01*
X124363349Y38257233D01*
X124359009Y38259234D01*
X124359005Y38259236D01*
X124131640Y38364053D01*
X124131637Y38364054D01*
X124127288Y38366059D01*
X124122686Y38367383D01*
X123882075Y38436605D01*
X123882070Y38436606D01*
X123877482Y38437926D01*
X123619679Y38471180D01*
X123482405Y38467945D01*
X123364592Y38465169D01*
X123364587Y38465169D01*
X123359813Y38465056D01*
X123231838Y38442375D01*
X123108567Y38420528D01*
X123108563Y38420527D01*
X123103863Y38419694D01*
X122857719Y38336140D01*
X122627046Y38216315D01*
X122623192Y38213500D01*
X122623188Y38213497D01*
X122430355Y38072622D01*
X122417153Y38062977D01*
X122232868Y37879655D01*
X122231587Y37880943D01*
X122178423Y37846626D01*
X122107426Y37846484D01*
X122044971Y37887900D01*
X122005971Y37935803D01*
X122002949Y37939515D01*
X121810233Y38113953D01*
X121593349Y38257233D01*
X121589009Y38259234D01*
X121589005Y38259236D01*
X121361640Y38364053D01*
X121361637Y38364054D01*
X121357288Y38366059D01*
X121352686Y38367383D01*
X121112075Y38436605D01*
X121112070Y38436606D01*
X121107482Y38437926D01*
X120849679Y38471180D01*
X120712405Y38467945D01*
X120594592Y38465169D01*
X120594587Y38465169D01*
X120589813Y38465056D01*
X120461838Y38442375D01*
X120338567Y38420528D01*
X120338563Y38420527D01*
X120333863Y38419694D01*
X120087719Y38336140D01*
X119857046Y38216315D01*
X119853192Y38213500D01*
X119853188Y38213497D01*
X119660355Y38072622D01*
X119647153Y38062977D01*
X119462868Y37879655D01*
X119461587Y37880943D01*
X119408423Y37846626D01*
X119337426Y37846484D01*
X119274971Y37887900D01*
X119235971Y37935803D01*
X119232949Y37939515D01*
X119040233Y38113953D01*
X118823349Y38257233D01*
X118819009Y38259234D01*
X118819005Y38259236D01*
X118591640Y38364053D01*
X118591637Y38364054D01*
X118587288Y38366059D01*
X118582686Y38367383D01*
X118342075Y38436605D01*
X118342070Y38436606D01*
X118337482Y38437926D01*
X118079679Y38471180D01*
X117942405Y38467945D01*
X117824592Y38465169D01*
X117824587Y38465169D01*
X117819813Y38465056D01*
X117691838Y38442375D01*
X117568567Y38420528D01*
X117568563Y38420527D01*
X117563863Y38419694D01*
X117317719Y38336140D01*
X117087046Y38216315D01*
X117083192Y38213500D01*
X117083188Y38213497D01*
X116890355Y38072622D01*
X116877153Y38062977D01*
X116692868Y37879655D01*
X116691587Y37880943D01*
X116638423Y37846626D01*
X116567426Y37846484D01*
X116504971Y37887900D01*
X116465971Y37935803D01*
X116462949Y37939515D01*
X116270233Y38113953D01*
X116053349Y38257233D01*
X116049009Y38259234D01*
X116049005Y38259236D01*
X115821640Y38364053D01*
X115821637Y38364054D01*
X115817288Y38366059D01*
X115812686Y38367383D01*
X115572075Y38436605D01*
X115572070Y38436606D01*
X115567482Y38437926D01*
X115309679Y38471180D01*
X115172405Y38467945D01*
X115054592Y38465169D01*
X115054587Y38465169D01*
X115049813Y38465056D01*
X114921838Y38442375D01*
X114798567Y38420528D01*
X114798563Y38420527D01*
X114793863Y38419694D01*
X114547719Y38336140D01*
X114317046Y38216315D01*
X114313192Y38213500D01*
X114313188Y38213497D01*
X114120355Y38072622D01*
X114107153Y38062977D01*
X113922868Y37879655D01*
X113921587Y37880943D01*
X113868423Y37846626D01*
X113797426Y37846484D01*
X113734971Y37887900D01*
X113695971Y37935803D01*
X113692949Y37939515D01*
X113500233Y38113953D01*
X113283349Y38257233D01*
X113279009Y38259234D01*
X113279005Y38259236D01*
X113051640Y38364053D01*
X113051637Y38364054D01*
X113047288Y38366059D01*
X113042686Y38367383D01*
X112802075Y38436605D01*
X112802070Y38436606D01*
X112797482Y38437926D01*
X112539679Y38471180D01*
X112402405Y38467945D01*
X112284592Y38465169D01*
X112284587Y38465169D01*
X112279813Y38465056D01*
X112151838Y38442375D01*
X112028567Y38420528D01*
X112028563Y38420527D01*
X112023863Y38419694D01*
X111777719Y38336140D01*
X111547046Y38216315D01*
X111543192Y38213500D01*
X111543188Y38213497D01*
X111350355Y38072622D01*
X111337153Y38062977D01*
X111152868Y37879655D01*
X111151587Y37880943D01*
X111098423Y37846626D01*
X111027426Y37846484D01*
X110964971Y37887900D01*
X110925971Y37935803D01*
X110922949Y37939515D01*
X110730233Y38113953D01*
X110513349Y38257233D01*
X110509009Y38259234D01*
X110509005Y38259236D01*
X110281640Y38364053D01*
X110281637Y38364054D01*
X110277288Y38366059D01*
X110272686Y38367383D01*
X110032075Y38436605D01*
X110032070Y38436606D01*
X110027482Y38437926D01*
X109769679Y38471180D01*
X109632405Y38467945D01*
X109514592Y38465169D01*
X109514587Y38465169D01*
X109509813Y38465056D01*
X109381838Y38442375D01*
X109258567Y38420528D01*
X109258563Y38420527D01*
X109253863Y38419694D01*
X109007719Y38336140D01*
X108777046Y38216315D01*
X108773192Y38213500D01*
X108773188Y38213497D01*
X108580355Y38072622D01*
X108567153Y38062977D01*
X108382868Y37879655D01*
X108381587Y37880943D01*
X108328423Y37846626D01*
X108257426Y37846484D01*
X108194971Y37887900D01*
X108155971Y37935803D01*
X108152949Y37939515D01*
X107960233Y38113953D01*
X107743349Y38257233D01*
X107739009Y38259234D01*
X107739005Y38259236D01*
X107511640Y38364053D01*
X107511637Y38364054D01*
X107507288Y38366059D01*
X107502686Y38367383D01*
X107262075Y38436605D01*
X107262070Y38436606D01*
X107257482Y38437926D01*
X106999679Y38471180D01*
X106862405Y38467945D01*
X106744592Y38465169D01*
X106744587Y38465169D01*
X106739813Y38465056D01*
X106611838Y38442375D01*
X106488567Y38420528D01*
X106488563Y38420527D01*
X106483863Y38419694D01*
X106237719Y38336140D01*
X106007046Y38216315D01*
X106003192Y38213500D01*
X106003188Y38213497D01*
X105810355Y38072622D01*
X105797153Y38062977D01*
X105738737Y38004866D01*
X105616259Y37883029D01*
X105616255Y37883024D01*
X105612868Y37879655D01*
X105610023Y37875803D01*
X105610022Y37875802D01*
X105500617Y37727679D01*
X105444056Y37684768D01*
X105373275Y37679248D01*
X105310745Y37712872D01*
X105304752Y37719213D01*
X105194297Y37844500D01*
X105187044Y37851504D01*
X105007346Y37999110D01*
X104999064Y38004866D01*
X104798081Y38121841D01*
X104788976Y38126203D01*
X104571885Y38209537D01*
X104562196Y38212388D01*
X104461736Y38233375D01*
X104447676Y38232253D01*
X104444000Y38222144D01*
X104444000Y34496894D01*
X104456842Y34453158D01*
X104456842Y34382161D01*
X104415497Y34319948D01*
X104345485Y34262949D01*
X104341599Y34258656D01*
X104304000Y34217117D01*
X104243457Y34180036D01*
X104172477Y34181573D01*
X104110622Y34224968D01*
X104093652Y34247084D01*
X104082080Y34258656D01*
X103968176Y34346059D01*
X103953991Y34354249D01*
X103913783Y34370903D01*
X103858501Y34415451D01*
X103836000Y34487312D01*
X103836000Y36037885D01*
X103831525Y36053124D01*
X103830135Y36054329D01*
X103822452Y36056000D01*
X102650115Y36056000D01*
X102634876Y36051525D01*
X102633671Y36050135D01*
X102632000Y36042452D01*
X102632000Y35901544D01*
X97989294Y35901544D01*
X97980199Y35916651D01*
X97975925Y35922870D01*
X97882722Y36042377D01*
X97870932Y36050845D01*
X97859220Y36044299D01*
X96267733Y34452812D01*
X96260119Y34438868D01*
X95388645Y34438868D01*
X95389881Y34441132D01*
X95389750Y34442965D01*
X95385499Y34449580D01*
X93791249Y36043830D01*
X93778314Y36050893D01*
X93767751Y36043233D01*
X93689730Y35945323D01*
X93685374Y35939125D01*
X93524350Y35677894D01*
X93520770Y35671218D01*
X93392296Y35392535D01*
X93389546Y35385484D01*
X93295480Y35093378D01*
X93293597Y35086045D01*
X93235305Y34784754D01*
X93234318Y34777254D01*
X93212644Y34471149D01*
X93212565Y34463568D01*
X76487842Y34463568D01*
X76356640Y34524053D01*
X76356637Y34524054D01*
X76352288Y34526059D01*
X76347686Y34527383D01*
X76107075Y34596605D01*
X76107070Y34596606D01*
X76102482Y34597926D01*
X75844679Y34631180D01*
X75807468Y34630303D01*
X75738896Y34648694D01*
X75691151Y34701240D01*
X75678500Y34756268D01*
X75678500Y34762070D01*
X80118243Y34762070D01*
X80121565Y34746855D01*
X80132766Y34744000D01*
X82387885Y34744000D01*
X82403124Y34748475D01*
X82404329Y34749865D01*
X82406000Y34757548D01*
X82406000Y34762115D01*
X83014000Y34762115D01*
X83018475Y34746876D01*
X83019865Y34745671D01*
X83027548Y34744000D01*
X85286325Y34744000D01*
X85301462Y34748445D01*
X85303166Y34757593D01*
X85303162Y34757626D01*
X85248031Y35059490D01*
X85246218Y35066870D01*
X85155225Y35359916D01*
X85152543Y35367013D01*
X85026993Y35647029D01*
X85023492Y35653726D01*
X84865199Y35916651D01*
X84860925Y35922870D01*
X84672196Y36164866D01*
X84667194Y36170539D01*
X84450762Y36388108D01*
X84445117Y36393137D01*
X84327225Y36486076D01*
X94214129Y36486076D01*
X94220733Y36474188D01*
X95812188Y34882733D01*
X95826132Y34875119D01*
X95827965Y34875250D01*
X95834580Y34879501D01*
X97428815Y36473736D01*
X97435827Y36486577D01*
X97428032Y36497266D01*
X97319123Y36583122D01*
X97312900Y36587447D01*
X97157504Y36682115D01*
X102632000Y36682115D01*
X102636475Y36666876D01*
X102637865Y36665671D01*
X102645548Y36664000D01*
X103817885Y36664000D01*
X103833124Y36668475D01*
X103834329Y36669865D01*
X103836000Y36677548D01*
X103836000Y38223108D01*
X103832027Y38236639D01*
X103823919Y38237804D01*
X103617506Y38179396D01*
X103608062Y38175884D01*
X103397295Y38077601D01*
X103388529Y38072622D01*
X103196198Y37941913D01*
X103188323Y37935581D01*
X103019374Y37775814D01*
X103012613Y37768305D01*
X102871375Y37583574D01*
X102865911Y37575095D01*
X102756022Y37370153D01*
X102751980Y37360901D01*
X102676273Y37141029D01*
X102673764Y37131257D01*
X102633996Y36901029D01*
X102633141Y36893157D01*
X102632064Y36869449D01*
X102632000Y36866616D01*
X102632000Y36682115D01*
X97157504Y36682115D01*
X97050824Y36747105D01*
X97044148Y36750640D01*
X96764784Y36877658D01*
X96757714Y36880372D01*
X96465131Y36972904D01*
X96457780Y36974751D01*
X96156191Y37031465D01*
X96148681Y37032413D01*
X95842464Y37052483D01*
X95834899Y37052523D01*
X95528478Y37035660D01*
X95520967Y37034791D01*
X95218793Y36981237D01*
X95211432Y36979470D01*
X94917898Y36890007D01*
X94910791Y36887365D01*
X94630122Y36763282D01*
X94623396Y36759811D01*
X94359662Y36602906D01*
X94353411Y36598657D01*
X94222595Y36497734D01*
X94214129Y36486076D01*
X84327225Y36486076D01*
X84204123Y36583122D01*
X84197900Y36587447D01*
X83935824Y36747105D01*
X83929148Y36750640D01*
X83649784Y36877658D01*
X83642714Y36880372D01*
X83350131Y36972904D01*
X83342780Y36974751D01*
X83041189Y37031465D01*
X83033682Y37032413D01*
X83032078Y37032518D01*
X83016779Y37029095D01*
X83014000Y37018069D01*
X83014000Y34762115D01*
X82406000Y34762115D01*
X82406000Y37016682D01*
X82402227Y37029533D01*
X82387131Y37031453D01*
X82103793Y36981237D01*
X82096432Y36979470D01*
X81802898Y36890007D01*
X81795791Y36887365D01*
X81515122Y36763282D01*
X81508396Y36759811D01*
X81244666Y36602908D01*
X81238402Y36598651D01*
X80995442Y36411208D01*
X80989724Y36406221D01*
X80771044Y36190948D01*
X80765969Y36185312D01*
X80574730Y35945323D01*
X80570374Y35939125D01*
X80409350Y35677894D01*
X80405770Y35671218D01*
X80277296Y35392535D01*
X80274546Y35385484D01*
X80180480Y35093378D01*
X80178597Y35086045D01*
X80120308Y34784768D01*
X80119317Y34777238D01*
X80118243Y34762070D01*
X75678500Y34762070D01*
X75678500Y34814249D01*
X75698502Y34882370D01*
X75703136Y34889091D01*
X75821567Y35049434D01*
X75826217Y35058271D01*
X75940366Y35275234D01*
X75942598Y35279476D01*
X75944159Y35283995D01*
X75944161Y35284001D01*
X76025880Y35520661D01*
X76025880Y35520662D01*
X76027440Y35525179D01*
X76074141Y35780888D01*
X76078500Y35864061D01*
X76078500Y36826099D01*
X76075418Y36866616D01*
X76064175Y37014423D01*
X76064174Y37014428D01*
X76063812Y37019190D01*
X76059995Y37035660D01*
X76006197Y37267760D01*
X76005118Y37272415D01*
X75908795Y37513848D01*
X75777062Y37737934D01*
X75612949Y37939515D01*
X75420233Y38113953D01*
X75203349Y38257233D01*
X75199009Y38259234D01*
X75199005Y38259236D01*
X74971640Y38364053D01*
X74971637Y38364054D01*
X74967288Y38366059D01*
X74962686Y38367383D01*
X74722075Y38436605D01*
X74722070Y38436606D01*
X74717482Y38437926D01*
X74459679Y38471180D01*
X74322405Y38467945D01*
X74204592Y38465169D01*
X74204587Y38465169D01*
X74199813Y38465056D01*
X74071838Y38442375D01*
X73948567Y38420528D01*
X73948563Y38420527D01*
X73943863Y38419694D01*
X73697719Y38336140D01*
X73467046Y38216315D01*
X73463192Y38213500D01*
X73463188Y38213497D01*
X73270355Y38072622D01*
X73257153Y38062977D01*
X73072868Y37879655D01*
X73071587Y37880943D01*
X73018423Y37846626D01*
X72947426Y37846484D01*
X72884971Y37887900D01*
X72845971Y37935803D01*
X72842949Y37939515D01*
X72650233Y38113953D01*
X72433349Y38257233D01*
X72429009Y38259234D01*
X72429005Y38259236D01*
X72201640Y38364053D01*
X72201637Y38364054D01*
X72197288Y38366059D01*
X72192686Y38367383D01*
X71952075Y38436605D01*
X71952070Y38436606D01*
X71947482Y38437926D01*
X71689679Y38471180D01*
X71552405Y38467945D01*
X71434592Y38465169D01*
X71434587Y38465169D01*
X71429813Y38465056D01*
X71301838Y38442375D01*
X71178567Y38420528D01*
X71178563Y38420527D01*
X71173863Y38419694D01*
X70927719Y38336140D01*
X70697046Y38216315D01*
X70693192Y38213500D01*
X70693188Y38213497D01*
X70500355Y38072622D01*
X70487153Y38062977D01*
X70302868Y37879655D01*
X70301587Y37880943D01*
X70248423Y37846626D01*
X70177426Y37846484D01*
X70114971Y37887900D01*
X70075971Y37935803D01*
X70072949Y37939515D01*
X69880233Y38113953D01*
X69663349Y38257233D01*
X69659009Y38259234D01*
X69659005Y38259236D01*
X69431640Y38364053D01*
X69431637Y38364054D01*
X69427288Y38366059D01*
X69422686Y38367383D01*
X69182075Y38436605D01*
X69182070Y38436606D01*
X69177482Y38437926D01*
X68919679Y38471180D01*
X68782405Y38467945D01*
X68664592Y38465169D01*
X68664587Y38465169D01*
X68659813Y38465056D01*
X68531838Y38442375D01*
X68408567Y38420528D01*
X68408563Y38420527D01*
X68403863Y38419694D01*
X68157719Y38336140D01*
X67927046Y38216315D01*
X67923192Y38213500D01*
X67923188Y38213497D01*
X67730355Y38072622D01*
X67717153Y38062977D01*
X67532868Y37879655D01*
X67531587Y37880943D01*
X67478423Y37846626D01*
X67407426Y37846484D01*
X67344971Y37887900D01*
X67305971Y37935803D01*
X67302949Y37939515D01*
X67110233Y38113953D01*
X66893349Y38257233D01*
X66889009Y38259234D01*
X66889005Y38259236D01*
X66661640Y38364053D01*
X66661637Y38364054D01*
X66657288Y38366059D01*
X66652686Y38367383D01*
X66412075Y38436605D01*
X66412070Y38436606D01*
X66407482Y38437926D01*
X66149679Y38471180D01*
X66012405Y38467945D01*
X65894592Y38465169D01*
X65894587Y38465169D01*
X65889813Y38465056D01*
X65761838Y38442375D01*
X65638567Y38420528D01*
X65638563Y38420527D01*
X65633863Y38419694D01*
X65387719Y38336140D01*
X65157046Y38216315D01*
X65153192Y38213500D01*
X65153188Y38213497D01*
X64960355Y38072622D01*
X64947153Y38062977D01*
X64762868Y37879655D01*
X64761587Y37880943D01*
X64708423Y37846626D01*
X64637426Y37846484D01*
X64574971Y37887900D01*
X64535971Y37935803D01*
X64532949Y37939515D01*
X64340233Y38113953D01*
X64123349Y38257233D01*
X64119009Y38259234D01*
X64119005Y38259236D01*
X63891640Y38364053D01*
X63891637Y38364054D01*
X63887288Y38366059D01*
X63882686Y38367383D01*
X63642075Y38436605D01*
X63642070Y38436606D01*
X63637482Y38437926D01*
X63379679Y38471180D01*
X63242405Y38467945D01*
X63124592Y38465169D01*
X63124587Y38465169D01*
X63119813Y38465056D01*
X62991838Y38442375D01*
X62868567Y38420528D01*
X62868563Y38420527D01*
X62863863Y38419694D01*
X62617719Y38336140D01*
X62387046Y38216315D01*
X62383192Y38213500D01*
X62383188Y38213497D01*
X62190355Y38072622D01*
X62177153Y38062977D01*
X61992868Y37879655D01*
X61991587Y37880943D01*
X61938423Y37846626D01*
X61867426Y37846484D01*
X61804971Y37887900D01*
X61765971Y37935803D01*
X61762949Y37939515D01*
X61570233Y38113953D01*
X61353349Y38257233D01*
X61349009Y38259234D01*
X61349005Y38259236D01*
X61121640Y38364053D01*
X61121637Y38364054D01*
X61117288Y38366059D01*
X61112686Y38367383D01*
X60872075Y38436605D01*
X60872070Y38436606D01*
X60867482Y38437926D01*
X60609679Y38471180D01*
X60472405Y38467945D01*
X60354592Y38465169D01*
X60354587Y38465169D01*
X60349813Y38465056D01*
X60221838Y38442375D01*
X60098567Y38420528D01*
X60098563Y38420527D01*
X60093863Y38419694D01*
X59847719Y38336140D01*
X59617046Y38216315D01*
X59613192Y38213500D01*
X59613188Y38213497D01*
X59420355Y38072622D01*
X59407153Y38062977D01*
X59222868Y37879655D01*
X59221587Y37880943D01*
X59168423Y37846626D01*
X59097426Y37846484D01*
X59034971Y37887900D01*
X58995971Y37935803D01*
X58992949Y37939515D01*
X58800233Y38113953D01*
X58583349Y38257233D01*
X58579009Y38259234D01*
X58579005Y38259236D01*
X58351640Y38364053D01*
X58351637Y38364054D01*
X58347288Y38366059D01*
X58342686Y38367383D01*
X58102075Y38436605D01*
X58102070Y38436606D01*
X58097482Y38437926D01*
X57839679Y38471180D01*
X57702405Y38467945D01*
X57584592Y38465169D01*
X57584587Y38465169D01*
X57579813Y38465056D01*
X57451838Y38442375D01*
X57328567Y38420528D01*
X57328563Y38420527D01*
X57323863Y38419694D01*
X57077719Y38336140D01*
X56847046Y38216315D01*
X56843192Y38213500D01*
X56843188Y38213497D01*
X56650355Y38072622D01*
X56637153Y38062977D01*
X56578737Y38004866D01*
X56456259Y37883029D01*
X56456255Y37883024D01*
X56452868Y37879655D01*
X56298433Y37670566D01*
X56177402Y37440524D01*
X56175841Y37436005D01*
X56175839Y37435999D01*
X56094120Y37199339D01*
X56092560Y37194821D01*
X56045859Y36939112D01*
X56041500Y36855939D01*
X56041500Y36164519D01*
X56021498Y36096398D01*
X56004595Y36075424D01*
X55358802Y35429631D01*
X55355645Y35425123D01*
X55355643Y35425120D01*
X55329062Y35387158D01*
X55322370Y35378438D01*
X55292586Y35342943D01*
X55292582Y35342937D01*
X55289045Y35338722D01*
X55286295Y35333958D01*
X55286291Y35333953D01*
X55263124Y35293825D01*
X55257219Y35284555D01*
X55227477Y35242080D01*
X55225152Y35237095D01*
X55225149Y35237089D01*
X55205561Y35195081D01*
X55200488Y35185336D01*
X55174567Y35140439D01*
X55172686Y35135271D01*
X55156834Y35091719D01*
X55152628Y35081565D01*
X55130716Y35034574D01*
X55117290Y34984470D01*
X55113998Y34974030D01*
X55096258Y34925290D01*
X55095303Y34919872D01*
X55087253Y34874219D01*
X55084875Y34863494D01*
X55071457Y34813418D01*
X55068949Y34784754D01*
X55066938Y34761766D01*
X55065503Y34750870D01*
X55056500Y34699810D01*
X55056500Y34589118D01*
X55036498Y34520997D01*
X55009109Y34490647D01*
X54930633Y34428000D01*
X54889687Y34395313D01*
X54776524Y34253557D01*
X54697579Y34090252D01*
X54695995Y34083391D01*
X54669940Y33970533D01*
X54656776Y33913515D01*
X54656500Y33908728D01*
X54656500Y32429188D01*
X54636498Y32361067D01*
X54619595Y32340093D01*
X53342907Y31063405D01*
X53280595Y31029379D01*
X53253812Y31026500D01*
X34937521Y31026500D01*
X34918656Y31023173D01*
X34886461Y31017497D01*
X34875564Y31016062D01*
X34862523Y31014921D01*
X34823913Y31011543D01*
X34818595Y31010118D01*
X34773834Y30998125D01*
X34763105Y30995746D01*
X34732175Y30990292D01*
X34712042Y30986742D01*
X34694106Y30980214D01*
X34663308Y30969005D01*
X34652828Y30965701D01*
X34602757Y30952284D01*
X34597774Y30949960D01*
X34597773Y30949960D01*
X34555765Y30930372D01*
X34545613Y30926167D01*
X34496892Y30908434D01*
X34451988Y30882509D01*
X34442250Y30877439D01*
X34395251Y30855523D01*
X34390745Y30852368D01*
X34390740Y30852365D01*
X34352777Y30825784D01*
X34343510Y30819880D01*
X34316324Y30804183D01*
X34298609Y30793955D01*
X34294390Y30790415D01*
X34294386Y30790412D01*
X34258893Y30760630D01*
X34250173Y30753938D01*
X34212211Y30727357D01*
X34212208Y30727355D01*
X34207700Y30724198D01*
X28748595Y25265093D01*
X28686283Y25231067D01*
X28615468Y25236132D01*
X28558632Y25278679D01*
X28533821Y25345199D01*
X28533500Y25354188D01*
X28533500Y30628985D01*
X28553502Y30697106D01*
X28607158Y30743599D01*
X28677432Y30753703D01*
X28736204Y30728947D01*
X28781824Y30693942D01*
X28796007Y30685753D01*
X28928650Y30630810D01*
X28944468Y30626572D01*
X29051066Y30612538D01*
X29059275Y30612000D01*
X29672885Y30612000D01*
X29688124Y30616475D01*
X29689329Y30617865D01*
X29691000Y30625548D01*
X29691000Y30630116D01*
X30299000Y30630116D01*
X30303475Y30614877D01*
X30304865Y30613672D01*
X30312548Y30612001D01*
X30930723Y30612001D01*
X30938935Y30612539D01*
X31045533Y30626572D01*
X31061348Y30630810D01*
X31193993Y30685753D01*
X31208176Y30693941D01*
X31322080Y30781344D01*
X31333656Y30792920D01*
X31421059Y30906824D01*
X31429247Y30921007D01*
X31484190Y31053650D01*
X31488428Y31069468D01*
X31502462Y31176066D01*
X31503000Y31184275D01*
X31503000Y32197885D01*
X31498525Y32213124D01*
X31497135Y32214329D01*
X31489452Y32216000D01*
X30317115Y32216000D01*
X30301876Y32211525D01*
X30300671Y32210135D01*
X30299000Y32202452D01*
X30299000Y30630116D01*
X29691000Y30630116D01*
X29691000Y32393153D01*
X35338988Y32393153D01*
X35346513Y32382720D01*
X35433517Y32312642D01*
X35439701Y32308248D01*
X35700067Y32145869D01*
X35706738Y32142247D01*
X35984732Y32012321D01*
X35991785Y32009528D01*
X36283393Y31913934D01*
X36290705Y31912016D01*
X36591689Y31852147D01*
X36599187Y31851119D01*
X36905183Y31827842D01*
X36912746Y31827724D01*
X37219314Y31841377D01*
X37226855Y31842169D01*
X37529558Y31892553D01*
X37536946Y31894245D01*
X37831401Y31980629D01*
X37838525Y31983194D01*
X38120482Y32104332D01*
X38127249Y32107736D01*
X38392603Y32261866D01*
X38398910Y32266056D01*
X38552615Y32382091D01*
X38561071Y32393482D01*
X38554353Y32405726D01*
X36962812Y33997267D01*
X36948868Y34004881D01*
X36947035Y34004750D01*
X36940420Y34000499D01*
X35346103Y32406182D01*
X35338988Y32393153D01*
X29691000Y32393153D01*
X29691000Y32842115D01*
X30299000Y32842115D01*
X30303475Y32826876D01*
X30304865Y32825671D01*
X30312548Y32824000D01*
X31484884Y32824000D01*
X31500123Y32828475D01*
X31501328Y32829865D01*
X31502999Y32837548D01*
X31502999Y33855723D01*
X31502461Y33863935D01*
X31488428Y33970533D01*
X31484190Y33986348D01*
X31429247Y34118993D01*
X31421059Y34133176D01*
X31333656Y34247080D01*
X31322080Y34258656D01*
X31208176Y34346059D01*
X31193993Y34354247D01*
X31061350Y34409190D01*
X31045532Y34413428D01*
X30938934Y34427462D01*
X30930725Y34428000D01*
X30317115Y34428000D01*
X30301876Y34423525D01*
X30300671Y34422135D01*
X30299000Y34414452D01*
X30299000Y32842115D01*
X29691000Y32842115D01*
X29691000Y34409884D01*
X29686526Y34425122D01*
X29677523Y34432923D01*
X29657828Y34463568D01*
X34337565Y34463568D01*
X34352823Y34157080D01*
X34353654Y34149551D01*
X34405621Y33847117D01*
X34407354Y33839730D01*
X34495278Y33545734D01*
X34497881Y33538621D01*
X34620491Y33257310D01*
X34623933Y33250554D01*
X34779449Y32986012D01*
X34783672Y32979727D01*
X34892204Y32837516D01*
X34903729Y32829054D01*
X34915794Y32835715D01*
X36507267Y34427188D01*
X36513645Y34438868D01*
X37385119Y34438868D01*
X37385250Y34437035D01*
X37389501Y34430420D01*
X38983935Y32835986D01*
X38997058Y32828820D01*
X39007360Y32836210D01*
X39069388Y32912399D01*
X39073810Y32918553D01*
X39237562Y33178083D01*
X39241209Y33184718D01*
X39372595Y33462040D01*
X39375420Y33469067D01*
X39472542Y33760179D01*
X39474496Y33767470D01*
X39535941Y34068141D01*
X39537009Y34075645D01*
X39540395Y34117278D01*
X46819200Y34117278D01*
X46865621Y33847117D01*
X46867354Y33839730D01*
X46955278Y33545734D01*
X46957881Y33538621D01*
X47080491Y33257310D01*
X47083933Y33250554D01*
X47239449Y32986012D01*
X47243672Y32979727D01*
X47429848Y32735777D01*
X47434792Y32730050D01*
X47648924Y32510237D01*
X47654533Y32505134D01*
X47893517Y32312642D01*
X47899701Y32308248D01*
X48160067Y32145869D01*
X48166738Y32142247D01*
X48444732Y32012321D01*
X48451785Y32009528D01*
X48743393Y31913934D01*
X48750705Y31912016D01*
X49051688Y31852147D01*
X49059188Y31851119D01*
X49087935Y31848932D01*
X49103069Y31852153D01*
X49106000Y31863528D01*
X49106000Y31864803D01*
X49714000Y31864803D01*
X49717838Y31851731D01*
X49732571Y31849779D01*
X49989563Y31892554D01*
X49996939Y31894243D01*
X50291401Y31980629D01*
X50298525Y31983194D01*
X50580482Y32104332D01*
X50587249Y32107736D01*
X50852603Y32261866D01*
X50858910Y32266056D01*
X51103829Y32450951D01*
X51109585Y32455867D01*
X51330519Y32668848D01*
X51335649Y32674428D01*
X51529391Y32912402D01*
X51533806Y32918546D01*
X51697562Y33178083D01*
X51701209Y33184718D01*
X51832595Y33462040D01*
X51835420Y33469067D01*
X51932542Y33760179D01*
X51934496Y33767470D01*
X51995942Y34068143D01*
X51997009Y34075644D01*
X52000449Y34117942D01*
X51997329Y34132992D01*
X51985778Y34136000D01*
X49732115Y34136000D01*
X49716876Y34131525D01*
X49715671Y34130135D01*
X49714000Y34122452D01*
X49714000Y31864803D01*
X49106000Y31864803D01*
X49106000Y34117885D01*
X49101525Y34133124D01*
X49100135Y34134329D01*
X49092452Y34136000D01*
X46834098Y34136000D01*
X46821136Y34132194D01*
X46819200Y34117278D01*
X39540395Y34117278D01*
X39562012Y34383047D01*
X39562217Y34387522D01*
X39562744Y34437779D01*
X39562634Y34442211D01*
X39544072Y34750112D01*
X39543164Y34757614D01*
X39542350Y34762070D01*
X46818243Y34762070D01*
X46821565Y34746855D01*
X46832766Y34744000D01*
X49087885Y34744000D01*
X49103124Y34748475D01*
X49104329Y34749865D01*
X49106000Y34757548D01*
X49106000Y34762115D01*
X49714000Y34762115D01*
X49718475Y34746876D01*
X49719865Y34745671D01*
X49727548Y34744000D01*
X51986325Y34744000D01*
X52001462Y34748445D01*
X52003166Y34757593D01*
X52003162Y34757626D01*
X51948031Y35059490D01*
X51946218Y35066870D01*
X51855225Y35359916D01*
X51852543Y35367013D01*
X51726993Y35647029D01*
X51723492Y35653726D01*
X51565199Y35916651D01*
X51560925Y35922870D01*
X51372196Y36164866D01*
X51367194Y36170539D01*
X51150762Y36388108D01*
X51145117Y36393137D01*
X50904123Y36583122D01*
X50897900Y36587447D01*
X50635824Y36747105D01*
X50629148Y36750640D01*
X50349784Y36877658D01*
X50342714Y36880372D01*
X50050131Y36972904D01*
X50042780Y36974751D01*
X49741189Y37031465D01*
X49733682Y37032413D01*
X49732078Y37032518D01*
X49716779Y37029095D01*
X49714000Y37018069D01*
X49714000Y34762115D01*
X49106000Y34762115D01*
X49106000Y37016682D01*
X49102227Y37029533D01*
X49087131Y37031453D01*
X48803793Y36981237D01*
X48796432Y36979470D01*
X48502898Y36890007D01*
X48495791Y36887365D01*
X48215122Y36763282D01*
X48208396Y36759811D01*
X47944666Y36602908D01*
X47938402Y36598651D01*
X47695442Y36411208D01*
X47689724Y36406221D01*
X47471044Y36190948D01*
X47465969Y36185312D01*
X47274730Y35945323D01*
X47270374Y35939125D01*
X47109350Y35677894D01*
X47105770Y35671218D01*
X46977296Y35392535D01*
X46974546Y35385484D01*
X46880480Y35093378D01*
X46878597Y35086045D01*
X46820308Y34784768D01*
X46819317Y34777238D01*
X46818243Y34762070D01*
X39542350Y34762070D01*
X39488031Y35059490D01*
X39486218Y35066870D01*
X39395225Y35359916D01*
X39392543Y35367013D01*
X39266993Y35647029D01*
X39263492Y35653726D01*
X39105199Y35916651D01*
X39100925Y35922870D01*
X39007722Y36042377D01*
X38995932Y36050845D01*
X38984220Y36044299D01*
X37392733Y34452812D01*
X37385119Y34438868D01*
X36513645Y34438868D01*
X36514881Y34441132D01*
X36514750Y34442965D01*
X36510499Y34449580D01*
X34916249Y36043830D01*
X34903314Y36050893D01*
X34892751Y36043233D01*
X34814730Y35945323D01*
X34810374Y35939125D01*
X34649350Y35677894D01*
X34645770Y35671218D01*
X34517296Y35392535D01*
X34514546Y35385484D01*
X34420480Y35093378D01*
X34418597Y35086045D01*
X34360305Y34784754D01*
X34359318Y34777254D01*
X34337644Y34471149D01*
X34337565Y34463568D01*
X29657828Y34463568D01*
X29639139Y34492649D01*
X29639139Y34563645D01*
X29677522Y34623372D01*
X29685707Y34629889D01*
X29718975Y34654193D01*
X29718985Y34654202D01*
X29722847Y34657023D01*
X29822613Y34756268D01*
X29903741Y34836971D01*
X29903745Y34836976D01*
X29907132Y34840345D01*
X30061567Y35049434D01*
X30066217Y35058271D01*
X30180366Y35275234D01*
X30182598Y35279476D01*
X30184159Y35283995D01*
X30184161Y35284001D01*
X30265880Y35520661D01*
X30265880Y35520662D01*
X30267440Y35525179D01*
X30314141Y35780888D01*
X30318500Y35864061D01*
X30318500Y36486076D01*
X35339129Y36486076D01*
X35345733Y36474188D01*
X36937188Y34882733D01*
X36951132Y34875119D01*
X36952965Y34875250D01*
X36959580Y34879501D01*
X38553815Y36473736D01*
X38560827Y36486577D01*
X38553032Y36497266D01*
X38444123Y36583122D01*
X38437900Y36587447D01*
X38175824Y36747105D01*
X38169148Y36750640D01*
X37889784Y36877658D01*
X37882714Y36880372D01*
X37590131Y36972904D01*
X37582780Y36974751D01*
X37281191Y37031465D01*
X37273681Y37032413D01*
X36967464Y37052483D01*
X36959899Y37052523D01*
X36653478Y37035660D01*
X36645967Y37034791D01*
X36343793Y36981237D01*
X36336432Y36979470D01*
X36042898Y36890007D01*
X36035791Y36887365D01*
X35755122Y36763282D01*
X35748396Y36759811D01*
X35484662Y36602906D01*
X35478411Y36598657D01*
X35347595Y36497734D01*
X35339129Y36486076D01*
X30318500Y36486076D01*
X30318500Y36826099D01*
X30315418Y36866616D01*
X30304175Y37014423D01*
X30304174Y37014428D01*
X30303812Y37019190D01*
X30299995Y37035660D01*
X30246197Y37267760D01*
X30245118Y37272415D01*
X30148795Y37513848D01*
X30017062Y37737934D01*
X29852949Y37939515D01*
X29660233Y38113953D01*
X29443349Y38257233D01*
X29439009Y38259234D01*
X29439005Y38259236D01*
X29211640Y38364053D01*
X29211637Y38364054D01*
X29207288Y38366059D01*
X29202686Y38367383D01*
X28962075Y38436605D01*
X28962070Y38436606D01*
X28957482Y38437926D01*
X28699679Y38471180D01*
X28562405Y38467945D01*
X28444592Y38465169D01*
X28444587Y38465169D01*
X28439813Y38465056D01*
X28311838Y38442375D01*
X28188567Y38420528D01*
X28188563Y38420527D01*
X28183863Y38419694D01*
X27937719Y38336140D01*
X27707046Y38216315D01*
X27703192Y38213500D01*
X27703188Y38213497D01*
X27510355Y38072622D01*
X27497153Y38062977D01*
X27312868Y37879655D01*
X27311587Y37880943D01*
X27258423Y37846626D01*
X27187426Y37846484D01*
X27124971Y37887900D01*
X27085971Y37935803D01*
X27082949Y37939515D01*
X26890233Y38113953D01*
X26673349Y38257233D01*
X26669009Y38259234D01*
X26669005Y38259236D01*
X26441640Y38364053D01*
X26441637Y38364054D01*
X26437288Y38366059D01*
X26432686Y38367383D01*
X26192075Y38436605D01*
X26192070Y38436606D01*
X26187482Y38437926D01*
X25929679Y38471180D01*
X25792405Y38467945D01*
X25674592Y38465169D01*
X25674587Y38465169D01*
X25669813Y38465056D01*
X25541838Y38442375D01*
X25418567Y38420528D01*
X25418563Y38420527D01*
X25413863Y38419694D01*
X25167719Y38336140D01*
X24937046Y38216315D01*
X24933192Y38213500D01*
X24933188Y38213497D01*
X24740355Y38072622D01*
X24727153Y38062977D01*
X24542868Y37879655D01*
X24541587Y37880943D01*
X24488423Y37846626D01*
X24417426Y37846484D01*
X24354971Y37887900D01*
X24315971Y37935803D01*
X24312949Y37939515D01*
X24120233Y38113953D01*
X23903349Y38257233D01*
X23899009Y38259234D01*
X23899005Y38259236D01*
X23671640Y38364053D01*
X23671637Y38364054D01*
X23667288Y38366059D01*
X23662686Y38367383D01*
X23422075Y38436605D01*
X23422070Y38436606D01*
X23417482Y38437926D01*
X23159679Y38471180D01*
X23022405Y38467945D01*
X22904592Y38465169D01*
X22904587Y38465169D01*
X22899813Y38465056D01*
X22771838Y38442375D01*
X22648567Y38420528D01*
X22648563Y38420527D01*
X22643863Y38419694D01*
X22397719Y38336140D01*
X22167046Y38216315D01*
X22163192Y38213500D01*
X22163188Y38213497D01*
X21970355Y38072622D01*
X21957153Y38062977D01*
X21772868Y37879655D01*
X21771587Y37880943D01*
X21718423Y37846626D01*
X21647426Y37846484D01*
X21584971Y37887900D01*
X21545971Y37935803D01*
X21542949Y37939515D01*
X21350233Y38113953D01*
X21133349Y38257233D01*
X21129009Y38259234D01*
X21129005Y38259236D01*
X20901640Y38364053D01*
X20901637Y38364054D01*
X20897288Y38366059D01*
X20892686Y38367383D01*
X20652075Y38436605D01*
X20652070Y38436606D01*
X20647482Y38437926D01*
X20389679Y38471180D01*
X20252405Y38467945D01*
X20134592Y38465169D01*
X20134587Y38465169D01*
X20129813Y38465056D01*
X20001838Y38442375D01*
X19878567Y38420528D01*
X19878563Y38420527D01*
X19873863Y38419694D01*
X19627719Y38336140D01*
X19397046Y38216315D01*
X19393192Y38213500D01*
X19393188Y38213497D01*
X19200355Y38072622D01*
X19187153Y38062977D01*
X19002868Y37879655D01*
X19001587Y37880943D01*
X18948423Y37846626D01*
X18877426Y37846484D01*
X18814971Y37887900D01*
X18775971Y37935803D01*
X18772949Y37939515D01*
X18580233Y38113953D01*
X18363349Y38257233D01*
X18359009Y38259234D01*
X18359005Y38259236D01*
X18131640Y38364053D01*
X18131637Y38364054D01*
X18127288Y38366059D01*
X18122686Y38367383D01*
X17882075Y38436605D01*
X17882070Y38436606D01*
X17877482Y38437926D01*
X17619679Y38471180D01*
X17482405Y38467945D01*
X17364592Y38465169D01*
X17364587Y38465169D01*
X17359813Y38465056D01*
X17231838Y38442375D01*
X17108567Y38420528D01*
X17108563Y38420527D01*
X17103863Y38419694D01*
X16857719Y38336140D01*
X16627046Y38216315D01*
X16623192Y38213500D01*
X16623188Y38213497D01*
X16430355Y38072622D01*
X16417153Y38062977D01*
X16232868Y37879655D01*
X16231587Y37880943D01*
X16178423Y37846626D01*
X16107426Y37846484D01*
X16044971Y37887900D01*
X16005971Y37935803D01*
X16002949Y37939515D01*
X15810233Y38113953D01*
X15593349Y38257233D01*
X15589009Y38259234D01*
X15589005Y38259236D01*
X15361640Y38364053D01*
X15361637Y38364054D01*
X15357288Y38366059D01*
X15352686Y38367383D01*
X15112075Y38436605D01*
X15112070Y38436606D01*
X15107482Y38437926D01*
X14849679Y38471180D01*
X14712405Y38467945D01*
X14594592Y38465169D01*
X14594587Y38465169D01*
X14589813Y38465056D01*
X14461838Y38442375D01*
X14338567Y38420528D01*
X14338563Y38420527D01*
X14333863Y38419694D01*
X14087719Y38336140D01*
X13857046Y38216315D01*
X13853192Y38213500D01*
X13853188Y38213497D01*
X13660355Y38072622D01*
X13647153Y38062977D01*
X13462868Y37879655D01*
X13461587Y37880943D01*
X13408423Y37846626D01*
X13337426Y37846484D01*
X13274971Y37887900D01*
X13235971Y37935803D01*
X13232949Y37939515D01*
X13040233Y38113953D01*
X12823349Y38257233D01*
X12819009Y38259234D01*
X12819005Y38259236D01*
X12591640Y38364053D01*
X12591637Y38364054D01*
X12587288Y38366059D01*
X12582686Y38367383D01*
X12342075Y38436605D01*
X12342070Y38436606D01*
X12337482Y38437926D01*
X12079679Y38471180D01*
X11942405Y38467945D01*
X11824592Y38465169D01*
X11824587Y38465169D01*
X11819813Y38465056D01*
X11691838Y38442375D01*
X11568567Y38420528D01*
X11568563Y38420527D01*
X11563863Y38419694D01*
X11317719Y38336140D01*
X11087046Y38216315D01*
X11083192Y38213500D01*
X11083188Y38213497D01*
X10890355Y38072622D01*
X10877153Y38062977D01*
X10818737Y38004866D01*
X10696259Y37883029D01*
X10696255Y37883024D01*
X10692868Y37879655D01*
X10538433Y37670566D01*
X10417402Y37440524D01*
X10415841Y37436005D01*
X10415839Y37435999D01*
X10334120Y37199339D01*
X10332560Y37194821D01*
X10285859Y36939112D01*
X10281500Y36855939D01*
X10281500Y35893901D01*
X10281681Y35891522D01*
X10281681Y35891521D01*
X10290399Y35776918D01*
X10296188Y35700810D01*
X10297268Y35696151D01*
X10322136Y35588859D01*
X10318032Y35517981D01*
X10288485Y35471314D01*
X10169802Y35352631D01*
X10166645Y35348123D01*
X10166643Y35348120D01*
X10140062Y35310158D01*
X10133370Y35301438D01*
X10103586Y35265943D01*
X10103582Y35265937D01*
X10100045Y35261722D01*
X10097295Y35256958D01*
X10097291Y35256953D01*
X10074124Y35216825D01*
X10068219Y35207555D01*
X10038477Y35165080D01*
X10036152Y35160095D01*
X10036149Y35160089D01*
X10016561Y35118081D01*
X10011488Y35108336D01*
X9985567Y35063439D01*
X9983686Y35058271D01*
X9967834Y35014719D01*
X9963628Y35004565D01*
X9941716Y34957574D01*
X9928290Y34907470D01*
X9924998Y34897030D01*
X9907258Y34848290D01*
X9906303Y34842872D01*
X9898253Y34797219D01*
X9895875Y34786494D01*
X9882457Y34736418D01*
X9877981Y34685257D01*
X9877938Y34684766D01*
X9876503Y34673870D01*
X9867500Y34622810D01*
X9867500Y34538795D01*
X9847498Y34470674D01*
X9799582Y34426981D01*
X9766669Y34409884D01*
X9702046Y34376315D01*
X9698192Y34373500D01*
X9698188Y34373497D01*
X9525326Y34247212D01*
X9492153Y34222977D01*
X9425910Y34157080D01*
X9311259Y34043029D01*
X9311255Y34043024D01*
X9307868Y34039655D01*
X9153433Y33830566D01*
X9151203Y33826328D01*
X9151202Y33826326D01*
X9091450Y33712756D01*
X9032402Y33600524D01*
X9030841Y33596005D01*
X9030839Y33595999D01*
X8987009Y33469067D01*
X8947560Y33354821D01*
X8900859Y33099112D01*
X8896500Y33015939D01*
X8896500Y32053901D01*
X8896681Y32051522D01*
X8896681Y32051521D01*
X8908645Y31894243D01*
X8911188Y31860810D01*
X8912267Y31856156D01*
X8912267Y31856154D01*
X8918857Y31827724D01*
X8969882Y31607585D01*
X9066205Y31366152D01*
X9197938Y31142066D01*
X9200962Y31138352D01*
X9268212Y31055748D01*
X9295709Y30990292D01*
X9296500Y30976197D01*
X9296500Y29233188D01*
X9276498Y29165067D01*
X9259595Y29144093D01*
X2803802Y22688300D01*
X2800645Y22683792D01*
X2800643Y22683789D01*
X2774062Y22645827D01*
X2767370Y22637107D01*
X2737586Y22601612D01*
X2737582Y22601606D01*
X2734045Y22597391D01*
X2731295Y22592627D01*
X2731291Y22592622D01*
X2708124Y22552494D01*
X2702219Y22543224D01*
X2672477Y22500749D01*
X2670152Y22495764D01*
X2670149Y22495758D01*
X2650561Y22453750D01*
X2645488Y22444005D01*
X2619567Y22399108D01*
X2617686Y22393940D01*
X2601834Y22350388D01*
X2597628Y22340234D01*
X2575716Y22293243D01*
X2562290Y22243139D01*
X2558998Y22232699D01*
X2541258Y22183959D01*
X2538366Y22167555D01*
X2532253Y22132888D01*
X2529875Y22122163D01*
X2516457Y22072087D01*
X2515978Y22066608D01*
X2511938Y22020435D01*
X2510503Y22009539D01*
X2501500Y21958479D01*
X2501500Y16463736D01*
X2482933Y16397902D01*
X2372384Y16217502D01*
X2370491Y16212932D01*
X2370489Y16212928D01*
X2328841Y16112380D01*
X2275495Y15983591D01*
X2216391Y15737403D01*
X2212461Y15687469D01*
X2202260Y15557851D01*
X2201500Y15548199D01*
X2201500Y15021801D01*
X808500Y15021801D01*
X808500Y32393153D01*
X2038988Y32393153D01*
X2046513Y32382720D01*
X2133517Y32312642D01*
X2139701Y32308248D01*
X2400067Y32145869D01*
X2406738Y32142247D01*
X2684732Y32012321D01*
X2691785Y32009528D01*
X2983393Y31913934D01*
X2990705Y31912016D01*
X3291689Y31852147D01*
X3299187Y31851119D01*
X3605183Y31827842D01*
X3612746Y31827724D01*
X3919314Y31841377D01*
X3926855Y31842169D01*
X4229558Y31892553D01*
X4236946Y31894245D01*
X4531401Y31980629D01*
X4538525Y31983194D01*
X4820482Y32104332D01*
X4827249Y32107736D01*
X5092603Y32261866D01*
X5098910Y32266056D01*
X5252615Y32382091D01*
X5261071Y32393482D01*
X5254353Y32405726D01*
X3662812Y33997267D01*
X3648868Y34004881D01*
X3647035Y34004750D01*
X3640420Y34000499D01*
X2046103Y32406182D01*
X2038988Y32393153D01*
X808500Y32393153D01*
X808500Y34098966D01*
X828502Y34167087D01*
X882158Y34213580D01*
X952432Y34223684D01*
X1017012Y34194190D01*
X1055396Y34134464D01*
X1058680Y34120304D01*
X1105621Y33847117D01*
X1107354Y33839730D01*
X1195278Y33545734D01*
X1197881Y33538621D01*
X1320491Y33257310D01*
X1323933Y33250554D01*
X1479449Y32986012D01*
X1483672Y32979727D01*
X1592204Y32837516D01*
X1603729Y32829054D01*
X1615794Y32835715D01*
X3207267Y34427188D01*
X3213645Y34438868D01*
X4085119Y34438868D01*
X4085250Y34437035D01*
X4089501Y34430420D01*
X5683935Y32835986D01*
X5697058Y32828820D01*
X5707360Y32836210D01*
X5769388Y32912399D01*
X5773810Y32918553D01*
X5937562Y33178083D01*
X5941209Y33184718D01*
X6072595Y33462040D01*
X6075420Y33469067D01*
X6172542Y33760179D01*
X6174496Y33767470D01*
X6235941Y34068141D01*
X6237009Y34075645D01*
X6262012Y34383047D01*
X6262217Y34387522D01*
X6262744Y34437779D01*
X6262634Y34442211D01*
X6244072Y34750112D01*
X6243164Y34757614D01*
X6188031Y35059490D01*
X6186218Y35066870D01*
X6095225Y35359916D01*
X6092543Y35367013D01*
X5966993Y35647029D01*
X5963492Y35653726D01*
X5805199Y35916651D01*
X5800925Y35922870D01*
X5707722Y36042377D01*
X5695932Y36050845D01*
X5684220Y36044299D01*
X4092733Y34452812D01*
X4085119Y34438868D01*
X3213645Y34438868D01*
X3214881Y34441132D01*
X3214750Y34442965D01*
X3210499Y34449580D01*
X1616249Y36043830D01*
X1603314Y36050893D01*
X1592751Y36043233D01*
X1514730Y35945323D01*
X1510374Y35939125D01*
X1349350Y35677894D01*
X1345770Y35671218D01*
X1217296Y35392535D01*
X1214546Y35385484D01*
X1120480Y35093378D01*
X1118597Y35086045D01*
X1060305Y34784753D01*
X1059422Y34778042D01*
X1030701Y34713114D01*
X971437Y34674021D01*
X900446Y34673174D01*
X840266Y34710843D01*
X810005Y34775068D01*
X808500Y34794485D01*
X808500Y36486076D01*
X2039129Y36486076D01*
X2045733Y36474188D01*
X3637188Y34882733D01*
X3651132Y34875119D01*
X3652965Y34875250D01*
X3659580Y34879501D01*
X5253815Y36473736D01*
X5260827Y36486577D01*
X5253032Y36497266D01*
X5144123Y36583122D01*
X5137900Y36587447D01*
X4875824Y36747105D01*
X4869148Y36750640D01*
X4589784Y36877658D01*
X4582714Y36880372D01*
X4290131Y36972904D01*
X4282780Y36974751D01*
X3981191Y37031465D01*
X3973681Y37032413D01*
X3667464Y37052483D01*
X3659899Y37052523D01*
X3353478Y37035660D01*
X3345967Y37034791D01*
X3043793Y36981237D01*
X3036432Y36979470D01*
X2742898Y36890007D01*
X2735791Y36887365D01*
X2455122Y36763282D01*
X2448396Y36759811D01*
X2184662Y36602906D01*
X2178411Y36598657D01*
X2047595Y36497734D01*
X2039129Y36486076D01*
X808500Y36486076D01*
X808500Y42245500D01*
X828502Y42313621D01*
X882158Y42360114D01*
X934500Y42371500D01*
X146385500Y42371500D01*
X146453621Y42351498D01*
G37*
G04 #@! TD.AperFunction*
G04 #@! TD*
M02*
