M48
; DRILL file {KiCad 6.0.7-f9a2dced07~116~ubuntu20.04.1} date Fri 11 Nov 2022 04:54:06 PM
; FORMAT={-:-/ absolute / inch / decimal}
; #@! TF.CreationDate,2022-11-11T16:54:06-05:00
; #@! TF.GenerationSoftware,Kicad,Pcbnew,6.0.7-f9a2dced07~116~ubuntu20.04.1
; #@! TF.FileFunction,MixedPlating,1,2
FMAT,2
INCH
; #@! TA.AperFunction,Plated,PTH,ViaDrill
T1C0.0236
; #@! TA.AperFunction,Plated,PTH,ComponentDrill
T2C0.0394
; #@! TA.AperFunction,Plated,PTH,ComponentDrill
T3C0.0512
; #@! TA.AperFunction,Plated,PTH,ComponentDrill
T4C0.1260
; #@! TA.AperFunction,Plated,PTH,ComponentDrill
T5C0.2087
%
G90
G05
T1
X0.86Y0.99
X1.43Y0.98
X2.24Y0.98
X2.92Y0.98
T2
X0.15Y0.6018
X0.3Y0.6018
X0.4175Y1.3
X0.45Y0.6018
X0.472Y1.4118
X0.5266Y1.3
X0.5811Y1.4118
X0.6Y0.6018
X0.6356Y1.3
X0.6902Y1.4118
X0.7447Y1.3
X0.7992Y1.4118
X0.85Y0.6
X0.8537Y1.3
X0.9083Y1.4118
X0.9628Y1.3
X1.0Y0.6
X1.0173Y1.4118
X1.0719Y1.3
X1.1264Y1.4118
X1.15Y0.6
X1.1809Y1.3
X1.3Y0.6
X2.15Y0.6
X2.2191Y1.3
X2.2736Y1.4118
X2.3Y0.6
X2.3281Y1.3
X2.3827Y1.4118
X2.4372Y1.3
X2.45Y0.6
X2.4917Y1.4118
X2.5463Y1.3
X2.6Y0.6
X2.6008Y1.4118
X2.6553Y1.3
X2.7098Y1.4118
X2.7644Y1.3
X2.8189Y1.4118
X2.8734Y1.3
X2.9Y0.6
X2.928Y1.4118
X2.9825Y1.3
X3.05Y0.6
X3.2Y0.6
X3.35Y0.6
X4.0455Y1.3
X4.1Y1.4118
X4.1545Y1.3
X4.2091Y1.4118
X4.2636Y1.3
X4.3181Y1.4118
X4.3726Y1.3
X4.4272Y1.4118
X4.4817Y1.3
X4.5362Y1.4118
X4.5907Y1.3
X4.6453Y1.4118
X4.6998Y1.3
X4.7543Y1.4118
X4.8089Y1.3
X4.8634Y1.4118
X4.9179Y1.3
X4.9724Y1.4118
X5.027Y1.3
X5.05Y0.6
X5.0815Y1.4118
X5.136Y1.3
X5.1906Y1.4118
X5.2Y0.6
X5.2451Y1.3
X5.2996Y1.4118
X5.35Y0.6
X5.3541Y1.3
X5.5Y0.6
T3
X4.3Y0.6118
X4.5Y0.6118
X4.7Y0.6118
T4
X0.1437Y1.3559
X1.4547Y1.3559
X1.9453Y1.3559
X3.2563Y1.3559
X3.7726Y1.3559
X5.627Y1.3559
T5
X1.7Y0.6
X3.8Y0.6
T0
M30
